<?xml version="1.0" standalone="no"?>
<!DOCTYPE svg PUBLIC "-//W3C//DTD SVG 20010904//EN"
 "http://www.w3.org/TR/2001/REC-SVG-20010904/DTD/svg10.dtd">
<svg version="1.0" xmlns="http://www.w3.org/2000/svg"
 width="1034.000000pt" height="433.000000pt" viewBox="0 0 1034.000000 433.000000"
 preserveAspectRatio="xMidYMid meet">

<g transform="translate(0.000000,433.000000) scale(0.100000,-0.100000)"
fill="#000000" stroke="none">
<path d="M2020 3886 c0 -2 7 -9 15 -16 12 -10 15 -10 15 4 0 9 -7 16 -15 16
-8 0 -15 -2 -15 -4z"/>
<path d="M2130 3855 c-8 -9 -8 -15 -2 -15 12 0 26 19 19 26 -2 2 -10 -2 -17
-11z"/>
<path d="M1665 3851 c-3 -6 4 -15 15 -21 11 -6 20 -20 20 -30 0 -22 15 -27 26
-9 3 6 17 8 30 5 17 -5 24 -2 24 8 0 21 -32 25 -52 8 -16 -14 -18 -13 -18 4 0
32 -31 56 -45 35z"/>
<path d="M2053 3830 c-31 -13 -29 -28 2 -22 14 2 32 -1 40 -8 23 -19 31 -3 10
20 -20 22 -21 22 -52 10z"/>
<path d="M2336 3795 c4 -8 8 -15 10 -15 2 0 4 7 4 15 0 8 -4 15 -10 15 -5 0
-7 -7 -4 -15z"/>
<path d="M2420 3755 c0 -9 6 -12 15 -9 8 4 15 10 15 15 0 5 -7 9 -15 9 -8 0
-15 -7 -15 -15z"/>
<path d="M1365 3751 c-3 -5 4 -12 15 -16 11 -3 23 -18 26 -31 l6 -25 23 21
c13 12 28 18 38 14 10 -3 17 -1 17 5 0 20 -30 24 -49 7 -17 -15 -18 -14 -29 9
-12 25 -36 33 -47 16z"/>
<path d="M2325 3740 c-3 -6 4 -10 18 -10 14 0 30 -7 37 -15 7 -8 17 -12 22 -9
5 3 2 14 -8 25 -18 20 -59 26 -69 9z"/>
<path d="M2620 3661 c0 -5 5 -13 10 -16 6 -3 10 -2 10 4 0 5 -4 13 -10 16 -5
3 -10 2 -10 -4z"/>
<path d="M1695 3644 c-214 -23 -493 -104 -548 -158 -9 -10 -17 -28 -17 -41 0
-18 -7 -24 -36 -29 -19 -4 -38 -15 -41 -24 -4 -9 -13 -23 -20 -30 -7 -7 -13
-26 -13 -42 0 -27 1 -28 31 -20 31 9 31 9 26 -19 -4 -17 0 -36 9 -50 14 -19
14 -21 -3 -22 -10 -1 -24 -1 -30 0 -18 3 -16 -10 6 -33 28 -30 68 -114 80
-166 6 -25 11 -88 13 -140 1 -60 3 -76 5 -42 l4 52 360 0 359 0 0 -52 c0 -29
2 -185 3 -345 l3 -293 -407 0 c-380 0 -408 1 -411 18 -11 48 -33 -214 -33
-388 l0 -195 32 -67 c76 -162 213 -249 458 -293 101 -19 183 -40 205 -55 20
-14 -61 -2 -115 16 -27 9 -41 10 -46 2 -16 -25 -247 32 -339 85 -69 39 -158
128 -187 187 -46 95 -56 161 -50 340 6 169 16 250 67 565 44 278 53 365 48
497 -5 138 -24 203 -79 271 l-32 40 24 18 c13 10 19 19 13 19 -7 0 -22 -9 -35
-20 -21 -18 -22 -21 -8 -32 8 -7 30 -32 47 -56 77 -107 80 -296 12 -727 -73
-459 -88 -691 -55 -820 49 -186 204 -317 435 -365 52 -11 105 -22 118 -25 13
-3 22 -13 22 -24 0 -27 74 -35 335 -35 203 0 223 2 260 21 22 12 105 35 185
52 241 51 376 136 448 280 47 95 55 152 49 351 -6 172 -13 232 -78 635 -26
162 -32 231 -33 360 -1 190 13 248 77 322 l41 46 -23 19 c-13 10 -26 16 -29
13 -3 -3 3 -11 13 -19 17 -12 17 -15 -14 -53 -96 -119 -105 -314 -36 -733 69
-418 91 -683 66 -812 -25 -124 -92 -223 -198 -294 -73 -48 -155 -78 -289 -105
-88 -17 -108 -19 -115 -7 -9 14 -12 28 -5 28 23 0 186 35 236 51 164 52 289
176 329 327 16 59 14 303 -4 447 -8 66 -33 233 -55 370 -72 446 -64 626 34
727 32 33 32 35 4 34 -16 -1 -22 4 -18 14 2 8 4 31 4 51 0 35 2 36 24 28 13
-5 25 -9 28 -9 10 0 3 49 -11 78 -13 24 -27 34 -69 46 -30 9 -59 16 -64 16 -6
0 -14 5 -18 11 -5 9 1 10 20 5 24 -6 26 -4 26 24 0 40 -21 52 -165 94 -204 58
-342 78 -580 81 -115 2 -228 1 -250 -1z m490 -109 c125 -8 334 -41 384 -61 53
-21 66 -44 48 -81 -8 -16 -17 -37 -21 -48 -6 -22 -3 -23 67 -25 33 -2 35 -21
6 -49 -17 -16 -26 -18 -50 -9 -16 5 -29 16 -29 23 0 7 -18 15 -42 18 -24 3
-81 12 -128 21 -143 26 -283 36 -494 36 -219 0 -391 -16 -581 -55 -91 -18
-121 -21 -127 -12 -5 8 -8 4 -8 -10 0 -14 -6 -23 -15 -23 -8 0 -15 4 -15 10 0
5 -7 7 -15 4 -8 -4 -15 -2 -15 4 0 6 -3 18 -6 27 -5 12 -2 16 12 14 35 -5 70
10 82 36 17 37 15 53 -9 60 -14 5 -19 14 -17 28 3 19 15 24 88 39 279 57 553
73 885 53z m5 -286 c103 -18 239 -60 372 -114 45 -18 81 -26 106 -23 l38 3
-18 -58 c-10 -32 -18 -72 -18 -88 0 -28 -2 -29 -48 -29 -31 0 -77 12 -132 34
-370 151 -786 154 -1127 10 -54 -23 -110 -39 -145 -41 l-58 -5 0 31 c0 16 -11
59 -23 95 l-24 64 33 -5 c24 -4 55 4 116 30 98 42 227 81 318 97 184 33 426
32 610 -1z m-145 -179 c140 -13 288 -49 423 -102 77 -30 119 -41 150 -39 33 2
42 -1 42 -13 0 -14 -33 -16 -290 -16 l-290 0 -40 25 c-22 14 -40 27 -40 30 0
4 27 1 85 -11 30 -6 30 -6 -5 13 -19 10 -38 14 -41 10 -9 -13 -49 11 -49 29 0
13 3 13 23 -1 13 -8 26 -12 30 -9 4 4 18 -1 32 -10 25 -16 25 -16 25 9 0 14
-11 37 -26 51 -22 22 -31 25 -67 20 -69 -10 -103 -8 -140 8 -10 5 -24 3 -33
-5 -9 -8 -22 -14 -28 -15 -43 -4 -50 -6 -38 -11 6 -2 9 -10 5 -16 -4 -7 0 -6
10 1 17 14 42 7 32 -9 -9 -13 2 -11 35 6 29 15 30 15 30 -5 0 -12 5 -18 10
-15 6 3 10 1 10 -5 0 -7 -8 -9 -19 -5 -22 7 -47 -27 -35 -46 3 -6 -2 -17 -12
-24 -15 -12 -81 -14 -346 -15 -287 0 -327 2 -322 15 4 10 21 15 54 15 31 0 70
10 113 30 86 39 216 76 330 95 156 25 235 28 382 15z m-61 -86 c4 -11 2 -12
-14 -4 -27 14 -34 29 -11 23 11 -3 22 -11 25 -19z m-19 -31 c-6 13 -3 16 9 11
10 -4 15 -13 12 -20 -3 -8 0 -14 7 -14 7 -1 26 -7 42 -15 27 -12 20 -13 -90
-14 -85 0 -113 3 -96 10 18 7 22 15 18 34 -2 14 0 28 6 32 6 3 7 1 3 -5 -11
-18 10 -14 24 3 12 14 17 13 42 -12 19 -19 27 -22 23 -10z m-35 -423 l0 -350
412 -2 c384 -3 413 -4 416 -20 3 -17 -42 -18 -843 -18 -801 0 -846 1 -843 18
3 16 32 17 416 20 l412 2 0 350 c0 304 2 350 15 350 13 0 15 -46 15 -350z
m368 288 c-38 -123 -43 -143 -40 -152 7 -20 -9 -58 -22 -53 -7 3 -23 -8 -35
-24 -26 -35 -50 -39 -27 -4 14 22 15 25 0 33 -14 8 -12 12 11 30 15 12 26 22
24 23 -2 0 -12 2 -22 4 -31 6 -31 13 -3 50 15 19 22 35 17 35 -6 0 -8 8 -5 18
4 12 0 10 -15 -7 -32 -36 -37 -18 -12 46 20 52 20 55 3 40 -24 -22 -33 -22
-25 0 11 28 -15 5 -33 -29 -12 -24 -18 -28 -25 -17 -7 11 -10 9 -15 -9 -5 -19
-9 -20 -22 -10 -13 11 -14 10 -4 -9 7 -12 9 -29 6 -37 -8 -21 13 -73 33 -80
12 -5 13 -9 3 -21 -10 -13 -9 -15 11 -15 22 -1 22 -2 6 -11 -25 -15 -44 3 -52
52 -4 21 -11 41 -16 45 -5 3 -5 13 1 24 13 25 13 33 -2 24 -7 -4 -8 -3 -4 4 7
11 -32 58 -41 49 -2 -3 3 -20 12 -37 l17 -33 -31 5 c-36 5 -40 -2 -11 -20 11
-7 20 -17 20 -23 0 -6 -9 -9 -20 -6 -29 8 -24 -8 7 -22 l28 -13 -23 -12 c-20
-11 -21 -13 -6 -34 8 -12 12 -27 9 -32 -3 -6 1 -10 9 -10 14 0 14 -3 4 -20 -7
-11 -19 -20 -27 -20 -8 0 -11 -7 -8 -20 3 -11 1 -18 -4 -14 -5 3 -9 1 -9 -5 0
-5 5 -13 10 -16 6 -3 10 -11 10 -16 0 -6 -4 -7 -10 -4 -5 3 -10 2 -10 -4 0
-11 28 -29 45 -29 5 0 11 -5 13 -11 5 -15 -31 -14 -46 1 -9 9 -12 9 -12 -1 0
-7 9 -15 19 -18 20 -5 38 -33 21 -33 -6 0 -5 -10 2 -25 8 -19 16 -23 33 -19
13 3 26 0 30 -6 5 -7 0 -11 -11 -10 -32 4 -37 1 -25 -14 8 -10 9 -16 1 -21 -5
-3 -14 4 -19 17 -6 13 -10 17 -10 10 -1 -7 -6 -10 -11 -7 -6 4 -8 10 -6 14 3
4 -1 8 -9 8 -20 0 -21 -113 -2 -120 7 -3 5 -6 -5 -6 -17 -1 -18 22 -18 344 l0
345 183 0 184 0 -19 -62z m367 -15 c4 -43 13 -123 21 -177 18 -131 19 -129 -6
-116 -11 6 -26 8 -32 4 -6 -4 -8 -3 -5 3 4 6 0 14 -9 17 -10 4 -13 2 -8 -7 6
-9 5 -9 -7 0 -9 7 -33 20 -54 29 l-38 16 28 -34 c39 -46 74 -64 118 -62 20 1
37 -1 37 -5 0 -3 9 -58 20 -121 11 -63 20 -125 20 -137 l0 -23 -295 0 c-184 0
-295 4 -295 10 0 5 6 7 13 4 8 -3 20 2 27 11 11 13 10 14 -4 9 -10 -4 -16 -1
-16 9 0 8 -7 18 -16 21 -8 3 -13 10 -10 15 3 5 -3 7 -14 4 -11 -3 -20 0 -20 6
0 6 8 11 19 11 22 0 51 40 51 70 0 11 8 23 18 26 9 3 25 10 34 15 10 5 26 9
35 9 10 0 35 6 55 13 31 11 34 15 20 23 -25 14 -97 12 -97 -4 0 -14 -23 -32
-42 -32 -7 0 -13 5 -13 10 0 6 7 10 16 8 10 -2 19 3 22 11 3 10 0 12 -11 8
-11 -4 -19 7 -31 43 -21 65 -22 63 22 58 32 -5 37 -3 39 16 5 73 39 224 65
289 l10 27 163 0 163 0 7 -77z m-523 -67 c8 5 -12 -32 -30 -56 -3 -5 -22 21
-22 32 0 14 34 41 38 29 2 -6 8 -8 14 -5z m-72 -130 c0 -3 -4 -8 -10 -11 -5
-3 -10 -1 -10 4 0 6 5 11 10 11 6 0 10 -2 10 -4z m-21 -90 c-3 -3 -11 5 -18
17 -13 21 -12 21 5 5 10 -10 16 -20 13 -22z m-39 -6 c0 -5 -5 -10 -11 -10 -5
0 -7 5 -4 10 3 6 8 10 11 10 2 0 4 -4 4 -10z m14 -46 c4 -10 1 -14 -6 -12 -15
5 -23 28 -10 28 5 0 13 -7 16 -16z m46 -35 c0 -5 -7 -9 -15 -9 -8 0 -15 7 -15
15 0 9 6 12 15 9 8 -4 15 -10 15 -15z m60 -9 c0 -5 -7 -10 -16 -10 -8 0 -12 5
-9 10 3 6 10 10 16 10 5 0 9 -4 9 -10z m-40 -30 c0 -5 -4 -10 -9 -10 -6 0 -13
5 -16 10 -3 6 1 10 9 10 9 0 16 -4 16 -10z m-45 -10 c3 -6 -1 -7 -9 -4 -18 7
-21 14 -7 14 6 0 13 -4 16 -10z m45 -20 c0 -5 -4 -10 -10 -10 -5 0 -10 5 -10
10 0 6 5 10 10 10 6 0 10 -4 10 -10z m-45 -10 c3 -5 -1 -10 -9 -10 -9 0 -16 5
-16 10 0 6 4 10 9 10 6 0 13 -4 16 -10z m60 -19 c-3 -6 2 -14 11 -19 15 -8 15
-10 0 -15 -10 -4 -16 -1 -16 8 0 8 -6 15 -12 15 -9 0 -8 4 2 10 19 12 23 12
15 1z m-25 -41 c0 -5 7 -10 16 -10 8 0 12 -4 9 -10 -4 -6 -13 -5 -25 3 -21 13
-26 27 -10 27 6 0 10 -4 10 -10z m683 -168 c3 -4 8 -37 11 -74 l7 -67 -38 11
c-21 5 -63 17 -93 26 -31 10 -89 17 -135 17 -70 0 -88 -4 -143 -31 -38 -19
-72 -30 -84 -26 -14 3 -19 1 -14 -6 5 -8 0 -12 -14 -12 -11 0 -28 -4 -38 -9
-9 -5 -39 -15 -66 -22 -32 -8 -50 -19 -54 -31 -6 -23 -8 -23 -43 3 l-29 20
-10 -23 c-7 -18 -9 -12 -8 32 1 30 -4 65 -10 78 -7 12 -9 22 -5 22 4 0 19 9
33 20 l25 20 -26 -9 c-32 -11 -39 -6 -40 28 -1 24 -2 23 -10 -6 -8 -27 -15
-33 -37 -34 -23 0 -24 -2 -8 -8 14 -5 16 -10 8 -15 -7 -4 -12 -12 -12 -18 0
-6 11 -3 25 6 14 9 25 12 25 7 0 -5 -4 -13 -10 -16 -5 -3 -10 -11 -10 -17 0
-6 3 -8 7 -5 9 9 33 -41 33 -68 0 -17 -7 -25 -22 -27 -26 -4 -33 -21 -16 -39
20 -22 20 -43 -2 -56 -15 -10 -22 -10 -35 3 -8 8 -15 12 -15 8 0 -4 -10 5 -21
20 -22 29 -20 42 5 33 10 -4 13 -13 9 -23 -5 -15 -4 -15 13 2 20 19 20 19 0
31 -12 6 -20 14 -18 17 1 3 2 14 1 24 0 10 -5 6 -11 -11 -10 -28 -11 -28 -32
-10 -11 10 -18 14 -13 9 4 -5 -3 -21 -15 -34 l-23 -25 30 19 c30 18 30 18 14
-1 -9 -11 -20 -27 -24 -35 -8 -13 -7 -13 8 -1 15 12 17 11 17 -6 0 -10 -6 -25
-12 -32 -11 -11 -10 -14 0 -18 6 -3 10 -9 6 -14 -3 -5 4 -22 16 -37 19 -23 20
-27 6 -30 -19 -4 -22 -22 -3 -22 7 -1 5 -6 -6 -14 -14 -11 -16 -18 -7 -41 12
-31 6 -41 -25 -47 -14 -2 -20 -12 -21 -36 -1 -27 2 -32 20 -32 12 0 38 -8 58
-19 25 -12 38 -15 41 -7 5 15 37 -12 37 -32 0 -13 3 -13 19 2 15 14 20 14 29
3 7 -8 9 -17 5 -20 -3 -4 -1 -7 6 -7 8 0 10 7 6 20 -4 12 -1 28 6 36 8 9 10
36 7 79 -3 36 -2 62 3 59 5 -3 9 0 9 5 0 6 -5 11 -11 11 -5 0 -8 4 -5 9 7 11
-22 37 -51 45 -12 4 -38 3 -58 -3 -19 -5 -35 -6 -35 -1 0 12 31 22 68 22 48
-1 49 -1 66 -18 15 -14 16 -14 16 0 0 19 25 21 36 4 4 -6 3 -8 -3 -5 -6 4 -13
-3 -17 -16 -3 -12 -2 -23 3 -25 8 -3 6 -47 -2 -97 -1 -5 3 -9 10 -8 6 1 17 -4
23 -12 10 -12 10 -19 -1 -32 -12 -15 -12 -16 4 -10 9 4 25 10 35 14 15 6 15 5
3 -11 -11 -13 -12 -19 -3 -25 7 -4 14 -22 15 -39 2 -27 5 -30 25 -25 16 4 22
1 22 -10 0 -9 -4 -18 -10 -22 -5 -3 -7 -12 -3 -20 4 -11 -3 -15 -27 -15 -21 0
-29 4 -24 12 5 8 2 9 -9 5 -10 -3 -17 -2 -17 3 0 6 -11 10 -25 10 -20 0 -25
-5 -25 -25 0 -18 5 -25 18 -25 10 0 21 -3 25 -6 9 -10 -4 -34 -19 -34 -8 0
-14 -10 -14 -24 0 -21 -4 -23 -44 -23 l-44 0 9 30 c5 17 14 35 20 41 8 7 10 8
6 1 -9 -16 30 -38 39 -23 4 7 0 16 -11 22 -10 6 -27 19 -37 29 -17 16 -18 16
-18 -2 0 -28 -11 -52 -21 -45 -5 3 -9 0 -9 -5 0 -15 -33 -14 -49 2 -10 8 -12
8 -7 0 7 -14 -30 -43 -56 -43 -9 0 -21 7 -26 16 -8 15 -10 15 -15 0 -4 -9 -2
-16 3 -16 6 0 10 -4 10 -10 0 -16 -21 -12 -70 12 -25 13 -47 24 -49 26 -3 1 0
7 6 13 17 17 63 2 63 -21 0 -10 5 -22 11 -26 9 -5 10 1 5 22 -4 16 -11 31 -14
34 -4 3 -13 16 -20 29 -11 19 -11 25 -1 32 11 6 10 11 -2 26 -9 10 -19 26 -22
36 -4 10 -11 15 -17 12 -10 -6 -65 31 -65 43 0 4 14 10 30 13 l30 7 -32 1
c-56 2 -82 21 -47 35 8 3 12 2 9 -4 -17 -27 58 7 80 36 20 26 18 32 -7 36 -30
4 -34 26 -6 37 23 10 23 10 -4 10 -16 1 -29 6 -29 11 -1 6 -2 15 -3 21 -1 14
-46 32 -46 19 0 -5 9 -14 21 -20 11 -6 19 -19 17 -29 -2 -10 2 -24 8 -32 6 -8
7 -27 3 -44 -3 -16 -7 -25 -8 -18 -1 7 -8 10 -18 6 -15 -5 -16 -3 -5 8 17 19
15 32 -4 25 -14 -5 -15 -4 -4 9 11 13 10 14 -5 8 -15 -5 -17 -3 -12 13 7 18 6
18 -6 2 -12 -16 -16 -16 -33 -3 -13 10 -14 13 -3 10 8 -3 24 3 34 15 21 23 13
39 -10 20 -18 -15 -21 1 -5 31 12 21 1 26 -19 7 -10 -11 -11 -9 -5 6 5 14 4
17 -5 11 -10 -6 -11 -2 -6 15 5 15 4 20 -4 16 -7 -5 -9 -1 -5 8 4 11 0 16 -10
16 -9 0 -16 5 -16 10 0 20 20 9 64 -35 50 -48 96 -63 75 -24 -9 17 -13 19 -20
8 -6 -10 -9 -6 -9 14 0 30 11 35 30 12 7 -8 17 -15 23 -15 5 0 -1 9 -14 21
-13 12 -23 24 -22 28 1 4 -4 8 -12 8 -8 0 -12 -4 -9 -9 10 -16 -7 -30 -22 -17
-11 9 -14 9 -14 0 0 -7 -5 -9 -11 -5 -8 4 -4 13 12 25 20 15 22 20 11 31 -11
11 -12 10 -6 -6 6 -15 4 -17 -7 -10 -8 4 -23 7 -34 6 l-20 -2 20 12 c22 14 31
38 15 38 -5 0 -10 -7 -10 -15 0 -19 -14 -19 -30 -1 -8 10 -19 12 -33 7 -29
-10 -59 -3 -51 12 4 7 4 9 -1 5 -4 -4 -14 -3 -21 3 -9 8 -10 1 -3 -31 7 -31 6
-44 -4 -55 -18 -18 -42 -3 -33 21 4 10 1 21 -6 26 -9 5 -10 11 -3 16 21 14 10
35 -20 38 -51 4 -118 21 -155 37 -31 13 -81 15 -132 5 -7 -2 -13 2 -13 7 1 40
17 200 21 206 6 10 1692 11 1697 1z m-158 -150 c-3 -3 -11 0 -18 7 -9 10 -8
11 6 5 10 -3 15 -9 12 -12z m-549 -95 c9 3 14 -1 14 -12 0 -12 -5 -15 -16 -11
-9 3 -18 6 -20 6 -2 0 -4 8 -3 18 0 9 3 12 5 5 3 -7 12 -9 20 -6z m-700 -67
c1 -19 -4 -30 -12 -30 -8 0 -14 5 -14 10 0 6 -11 8 -24 6 -31 -6 -39 2 -21 21
11 11 19 11 35 3 11 -6 20 -7 19 -3 -2 14 1 23 9 23 4 0 7 -14 8 -30z m694
-20 c0 -10 5 -22 10 -25 6 -3 10 2 10 12 0 10 5 25 11 33 11 16 12 20 -11 -67
-13 -53 -39 -57 -71 -11 l-23 32 24 -17 c37 -26 43 -21 36 29 -3 28 -2 43 4
39 6 -3 10 -15 10 -25z m-801 -2 c5 -13 7 -25 5 -27 -7 -7 -34 21 -34 35 0 22
20 16 29 -8z m-48 5 c-10 -4 -10 -7 -1 -13 9 -5 9 -9 1 -14 -6 -4 -11 -2 -11
4 0 6 -4 8 -10 5 -5 -3 -10 -2 -10 4 0 10 17 19 35 19 6 0 4 -2 -4 -5z m1160
-20 c-8 -15 -10 -15 -11 -2 0 17 10 32 18 25 2 -3 -1 -13 -7 -23z m106 6 c-15
-9 -17 -18 -12 -51 6 -34 5 -39 -6 -28 -16 15 -19 72 -4 82 6 4 17 8 25 8 11
-1 11 -3 -3 -11z m-452 -9 c3 -5 1 -10 -4 -10 -6 0 -11 5 -11 10 0 6 2 10 4
10 3 0 8 -4 11 -10z m-72 -7 c-7 -2 -19 -2 -25 0 -7 3 -2 5 12 5 14 0 19 -2
13 -5z m367 3 c0 -2 -8 -10 -17 -17 -16 -13 -17 -12 -4 4 13 16 21 21 21 13z
m-860 -26 c6 -10 9 -23 9 -27 -1 -4 3 -21 9 -36 16 -38 15 -57 -3 -57 -11 0
-14 7 -9 25 3 14 1 32 -6 40 -6 8 -9 19 -5 25 3 5 1 10 -5 10 -6 0 -8 5 -4 11
3 6 0 15 -7 20 -10 6 -10 9 -2 9 7 0 17 -9 23 -20z m38 -5 c-3 -3 -9 2 -12 12
-6 14 -5 15 5 6 7 -7 10 -15 7 -18z m-199 -40 c0 -16 -1 -17 -8 -5 -5 8 -12
26 -16 40 -7 24 -7 24 9 5 8 -11 15 -29 15 -40z m677 36 c0 -11 -10 -16 -34
-16 -27 -1 -30 1 -18 11 9 6 13 13 10 16 -2 3 6 6 18 6 15 0 24 -6 24 -17z
m282 -6 c-3 -3 -9 2 -12 12 -6 14 -5 15 5 6 7 -7 10 -15 7 -18z m122 15 c-8
-5 -19 -10 -25 -10 -5 0 -3 5 5 10 8 5 20 10 25 10 6 0 3 -5 -5 -10z m-991
-21 c5 8 16 11 25 8 18 -7 22 -37 5 -37 -5 0 -7 5 -4 10 3 6 2 10 -4 10 -20 0
-21 -19 -1 -30 32 -17 24 -33 -12 -25 -38 8 -48 16 -30 22 17 6 15 23 -3 23
-9 0 -15 9 -15 23 1 22 1 22 16 2 12 -16 16 -17 23 -6z m-126 -3 c4 -11 1 -13
-11 -9 -14 5 -15 3 -4 -8 18 -19 15 -28 -8 -22 -24 6 -24 7 -8 33 15 24 24 25
31 6z m1037 10 c0 -2 -6 -16 -14 -30 -11 -22 -15 -24 -20 -10 -6 17 9 44 25
44 5 0 9 -2 9 -4z m130 -6 c0 -5 -7 -10 -15 -10 -8 0 -15 5 -15 10 0 6 7 10
15 10 8 0 15 -4 15 -10z m-940 -10 c0 -5 -5 -10 -11 -10 -5 0 -7 5 -4 10 3 6
8 10 11 10 2 0 4 -4 4 -10z m620 -5 c10 -12 10 -15 -2 -15 -8 0 -15 7 -15 15
0 8 1 15 2 15 2 0 8 -7 15 -15z m95 5 c3 -5 -3 -18 -15 -30 -11 -11 -20 -28
-20 -37 -1 -17 -2 -16 -15 1 -15 20 -3 62 15 51 6 -3 7 1 4 9 -7 18 21 23 31
6z m188 -27 c20 -10 27 -18 18 -21 -7 -2 -18 2 -23 9 -8 11 -9 10 -4 -3 3 -12
0 -18 -9 -18 -8 0 -15 5 -15 11 0 8 -5 7 -15 -1 -18 -15 -12 -79 8 -92 6 -4 8
-8 3 -8 -5 0 -3 -6 3 -14 9 -10 8 -15 -3 -19 -19 -8 -26 1 -26 34 0 15 -5 40
-12 56 -22 56 -19 70 15 64 4 0 7 4 7 9 0 14 16 12 53 -7z m-158 -19 c9 -9 13
-19 10 -22 -3 -3 -10 -1 -16 5 -6 6 -18 9 -25 6 -14 -5 -19 8 -7 20 10 11 20
8 38 -9z m-991 0 c10 -4 16 -18 16 -35 0 -29 -13 -38 -25 -19 -3 6 0 10 7 10
9 0 9 3 -2 10 -11 7 -11 10 -2 10 7 0 10 5 7 10 -4 6 -11 8 -16 5 -5 -4 -9 -1
-9 4 0 13 3 13 24 5z m66 2 c0 -3 -4 -8 -10 -11 -5 -3 -10 -1 -10 4 0 6 5 11
10 11 6 0 10 -2 10 -4z m843 -44 c13 -12 20 -13 29 -4 18 18 46 14 58 -7 15
-29 13 -31 -20 -19 -17 5 -38 9 -48 7 -9 -2 -32 11 -52 30 -29 28 -30 32 -10
21 14 -7 33 -20 43 -28z m257 6 c0 -19 -2 -20 -10 -8 -13 19 -13 30 0 30 6 0
10 -10 10 -22z m-1105 -33 c1 -19 -1 -35 -5 -35 -10 0 -19 50 -13 67 8 21 15
8 18 -32z m119 7 c-2 -57 -4 -62 -19 -62 -14 0 -16 5 -14 28 0 4 8 6 17 5 9
-1 4 4 -13 11 l-30 14 25 4 25 4 -27 12 c-37 15 -35 24 5 19 29 -3 32 -6 31
-35z m569 0 c-2 -12 1 -22 6 -22 6 0 12 -8 16 -19 6 -21 -13 -71 -28 -71 -5 0
-7 -9 -4 -19 3 -13 0 -18 -7 -15 -7 3 -12 15 -12 27 1 14 -6 23 -19 25 -24 5
-37 22 -30 40 3 8 -4 28 -16 45 l-21 32 21 -24 c12 -13 21 -18 21 -12 0 6 6
11 14 11 8 0 17 7 20 16 9 24 41 12 39 -14z m327 -24 c0 -5 -9 -4 -20 2 -21
11 -25 22 -13 34 8 7 33 -21 33 -36z m-832 -39 c1 -51 -1 -59 -13 -49 -10 8
-14 29 -13 61 4 72 25 62 26 -12z m1255 45 c9 -1 17 3 17 9 0 6 3 8 6 5 3 -3
-2 -22 -10 -43 -13 -30 -19 -35 -36 -30 -18 6 -20 3 -18 -26 2 -17 -2 -33 -7
-35 -6 -3 -11 22 -12 63 -2 66 -2 67 12 38 l14 -30 1 35 c0 19 4 31 8 25 4 -5
15 -11 25 -11z m-848 -44 c6 0 3 -5 -6 -10 -18 -11 -61 -2 -53 11 3 5 15 7 27
5 12 -3 27 -5 32 -6z m716 -13 c-10 -9 -11 -8 -5 6 3 10 9 15 12 12 3 -3 0
-11 -7 -18z m43 -2 c-4 -8 -8 -15 -10 -15 -2 0 -4 7 -4 15 0 8 4 15 10 15 5 0
7 -7 4 -15z m-1513 -24 c11 -27 -6 -19 -22 11 -8 16 -8 19 2 16 6 -2 16 -14
20 -27z m1141 -48 c2 -24 0 -43 -4 -43 -5 0 -7 26 -7 58 1 61 6 55 11 -15z
m298 43 c0 -8 -5 -27 -12 -43 -6 -15 -12 -31 -12 -35 -1 -3 -4 -10 -8 -14 -13
-12 -9 21 7 59 8 19 11 37 8 41 -4 3 -1 6 5 6 7 0 12 -6 12 -14z m35 -44 c0
-49 -3 -58 -19 -60 -14 -1 -17 4 -12 21 3 12 9 39 12 60 10 55 19 45 19 -21z
m49 -10 c3 -5 -1 -15 -9 -22 -13 -11 -15 -6 -14 36 1 41 2 45 9 22 4 -14 11
-31 14 -36z m-184 42 c0 -8 -19 -13 -24 -6 -3 5 1 9 9 9 8 0 15 -2 15 -3z m60
-14 c0 -11 -4 -20 -9 -20 -5 0 -7 9 -4 20 3 11 7 20 9 20 2 0 4 -9 4 -20z
m-100 -95 c0 -8 -4 -15 -10 -15 -5 0 -7 7 -4 15 4 8 8 15 10 15 2 0 4 -7 4
-15z m60 11 c0 -3 -4 -8 -10 -11 -5 -3 -10 -1 -10 4 0 6 5 11 10 11 6 0 10 -2
10 -4z m-120 -50 c-16 -17 -31 4 -18 27 11 21 11 21 18 2 4 -11 4 -24 0 -29z
m167 12 c-22 -14 -28 -8 -16 13 9 17 13 19 20 8 5 -8 3 -16 -4 -21z m-276 -21
c-17 -17 -24 -1 -10 25 12 21 14 21 17 4 2 -10 -1 -23 -7 -29z m59 18 c0 -14
-4 -25 -10 -25 -11 0 -14 33 -3 43 11 11 13 8 13 -18z m-170 -55 c0 -5 3 -15
6 -24 4 -10 -5 -20 -31 -30 -44 -19 -55 -20 -55 -5 0 5 4 8 9 5 5 -3 12 1 15
10 3 9 12 14 20 11 11 -5 13 0 6 22 -7 25 -6 28 11 24 10 -3 19 -9 19 -13z
m114 -1 c-6 -11 -24 -2 -24 11 0 5 7 7 15 4 8 -4 12 -10 9 -15z m46 6 c10 -12
10 -15 -4 -15 -9 0 -16 7 -16 15 0 8 2 15 4 15 2 0 9 -7 16 -15z m60 5 c0 -5
-4 -10 -10 -10 -5 0 -10 5 -10 10 0 6 5 10 10 10 6 0 10 -4 10 -10z m-185 -70
c-11 -5 -29 -9 -40 -9 l-20 0 20 9 c11 5 29 9 40 9 l20 0 -20 -9z"/>
<path d="M1778 3218 c7 -7 12 -23 12 -37 l0 -25 -33 32 c-34 33 -82 47 -57 17
7 -8 11 -34 8 -60 -2 -30 1 -45 8 -45 8 0 10 14 7 43 l-6 42 40 -37 c21 -21
41 -38 43 -38 3 0 3 27 2 60 -3 47 -7 60 -20 60 -12 0 -13 -3 -4 -12z"/>
<path d="M1854 3178 c-10 -29 -20 -56 -22 -60 -2 -4 3 -8 11 -8 8 0 14 8 13
18 -1 11 6 17 19 17 13 0 20 -6 19 -17 -1 -13 5 -18 21 -18 l24 0 -26 60 c-15
33 -29 60 -33 60 -3 0 -15 -23 -26 -52z m22 -15 c-10 -10 -19 5 -10 18 6 11 8
11 12 0 2 -7 1 -15 -2 -18z"/>
<path d="M1965 3170 c0 -50 3 -60 18 -60 12 0 17 8 17 31 0 24 4 30 18 27 12
-3 16 -12 15 -31 -1 -20 3 -27 17 -27 15 0 19 10 22 60 3 55 1 60 -18 60 -17
0 -20 -5 -16 -25 3 -21 0 -25 -18 -25 -18 0 -21 4 -18 25 4 20 1 25 -16 25
-19 0 -21 -6 -21 -60z"/>
<path d="M1638 3213 c-14 -3 -15 -9 -8 -29 6 -14 10 -41 10 -60 0 -28 4 -35
17 -32 14 3 17 11 14 43 -3 22 -5 50 -5 63 -1 12 -3 21 -6 21 -3 -1 -13 -3
-22 -6z"/>
<path d="M2116 3205 c-38 -38 -22 -98 30 -111 31 -8 74 28 74 63 0 50 -69 82
-104 48z m70 -19 c7 -30 -16 -81 -36 -81 -17 0 -25 43 -16 81 9 32 44 32 52 0z"/>
<path d="M1568 3203 c-14 -3 -15 -9 -8 -29 8 -19 6 -26 -6 -31 -18 -7 -36 15
-29 35 4 12 -26 18 -37 7 -3 -3 1 -24 9 -47 8 -23 12 -49 10 -58 -3 -13 1 -16
19 -12 20 3 21 7 13 29 -12 31 -12 30 11 36 19 5 24 -3 23 -40 -1 -14 7 -16
31 -7 12 5 13 10 6 25 -6 10 -11 37 -13 59 -1 22 -4 39 -7 39 -3 -1 -13 -3
-22 -6z"/>
<path d="M2240 3184 c0 -14 3 -15 12 -6 7 7 16 12 20 12 10 0 0 -66 -13 -92
-6 -11 -4 -18 7 -22 26 -10 29 -7 30 22 1 43 13 82 24 82 6 0 10 -8 10 -17 0
-13 3 -14 12 -5 18 18 0 29 -54 37 -42 6 -48 5 -48 -11z"/>
<path d="M1396 3154 c-9 -8 -16 -19 -16 -24 0 -15 31 -40 50 -40 24 0 36 -18
21 -33 -9 -9 -16 -8 -31 1 -13 8 -20 8 -20 2 0 -17 30 -23 56 -12 41 19 25 72
-22 72 -27 0 -41 17 -26 32 7 7 17 6 31 -1 17 -10 20 -9 15 4 -8 20 -38 19
-58 -1z"/>
<path d="M2361 3110 c-26 -31 -37 -50 -28 -50 8 0 18 7 21 15 4 12 10 14 25 5
11 -6 18 -16 15 -24 -4 -11 24 -33 31 -24 6 7 -8 128 -15 128 -4 0 -26 -22
-49 -50z m25 -17 c-10 -10 -19 5 -10 18 6 11 8 11 12 0 2 -7 1 -15 -2 -18z"/>
<path d="M1969 2362 c4 -14 14 -28 22 -30 12 -5 12 -3 1 11 -8 9 -11 20 -8 26
3 5 0 11 -8 14 -11 4 -12 -1 -7 -21z"/>
<path d="M2610 2859 c0 -6 6 -9 14 -6 9 4 17 -1 19 -11 3 -12 5 -11 6 6 1 16
-5 22 -19 22 -11 0 -20 -5 -20 -11z"/>
<path d="M2309 2672 c6 -12 16 -24 22 -28 8 -4 8 -1 0 14 -6 12 -16 24 -22 28
-8 4 -8 1 0 -14z"/>
<path d="M2478 2583 c7 -3 16 -2 19 1 4 3 -2 6 -13 5 -11 0 -14 -3 -6 -6z"/>
<path d="M2284 2564 c3 -9 6 -20 6 -25 0 -6 5 -7 10 -4 16 10 12 45 -6 45 -11
0 -14 -5 -10 -16z"/>
<path d="M2340 2570 c-9 -6 -10 -10 -3 -10 6 0 15 5 18 10 8 12 4 12 -15 0z"/>
<path d="M2353 2509 c-18 -12 -33 -25 -33 -30 0 -5 11 -2 25 7 22 14 33 15 86
5 69 -14 149 -58 149 -83 0 -9 -7 -23 -15 -32 -8 -8 -15 -20 -15 -27 0 -20 27
9 34 38 6 23 8 24 24 10 22 -20 74 -26 79 -9 3 6 -1 12 -8 12 -7 0 -21 8 -32
18 -15 12 -18 13 -13 2 4 -8 -5 0 -21 18 -15 18 -34 32 -41 32 -7 0 -24 7 -37
16 -14 9 -25 13 -25 10 0 -4 -10 2 -22 14 -29 27 -93 26 -135 -1z"/>
<path d="M2290 2490 c0 -5 5 -10 10 -10 6 0 10 5 10 10 0 6 -4 10 -10 10 -5 0
-10 -4 -10 -10z"/>
<path d="M2445 2330 c-3 -5 -1 -10 4 -10 6 0 11 5 11 10 0 6 -2 10 -4 10 -3 0
-8 -4 -11 -10z"/>
<path d="M2528 2305 c-6 -28 6 -34 16 -9 8 22 7 34 -3 34 -5 0 -11 -11 -13
-25z"/>
<path d="M2325 2303 c-41 -21 -42 -23 -25 -33 12 -8 9 -10 -10 -10 -22 -1 -23
-2 -7 -11 32 -19 97 16 97 53 0 22 -15 22 -55 1z"/>
<path d="M1920 2070 c-18 -12 -2 -12 25 0 13 6 15 9 5 9 -8 0 -22 -4 -30 -9z"/>
<path d="M2026 2014 c-9 -23 -8 -27 8 -21 7 3 19 0 26 -6 10 -10 10 -7 1 10
-15 30 -28 36 -35 17z"/>
<path d="M1566 1896 c4 -18 1 -25 -13 -29 -14 -4 -13 -5 5 -6 13 0 33 -6 44
-12 17 -9 18 -13 7 -20 -11 -7 -11 -9 3 -9 11 0 15 -5 12 -15 -4 -8 -2 -15 4
-15 6 0 9 8 7 18 -2 9 -4 25 -4 35 -1 10 -9 17 -20 17 -12 0 -23 11 -30 30
-12 36 -24 40 -15 6z"/>
<path d="M1460 1860 c0 -5 9 -9 20 -7 30 5 32 12 5 15 -14 1 -25 -3 -25 -8z"/>
<path d="M1520 1840 c0 -5 5 -10 10 -10 6 0 10 5 10 10 0 6 -4 10 -10 10 -5 0
-10 -4 -10 -10z"/>
<path d="M1650 1808 c0 -17 2 -18 15 -8 13 11 14 10 9 -5 -5 -13 -4 -16 4 -11
19 11 14 33 -8 39 -15 4 -20 0 -20 -15z"/>
<path d="M1385 1791 c-3 -5 -1 -12 5 -16 5 -3 10 1 10 9 0 18 -6 21 -15 7z"/>
<path d="M1715 1750 c-3 -6 1 -7 9 -4 18 7 21 14 7 14 -6 0 -13 -4 -16 -10z"/>
<path d="M1678 1493 c7 -3 16 -2 19 1 4 3 -2 6 -13 5 -11 0 -14 -3 -6 -6z"/>
<path d="M2053 1435 c0 -11 4 -12 14 -4 7 6 13 13 13 15 0 2 -6 4 -13 4 -8 0
-14 -7 -14 -15z"/>
<path d="M1816 1410 c12 -11 18 -12 21 -3 3 9 12 9 29 2 34 -12 39 -11 24 5
-7 9 -27 14 -51 13 -35 -1 -38 -3 -23 -17z"/>
<path d="M1753 1413 c9 -2 23 -2 30 0 6 3 -1 5 -18 5 -16 0 -22 -2 -12 -5z"/>
<path d="M1920 1396 c0 -8 4 -17 9 -20 5 -4 7 3 4 14 -6 23 -13 26 -13 6z"/>
<path d="M1988 1382 c-4 -16 -2 -25 8 -29 8 -3 11 -10 7 -17 -3 -6 3 -2 15 8
12 11 22 24 22 30 0 6 -5 5 -12 -2 -18 -18 -26 -15 -30 11 l-3 22 -7 -23z"/>
<path d="M1770 1376 c0 -9 5 -16 10 -16 6 0 10 4 10 9 0 6 -4 13 -10 16 -5 3
-10 -1 -10 -9z"/>
<path d="M1861 1384 c23 -50 35 -64 52 -64 16 0 17 -3 7 -14 -6 -8 -21 -17
-33 -19 -12 -2 -3 -5 21 -6 51 -1 54 12 13 54 -37 38 -65 61 -60 49z"/>
<path d="M1954 1367 c3 -10 6 -24 6 -30 0 -8 4 -7 12 1 10 10 8 16 -6 30 -18
16 -19 16 -12 -1z"/>
<path d="M1821 1361 c-1 -8 -7 -22 -15 -30 -13 -14 -13 -19 0 -35 14 -20 14
-20 14 0 0 11 4 24 9 30 5 5 5 18 1 29 -5 12 -9 14 -9 6z"/>
<path d="M1780 1279 c0 -5 5 -7 10 -4 6 3 10 8 10 11 0 2 -4 4 -10 4 -5 0 -10
-5 -10 -11z"/>
<path d="M1830 1274 c0 -8 7 -22 15 -30 8 -9 15 -11 15 -5 0 5 -4 12 -10 16
-5 3 -7 12 -3 20 3 8 0 15 -6 15 -6 0 -11 -7 -11 -16z"/>
<path d="M2720 1559 c0 -5 5 -7 10 -4 6 3 10 8 10 11 0 2 -4 4 -10 4 -5 0 -10
-5 -10 -11z"/>
<path d="M2700 3605 c-10 -13 -9 -15 9 -15 11 0 21 4 21 9 0 18 -18 21 -30 6z"/>
<path d="M1086 3602 c-12 -11 -5 -22 14 -22 13 0 24 -10 31 -27 8 -22 12 -24
19 -13 5 8 5 17 1 20 -4 3 -10 12 -13 21 -6 17 -42 31 -52 21z"/>
<path d="M2605 3600 c-3 -5 6 -12 20 -16 14 -3 29 -14 34 -23 15 -25 23 -6 10
23 -12 26 -51 36 -64 16z"/>
<path d="M1170 3585 c-11 -13 -9 -15 15 -15 16 0 25 5 23 12 -7 19 -24 20 -38
3z"/>
<path d="M2865 3460 c3 -5 8 -10 11 -10 2 0 4 5 4 10 0 6 -5 10 -11 10 -5 0
-7 -4 -4 -10z"/>
<path d="M866 3435 c4 -8 8 -15 10 -15 2 0 4 7 4 15 0 8 -4 15 -10 15 -5 0 -7
-7 -4 -15z"/>
<path d="M2845 3401 c-3 -6 5 -15 19 -21 14 -5 26 -16 26 -25 0 -21 13 -19 27
4 7 11 23 21 35 23 22 4 22 5 4 13 -15 6 -23 3 -34 -14 l-15 -22 -11 23 c-13
25 -40 35 -51 19z"/>
<path d="M953 3393 c-18 -6 -16 -23 1 -23 17 0 30 16 19 23 -5 2 -14 2 -20 0z"/>
<path d="M850 3380 c0 -5 11 -12 24 -16 13 -3 28 -15 34 -27 9 -19 11 -19 11
-4 1 32 -18 57 -44 57 -14 0 -25 -4 -25 -10z"/>
<path d="M7848 3303 c-44 -57 -31 -68 34 -27 49 31 58 42 51 61 -11 28 -48 13
-85 -34z"/>
<path d="M3659 3214 c-77 -23 -139 -109 -139 -193 0 -47 25 -106 61 -142 59
-59 140 -71 262 -38 l37 10 0 79 0 80 -45 0 -44 0 -3 -72 -3 -73 -41 -3 c-75
-5 -124 58 -124 160 1 140 114 217 203 138 l34 -29 10 34 11 35 -51 15 c-62
18 -107 18 -168 -1z"/>
<path d="M4076 3215 c-80 -28 -120 -79 -132 -166 -21 -150 105 -255 264 -219
157 35 216 232 102 341 -58 55 -153 73 -234 44z m133 -40 c76 -39 83 -228 10
-289 -56 -48 -135 -26 -163 44 -32 81 -16 192 35 234 35 29 76 33 118 11z"/>
<path d="M6116 3215 c-80 -28 -120 -79 -132 -166 -21 -150 105 -255 264 -219
157 35 216 232 102 341 -58 55 -153 73 -234 44z m133 -40 c76 -39 83 -228 10
-289 -56 -48 -135 -26 -163 44 -32 81 -16 192 35 234 35 29 76 33 118 11z"/>
<path d="M6720 3208 c-23 -57 -140 -366 -140 -372 0 -3 11 -6 24 -6 22 0 27 8
42 60 l17 61 61 -3 61 -3 19 -57 18 -58 53 0 53 0 -47 123 c-27 67 -60 157
-76 200 -24 67 -31 77 -52 77 -15 0 -27 -8 -33 -22z m45 -195 c6 -22 3 -23
-40 -23 -41 0 -46 2 -40 18 4 9 14 37 23 62 l16 45 17 -40 c9 -22 20 -50 24
-62z"/>
<path d="M7766 3215 c-80 -28 -120 -79 -132 -166 -21 -150 105 -255 264 -219
157 35 216 232 102 341 -58 55 -153 73 -234 44z m133 -40 c76 -39 83 -228 10
-289 -56 -48 -135 -26 -163 44 -32 81 -16 192 35 234 35 29 76 33 118 11z"/>
<path d="M8656 3215 c-80 -28 -120 -79 -132 -166 -21 -150 105 -255 264 -219
157 35 216 232 102 341 -58 55 -153 73 -234 44z m133 -40 c76 -39 83 -228 10
-289 -56 -48 -135 -26 -163 44 -32 81 -16 192 35 234 35 29 76 33 118 11z"/>
<path d="M9626 3215 c-80 -28 -120 -79 -132 -166 -21 -150 105 -255 264 -219
157 35 216 232 102 341 -58 55 -153 73 -234 44z m133 -40 c76 -39 83 -228 10
-289 -56 -48 -135 -26 -163 44 -32 81 -16 192 35 234 35 29 76 33 118 11z"/>
<path d="M4440 3026 l0 -196 83 0 c101 0 144 18 170 72 25 52 10 102 -39 125
l-34 16 30 19 c42 25 56 59 41 95 -19 45 -47 57 -153 61 l-98 4 0 -196z m154
138 c34 -33 4 -104 -44 -104 -18 0 -20 7 -20 60 0 57 1 60 24 60 14 0 32 -7
40 -16z m-2 -161 c40 -36 12 -133 -38 -133 -23 0 -24 2 -24 75 0 70 1 75 22
75 12 0 30 -7 40 -17z"/>
<path d="M4775 3025 l0 -195 48 0 47 0 0 195 0 195 -47 0 -48 0 0 -195z"/>
<path d="M4940 3046 c0 -94 -3 -180 -6 -192 -5 -20 -2 -20 105 -20 109 0 111
1 111 23 0 21 -4 23 -60 23 l-60 0 0 70 0 70 60 0 c57 0 60 1 60 25 0 24 -1
25 -60 18 l-60 -6 0 57 0 56 60 0 c56 0 60 2 60 23 0 21 -3 22 -105 23 l-105
1 0 -171z"/>
<path d="M5215 3025 l0 -195 46 0 46 0 -5 90 c-2 50 -2 90 1 90 3 0 31 -40 63
-90 l57 -90 55 0 c52 0 54 1 39 18 -19 21 -107 163 -107 173 0 4 11 10 25 13
28 7 55 52 55 91 0 70 -48 95 -182 95 l-93 0 0 -195z m169 139 c23 -22 20 -80
-4 -104 -11 -11 -33 -20 -50 -20 l-30 0 0 70 0 70 34 0 c19 0 42 -7 50 -16z"/>
<path d="M5580 3041 c0 -99 -3 -186 -6 -195 -5 -12 1 -16 23 -16 l29 0 -3 133
-4 132 66 -70 c36 -38 89 -98 117 -132 41 -50 57 -63 80 -63 l28 0 0 173 c0
94 3 182 6 195 6 19 3 22 -23 22 l-29 0 4 -132 3 -133 -45 50 c-25 28 -76 87
-113 132 -59 71 -72 82 -100 82 l-33 1 0 -179z"/>
<path d="M6950 3063 c5 -172 13 -198 66 -222 78 -35 174 -21 222 34 35 39 40
66 44 233 l3 112 -30 0 -30 0 3 -107 c4 -139 -3 -189 -33 -219 -32 -32 -85
-32 -122 0 l-28 24 -3 151 -3 151 -47 0 -47 0 5 -157z"/>
<path d="M7330 3193 c0 -21 5 -23 50 -23 l51 0 -3 -170 -3 -170 48 0 47 0 0
170 0 170 50 0 c45 0 50 2 50 23 0 22 -1 22 -145 22 -144 0 -145 0 -145 -22z"/>
<path d="M8120 3041 c0 -99 -3 -186 -6 -195 -5 -12 1 -16 23 -16 l29 0 -3 133
-4 132 66 -70 c36 -38 89 -98 117 -132 41 -50 57 -63 80 -63 l28 0 0 173 c0
94 3 182 6 195 6 19 3 22 -23 22 l-29 0 4 -132 3 -133 -45 50 c-25 28 -76 87
-113 132 -59 71 -72 82 -100 82 l-33 1 0 -179z"/>
<path d="M9017 3033 c-15 -104 -27 -191 -27 -195 0 -5 11 -8 24 -8 23 0 25 4
31 78 4 42 10 100 14 127 l8 50 35 -76 c20 -42 44 -99 55 -128 28 -81 46 -69
104 68 27 63 52 118 57 123 7 7 32 -171 32 -228 0 -5 23 -9 50 -10 41 0 49 2
45 15 -4 14 -45 342 -45 364 0 4 -15 7 -33 7 -32 0 -33 -1 -86 -125 -29 -69
-57 -125 -61 -125 -9 0 -72 146 -91 210 -11 37 -15 40 -49 40 l-36 0 -27 -187z"/>
<path d="M1143 2720 c0 -25 2 -35 4 -22 2 12 2 32 0 45 -2 12 -4 2 -4 -23z"/>
<path d="M1133 2635 c0 -22 2 -30 4 -17 2 12 2 30 0 40 -3 9 -5 -1 -4 -23z"/>
<path d="M6325 2657 c-100 -26 -180 -87 -221 -167 -26 -52 -30 -165 -9 -231
46 -139 228 -224 408 -190 83 15 108 30 123 74 7 20 10 37 6 37 -4 0 -34 -14
-66 -30 -134 -68 -281 -9 -315 126 -34 133 9 268 99 314 76 39 210 16 240 -40
6 -11 15 -20 19 -20 7 0 31 73 31 93 0 3 -21 12 -47 21 -66 23 -205 29 -268
13z"/>
<path d="M7666 2541 c-27 -69 -82 -200 -122 -291 -41 -91 -74 -167 -74 -170 0
-3 20 -6 45 -6 l44 -1 17 56 c9 30 22 68 30 84 l15 28 97 -3 97 -3 28 -80 28
-80 87 0 87 0 -75 175 c-42 97 -96 229 -120 295 l-44 120 -46 1 -45 0 -49
-125z m87 -141 c14 -36 28 -73 32 -82 6 -16 0 -18 -70 -18 -42 0 -75 4 -73 8
2 4 18 45 37 91 19 45 37 79 42 74 4 -4 19 -37 32 -73z"/>
<path d="M916 2629 c-42 -50 -58 -89 -61 -148 -2 -31 -12 -83 -24 -116 -11
-32 -21 -67 -21 -77 0 -10 -5 -18 -11 -18 -6 0 -8 -8 -5 -17 3 -10 -1 -40 -9
-67 -8 -27 -15 -62 -15 -78 0 -34 -20 -37 -39 -5 -13 19 -12 21 1 10 22 -19
26 -8 17 45 -5 26 -13 88 -17 137 l-8 90 -13 -44 c-7 -24 -13 -72 -14 -106 -1
-35 -5 -61 -9 -58 -5 2 -8 12 -8 22 0 10 -9 26 -20 36 -20 18 -20 17 -20 -8 0
-14 5 -38 11 -54 6 -15 11 -73 10 -128 -2 -108 6 -141 44 -187 23 -27 25 -27
25 -9 0 12 5 21 10 21 13 0 12 -10 -3 -37 -12 -20 -13 -20 -47 25 -19 26 -48
59 -63 74 -16 15 -26 32 -23 37 3 5 -1 12 -10 15 -13 5 -15 1 -9 -21 21 -84
75 -155 128 -168 32 -8 33 -12 10 -37 -15 -17 -15 -18 0 -18 14 0 17 -10 17
-47 0 -27 -5 -55 -10 -63 -7 -11 -10 -3 -10 30 0 25 -8 61 -18 80 -16 32 -92
100 -112 100 -4 0 -2 -22 5 -50 l13 -50 -34 0 c-19 0 -34 -3 -34 -6 0 -3 14
-26 31 -50 40 -59 84 -86 126 -79 35 6 51 -8 31 -29 -11 -11 -17 -12 -38 -1
-32 16 -111 38 -117 32 -2 -3 5 -23 17 -46 20 -41 20 -41 0 -41 -11 0 -20 5
-20 10 0 12 -10 13 -29 1 -12 -8 -8 -15 19 -38 58 -49 84 -63 121 -63 20 0 42
7 49 15 17 21 29 19 39 -7 11 -31 -11 -53 -39 -38 -11 6 -46 10 -77 8 l-56 -3
47 -52 c26 -28 42 -54 37 -58 -6 -3 -7 -13 -4 -21 4 -11 0 -15 -13 -12 -11 2
-20 -4 -22 -14 -2 -10 2 -18 8 -18 6 0 30 -15 53 -34 54 -43 80 -56 112 -56
21 0 24 -2 13 -14 -8 -9 -15 -10 -19 -3 -4 5 -15 7 -25 2 -18 -7 -18 -8 -2
-14 19 -7 13 -22 -17 -39 -18 -10 -19 -11 -3 -17 10 -4 32 -2 50 4 31 10 32
10 13 -5 -20 -15 -20 -15 -1 -29 26 -20 79 -29 129 -22 38 5 40 4 23 -8 -10
-8 -23 -12 -27 -9 -5 3 -6 -1 -3 -9 3 -8 1 -18 -5 -22 -26 -16 -8 -24 22 -9
43 22 67 53 67 89 0 27 -6 32 -53 52 -31 14 -61 20 -74 17 -21 -6 -23 -4 -17
27 4 19 10 38 14 43 12 12 31 -3 28 -22 -2 -11 4 -17 17 -18 34 -2 111 -66
107 -89 -2 -15 -1 -17 6 -6 7 9 17 11 28 6 16 -6 16 -8 4 -12 -26 -9 -51 -36
-71 -76 l-20 -37 31 -6 c21 -5 30 -12 30 -25 0 -28 52 -25 88 6 l29 24 -1 -48
c-1 -27 -4 -47 -8 -44 -5 2 -8 -6 -8 -18 0 -21 1 -21 28 -4 15 10 37 26 48 37
19 17 22 17 28 3 3 -9 2 -13 -4 -10 -6 3 -10 1 -10 -5 0 -20 -52 -84 -119
-147 -36 -33 -63 -64 -60 -67 4 -4 32 3 63 15 39 14 60 28 66 44 8 22 24 36
110 98 25 18 58 53 73 77 137 216 128 199 107 210 -31 17 -105 -32 -122 -80
-4 -11 -87 12 -96 27 -4 6 -18 10 -32 9 -28 -1 -27 -9 -17 129 4 44 4 74 1 68
-8 -19 -24 -16 -25 5 -1 9 -7 -1 -15 -23 l-14 -40 6 40 c3 22 7 48 10 58 11
36 -13 15 -41 -38 l-30 -55 -11 43 c-6 23 -9 58 -6 77 4 33 3 34 -10 16 -15
-19 -16 -19 -27 2 -6 11 -11 28 -11 36 0 9 -5 16 -10 16 -7 0 -9 16 -5 43 l5
42 -25 -29 c-14 -15 -27 -27 -29 -25 -1 2 -11 26 -21 54 l-18 50 -11 -32 c-16
-46 -26 -51 -26 -12 -1 19 -7 59 -14 89 -12 53 -13 54 -26 31 -16 -31 -39
-126 -40 -166 -1 -28 -1 -29 -15 -11 -11 14 -12 23 -4 33 9 10 8 13 -4 13 -9
0 -16 12 -19 30 -3 16 -2 28 0 25 9 -9 52 59 64 100 7 22 18 50 26 63 13 19
12 22 -1 22 -20 0 -31 27 -29 73 2 24 -2 37 -9 35 -6 -2 -10 -7 -10 -11 1 -4
-6 -22 -15 -40 -10 -17 -25 -57 -35 -87 l-18 -55 3 59 c3 46 8 63 25 77 22 18
30 35 10 23 -6 -3 -4 7 5 24 10 20 22 29 37 28 13 -1 31 12 48 33 24 32 24 33
5 27 -20 -6 -21 -3 -20 39 0 25 4 45 9 45 4 0 7 9 7 21 0 18 -2 19 -19 7 -10
-7 -36 -36 -57 -63 -41 -54 -63 -137 -42 -162 8 -10 6 -13 -6 -13 -18 0 -19
15 -10 109 5 44 11 61 22 61 12 0 12 3 1 16 -11 14 -6 22 39 64 28 26 59 50
67 54 9 3 13 11 10 16 -4 6 -3 10 2 9 19 -3 27 2 15 9 -10 7 -9 16 3 48 l16
39 -28 -30 c-15 -17 -43 -48 -60 -70 -18 -22 -33 -35 -33 -30 0 6 29 41 65 80
36 38 65 76 65 83 0 18 -83 -41 -117 -83 -34 -43 -41 -44 -35 -5 2 17 7 30 11
30 3 0 7 26 8 58 2 31 13 95 26 142 19 67 28 88 48 97 13 7 32 23 43 35 10 13
20 22 22 21 2 -2 19 6 36 17 l33 20 -37 0 c-37 0 -37 0 -31 37 4 26 3 34 -5
29 -15 -9 -15 4 -2 40 15 38 7 40 -24 3z m-196 -490 c0 -6 -4 -7 -10 -4 -5 3
-10 11 -10 16 0 6 5 7 10 4 6 -3 10 -11 10 -16z m-5 -55 c13 -14 28 -23 34
-20 11 7 9 -13 -3 -32 -4 -7 -4 -18 2 -25 5 -7 5 -23 1 -37 -6 -21 -7 -22 -8
-5 -1 11 -15 47 -31 80 -17 33 -30 61 -30 62 0 9 14 0 35 -23z m125 -74 c-8
-5 -19 -10 -25 -10 -5 0 -3 5 5 10 8 5 20 10 25 10 6 0 3 -5 -5 -10z m-50 -16
c0 -8 -5 -12 -10 -9 -6 4 -8 11 -5 16 9 14 15 11 15 -7z m73 -179 c-3 -9 -8
-14 -10 -11 -3 3 -2 9 2 15 9 16 15 13 8 -4z m-253 -101 c0 -14 -3 -14 -15 -4
-8 7 -15 14 -15 16 0 2 7 4 15 4 8 0 15 -7 15 -16z m227 -56 c-3 -8 -6 -5 -6
6 -1 11 2 17 5 13 3 -3 4 -12 1 -19z m-87 -124 c0 -8 -4 -12 -10 -9 -5 3 -10
13 -10 21 0 8 5 12 10 9 6 -3 10 -13 10 -21z m40 -160 c0 -8 -4 -12 -10 -9 -5
3 -10 10 -10 16 0 5 5 9 10 9 6 0 10 -7 10 -16z m138 -141 c18 -32 15 -38 -8
-18 -11 10 -20 29 -20 42 0 15 -4 22 -11 17 -23 -14 -25 18 -5 59 l21 42 6
-60 c3 -33 11 -70 17 -82z m29 25 c-2 -24 -4 -5 -4 42 0 47 2 66 4 43 2 -24 2
-62 0 -85z m40 70 c-3 -8 -6 -5 -6 6 -1 11 2 17 5 13 3 -3 4 -12 1 -19z m-134
-83 c43 -62 40 -69 -10 -25 -18 17 -40 30 -48 30 -8 0 -15 2 -15 5 0 9 24 45
30 45 3 0 22 -25 43 -55z m180 -101 c9 -17 22 -36 30 -43 12 -10 17 -6 27 21
l13 33 10 -47 c9 -48 23 -58 45 -36 14 14 18 11 27 -25 5 -17 3 -27 -4 -27 -6
0 -11 7 -11 15 0 8 -6 12 -15 9 -15 -6 -101 40 -150 80 -16 14 -24 25 -17 26
6 0 12 5 12 11 0 6 -9 8 -20 4 -24 -8 -27 10 -3 24 12 6 17 20 16 43 -1 30 0
29 11 -12 7 -25 20 -59 29 -76z m177 17 c0 -6 -4 -13 -10 -16 -5 -3 -10 1 -10
9 0 9 5 16 10 16 6 0 10 -4 10 -9z m0 -201 c-37 -29 -55 -26 -24 4 8 9 23 16
32 16 13 0 11 -5 -8 -20z m134 -39 c-8 -34 -37 -75 -57 -79 -13 -3 -14 1 -5
26 7 17 8 37 3 48 -8 17 -9 17 -13 -6 -7 -46 -17 -40 -14 9 l4 48 44 -10 c40
-9 43 -12 38 -36z m-260 -18 c-5 -5 -12 -12 -16 -18 -4 -6 -8 -2 -8 8 0 9 7
17 17 17 9 0 12 -3 7 -7z"/>
<path d="M2880 2656 c0 -4 7 -22 14 -41 13 -31 13 -35 -1 -35 -12 0 -14 -7 -9
-30 5 -29 4 -30 -32 -31 -29 0 -33 -2 -17 -9 12 -4 26 -15 34 -23 7 -9 20 -13
28 -10 10 4 14 2 10 -4 -7 -11 11 -30 45 -48 23 -11 45 -67 53 -135 l6 -45
-15 31 c-18 41 -52 72 -101 95 -53 25 -74 25 -52 2 8 -10 16 -22 15 -26 0 -5
4 -12 8 -15 4 -4 4 -1 0 6 -4 6 -2 12 4 12 7 0 10 -6 7 -14 -7 -19 13 -74 30
-80 7 -3 10 1 7 8 -11 29 19 26 61 -6 41 -31 45 -37 58 -108 7 -41 12 -77 10
-79 -2 -3 -17 12 -34 32 -37 46 -119 104 -119 85 0 -7 29 -45 65 -83 36 -39
65 -74 65 -80 0 -5 -17 10 -38 35 -20 24 -47 56 -60 70 l-22 25 10 -28 c24
-68 54 -111 78 -113 28 -2 32 -5 32 -21 0 -9 10 -27 21 -40 18 -18 20 -25 9
-38 -10 -12 -10 -15 2 -15 11 0 17 -17 22 -61 9 -94 8 -109 -10 -109 -13 0
-14 3 -5 14 22 26 -1 108 -45 162 -56 70 -87 91 -69 47 4 -10 9 -40 11 -67 4
-43 3 -47 -11 -36 -28 23 -24 6 6 -30 19 -21 26 -26 19 -12 -6 12 -7 22 -1 22
5 0 12 -7 15 -16 3 -8 10 -12 16 -9 6 4 7 11 4 17 -4 7 -2 8 5 4 6 -4 9 -11 6
-16 -3 -5 2 -21 11 -35 9 -14 14 -28 10 -32 -3 -4 1 -15 11 -25 10 -12 17 -40
19 -81 l3 -62 -18 60 c-10 33 -26 76 -36 95 -18 34 -18 35 0 20 11 -8 16 -10
11 -3 -4 7 -16 18 -28 24 -20 11 -20 9 -14 -24 7 -39 -9 -77 -33 -77 -10 0
-11 -4 -3 -12 6 -7 19 -39 30 -70 23 -66 57 -116 65 -96 3 7 3 -3 0 -22 -3
-19 -11 -38 -16 -41 -5 -4 -7 -11 -4 -16 4 -6 0 -19 -8 -29 -13 -18 -14 -17
-15 13 0 58 -39 183 -56 183 -4 0 -4 -13 -2 -29 2 -17 1 -28 -3 -26 -7 5 -18
-52 -20 -105 -1 -35 -1 -35 -18 15 l-18 50 -18 -50 c-10 -28 -20 -52 -21 -54
-2 -2 -14 10 -28 25 l-25 29 6 -42 c3 -26 2 -43 -4 -43 -6 0 -13 -13 -16 -30
-7 -30 -30 -41 -41 -17 -4 6 -4 -3 -1 -21 3 -19 0 -53 -6 -77 -8 -33 -8 -53 1
-80 11 -34 13 -35 30 -20 11 10 27 37 37 61 10 24 21 44 24 44 3 0 4 15 2 32
-3 31 -3 31 7 9 6 -13 8 -32 5 -41 -3 -11 1 -20 10 -24 8 -3 15 -10 15 -17 0
-6 -7 -8 -16 -5 -12 4 -15 2 -11 -9 4 -9 -6 -23 -26 -38 -59 -44 -127 -79
-142 -73 -9 3 -15 0 -15 -9 0 -8 -5 -15 -11 -15 -7 0 -9 10 -4 27 9 36 9 37
34 22 26 -17 30 -12 38 48 5 43 1 58 -22 102 -16 28 -31 51 -35 51 -4 0 -4
-19 1 -42 12 -63 9 -79 -6 -33 -7 22 -13 32 -14 21 -1 -12 -6 -16 -17 -12 -13
5 -14 -3 -8 -67 13 -120 13 -122 -18 -122 -15 1 -26 -3 -25 -8 1 -5 -22 -15
-52 -23 l-54 -14 -37 40 c-27 29 -45 40 -67 40 -16 0 -32 -3 -36 -6 -3 -4 13
-32 36 -63 24 -31 56 -78 71 -106 38 -66 70 -100 134 -141 29 -19 61 -48 70
-64 11 -19 37 -37 74 -54 32 -13 58 -21 58 -18 -1 14 -183 197 -195 195 -19
-5 -73 60 -89 107 -8 24 -14 45 -13 46 1 1 23 6 50 12 l47 10 0 -44 c0 -34 6
-51 28 -75 26 -29 30 -30 51 -18 19 12 22 20 16 53 l-6 38 31 -26 c38 -31 80
-35 87 -7 3 11 17 21 34 25 l30 6 -21 40 c-11 23 -35 49 -52 60 -28 17 -29 20
-14 26 11 4 22 1 28 -7 7 -11 8 -9 6 6 -4 23 73 87 107 89 13 1 19 7 17 18 -3
19 16 34 28 22 4 -5 11 -24 15 -43 7 -34 7 -34 -25 -28 -24 5 -39 2 -60 -13
-15 -11 -35 -20 -44 -20 -11 0 -16 -9 -16 -33 0 -36 20 -66 58 -86 18 -10 22
-9 22 3 0 8 -9 24 -21 35 l-21 19 40 -5 c49 -7 102 2 128 22 19 14 19 14 -1
29 -18 14 -17 14 18 4 28 -9 40 -9 49 0 9 9 8 12 -3 12 -8 0 -30 15 -48 33
l-34 32 35 6 c38 6 94 37 123 69 10 11 24 20 32 20 7 0 13 7 13 15 0 8 -8 15
-17 15 -9 0 -24 7 -33 15 -15 14 -12 20 39 72 l56 58 -49 3 c-26 2 -62 -1 -78
-7 -38 -13 -59 4 -47 37 10 26 22 28 39 7 21 -25 82 -19 126 14 21 15 47 37
57 48 17 20 17 21 -3 26 -11 3 -20 2 -20 -3 0 -4 -11 -10 -25 -13 -23 -4 -24
-2 -12 12 17 20 39 72 33 78 -6 7 -89 -17 -114 -33 -20 -13 -24 -13 -38 1 -22
22 -8 37 29 30 43 -8 89 22 127 82 16 25 28 48 25 51 -2 2 -18 -6 -36 -19
l-32 -23 6 35 c4 19 11 51 16 72 5 20 5 37 1 37 -5 0 -28 -15 -52 -33 -51 -38
-78 -87 -78 -139 0 -21 -4 -38 -10 -38 -5 0 -10 25 -10 55 0 46 3 55 18 55 16
1 16 1 0 14 -26 19 -22 33 10 41 53 13 110 89 127 170 5 27 4 28 -7 11 -7 -11
-32 -41 -55 -68 -24 -27 -50 -60 -60 -74 l-16 -26 -13 24 c-16 28 -17 38 -4
38 6 0 10 -8 10 -17 0 -14 4 -13 25 7 38 35 47 79 43 199 -1 60 0 107 3 105 7
-4 19 31 19 59 0 34 -21 16 -45 -40 -14 -31 -27 -54 -30 -51 -3 3 2 19 11 37
17 34 14 96 -9 176 l-11 40 -7 -70 c-3 -38 -10 -104 -14 -145 -8 -72 -7 -74
10 -60 17 14 17 14 4 -7 -16 -27 -39 -30 -40 -5 -2 51 -32 178 -61 267 -11 33
-22 86 -24 119 -2 38 -12 72 -28 100 -23 39 -66 86 -66 72z m246 -603 c-14
-27 -28 -61 -32 -78 l-8 -30 -6 25 c-4 14 -3 30 2 37 6 7 6 18 2 25 -13 21
-13 37 0 32 7 -3 21 4 31 16 31 35 36 22 11 -27z m1 -85 c-3 -8 -6 -5 -6 6 -1
11 2 17 5 13 3 -3 4 -12 1 -19z m-131 -117 c-4 -6 -13 -11 -19 -11 -8 0 -7 3
2 9 8 5 10 14 6 22 -6 11 -5 11 5 2 7 -6 9 -16 6 -22z m1 -193 c-3 -8 -6 -5
-6 6 -1 11 2 17 5 13 3 -3 4 -12 1 -19z m94 -131 c-8 -8 -11 -7 -11 4 0 20 13
34 18 19 3 -7 -1 -17 -7 -23z m-214 -119 c-3 -7 -5 -2 -5 12 0 14 2 19 5 13 2
-7 2 -19 0 -25z m0 -155 c-2 -27 -3 -5 -3 47 0 52 1 74 3 48 2 -27 2 -69 0
-95z m183 128 c0 -6 -4 -13 -10 -16 -5 -3 -10 1 -10 9 0 9 5 16 10 16 6 0 10
-4 10 -9z m-98 -98 c-2 -7 -10 -13 -18 -13 -8 0 -14 -8 -14 -18 0 -11 -9 -27
-20 -37 -24 -22 -25 -18 -5 28 8 20 15 60 15 88 l0 52 24 -44 c12 -24 21 -50
18 -56z m-125 45 c-3 -8 -6 -5 -6 6 -1 11 2 17 5 13 3 -3 4 -12 1 -19z m193
-47 c13 -26 13 -31 -5 -31 -8 0 -30 -13 -48 -30 -19 -16 -38 -30 -41 -30 -9 0
67 109 76 110 4 0 12 -9 18 -19z m-400 -143 c0 -36 -4 -35 -14 5 -4 16 -2 27
4 27 5 0 10 -14 10 -32z m10 -177 c14 -28 13 -36 -5 -21 -8 7 -13 16 -10 20 3
5 -4 6 -15 3 -11 -3 -20 0 -20 6 0 19 39 12 50 -8z m120 -68 c0 -10 -4 -14 -8
-8 -4 6 -11 13 -16 18 -5 4 -2 7 7 7 10 0 17 -8 17 -17z"/>
<path d="M3619 2616 c0 -23 -19 -154 -42 -292 l-42 -250 46 0 46 1 6 94 c8
117 28 263 37 274 7 8 153 -297 165 -345 6 -23 13 -28 40 -28 30 0 34 4 55 53
42 100 153 327 160 327 3 0 15 -84 25 -188 l18 -188 80 1 79 0 -5 30 c-2 17
-19 147 -38 290 l-33 260 -58 0 -58 1 -16 -41 c-34 -85 -158 -345 -165 -345
-7 0 -132 276 -156 346 l-14 40 -64 0 -65 0 -1 -40z"/>
<path d="M4410 2436 c4 -127 11 -232 17 -247 38 -88 111 -124 253 -124 87 0
100 3 149 30 63 35 96 80 110 150 5 28 12 131 15 230 l5 180 -47 0 -47 0 0
-200 c0 -184 -2 -203 -21 -240 -27 -51 -74 -79 -133 -79 -58 1 -106 25 -128
67 -16 28 -18 60 -18 242 l0 210 -80 1 -80 0 5 -220z"/>
<path d="M5110 2431 c0 -124 -3 -255 -6 -291 l-6 -65 44 -1 43 -1 -3 201 -4
201 129 -135 c71 -74 155 -164 187 -200 57 -63 59 -65 109 -65 l52 -1 1 290 0
291 -40 0 -41 0 3 -195 2 -195 -86 90 c-47 50 -129 137 -182 195 l-95 105 -53
0 -54 1 0 -225z"/>
<path d="M5795 2365 l0 -290 80 0 80 0 0 290 0 290 -80 0 -80 0 0 -290z"/>
<path d="M6745 2365 l0 -290 80 0 80 0 0 290 0 290 -80 0 -80 0 0 -290z"/>
<path d="M7045 2366 l0 -291 78 0 77 -1 0 122 0 121 79 5 c143 8 213 64 215
172 0 66 -25 112 -79 140 -36 19 -58 21 -205 22 l-165 1 0 -291z m266 205 c25
-25 29 -37 29 -81 0 -44 -4 -56 -29 -81 -23 -23 -39 -29 -70 -29 l-41 0 0 110
0 110 41 0 c31 0 47 -6 70 -29z"/>
<path d="M8125 2365 l0 -291 182 1 183 0 0 35 0 36 -106 -4 -106 -4 4 258 3
259 -80 0 -80 0 0 -290z"/>
<path d="M8805 2365 l0 -291 175 0 c170 1 177 2 235 29 74 35 109 67 142 132
30 58 41 159 24 220 -21 79 -63 130 -137 166 l-69 34 -185 0 -185 0 0 -290z
m352 199 c55 -45 76 -107 70 -209 -9 -154 -76 -225 -212 -225 l-55 0 0 236 0
236 79 -3 c71 -4 83 -7 118 -35z"/>
<path d="M9500 2385 c0 -148 -3 -279 -6 -290 -5 -19 0 -20 179 -20 l184 0 -1
37 -1 37 -100 -2 -100 -2 0 100 0 100 98 -2 97 -2 0 37 0 37 -100 -3 -100 -4
0 79 c0 43 4 84 9 92 7 11 30 13 105 9 l96 -5 0 36 0 36 -180 0 -180 0 0 -270z"/>
<path d="M1372 2625 c0 -16 2 -22 5 -12 2 9 2 23 0 30 -3 6 -5 -1 -5 -18z"/>
<path d="M1557 2643 c-22 -3 -27 -8 -22 -21 3 -9 9 -30 12 -45 l6 -28 33 32
c27 26 31 36 23 51 -5 10 -13 17 -17 17 -4 -1 -20 -4 -35 -6z"/>
<path d="M1649 2642 c-12 -6 -13 -15 -6 -49 4 -24 12 -43 17 -43 17 0 60 67
54 84 -6 16 -36 20 -65 8z"/>
<path d="M1454 2632 c-19 -7 -20 -10 -10 -57 l11 -50 33 48 c41 62 32 79 -34
59z"/>
<path d="M768 2605 c-13 -39 -28 -130 -24 -155 1 -14 10 -42 19 -63 9 -21 16
-41 14 -45 -1 -4 3 -7 8 -7 6 0 9 29 8 70 -1 54 0 63 6 37 10 -38 18 -49 29
-37 4 4 1 10 -5 12 -9 3 -10 10 -4 21 10 20 3 82 -10 82 -5 0 -9 -8 -9 -17 0
-11 -3 -13 -9 -7 -6 5 -11 36 -13 69 -2 38 -6 53 -10 40z"/>
<path d="M3046 2513 c-4 -49 -9 -110 -12 -138 -5 -47 -4 -49 11 -30 33 41 46
112 33 186 -6 38 -14 69 -18 69 -4 0 -10 -39 -14 -87z"/>
<path d="M1096 2414 c-16 -96 -27 -177 -24 -179 3 -3 17 74 33 170 15 96 26
177 24 180 -3 2 -18 -74 -33 -171z"/>
<path d="M3017 2513 c-8 -17 -7 -72 3 -78 6 -4 10 11 10 39 0 44 -4 55 -13 39z"/>
<path d="M1530 2490 c-13 -9 -13 -11 0 -20 10 -6 16 -6 18 0 7 20 -3 30 -18
20z"/>
<path d="M1478 2423 c7 -3 16 -2 19 1 4 3 -2 6 -13 5 -11 0 -14 -3 -6 -6z"/>
<path d="M1368 2403 c7 -3 16 -2 19 1 4 3 -2 6 -13 5 -11 0 -14 -3 -6 -6z"/>
<path d="M1318 2393 c6 -2 18 -2 25 0 6 3 1 5 -13 5 -14 0 -19 -2 -12 -5z"/>
<path d="M935 2370 c-64 -30 -90 -58 -105 -111 l-9 -32 24 23 24 22 -6 -22
c-4 -17 -2 -21 8 -18 7 2 14 15 14 29 0 15 6 24 15 24 8 0 14 -7 12 -17 -2
-16 20 -20 34 -6 3 4 12 4 20 1 8 -3 14 0 14 7 0 7 -8 10 -20 7 -21 -5 -27 7
-9 19 6 3 8 17 5 29 -5 18 -1 25 14 30 11 3 20 13 20 21 0 18 -7 18 -55 -6z"/>
<path d="M1278 2383 c7 -3 16 -2 19 1 4 3 -2 6 -13 5 -11 0 -14 -3 -6 -6z"/>
<path d="M1135 2271 c-3 -5 -1 -12 5 -16 5 -3 10 1 10 9 0 18 -6 21 -15 7z"/>
<path d="M1170 2265 c0 -8 5 -15 10 -15 6 0 10 7 10 15 0 8 -4 15 -10 15 -5 0
-10 -7 -10 -15z"/>
<path d="M1200 2265 c0 -8 6 -15 13 -16 6 0 20 -2 30 -4 10 -2 17 3 17 12 0
10 -6 12 -20 8 -11 -4 -20 -2 -20 4 0 6 -4 11 -10 11 -5 0 -10 -7 -10 -15z"/>
<path d="M2855 2270 c-3 -5 -1 -10 4 -10 6 0 11 5 11 10 0 6 -2 10 -4 10 -3 0
-8 -4 -11 -10z"/>
<path d="M1280 2256 c0 -8 5 -18 10 -21 6 -3 10 3 10 14 0 12 -4 21 -10 21 -5
0 -10 -6 -10 -14z"/>
<path d="M1334 2256 c-4 -10 -2 -22 4 -28 8 -8 13 -7 18 6 4 10 2 22 -4 28 -8
8 -13 7 -18 -6z"/>
<path d="M1372 2243 c5 -25 28 -28 28 -4 0 12 -6 21 -16 21 -9 0 -14 -7 -12
-17z"/>
<path d="M1433 2246 c-25 -12 -32 -32 -9 -23 8 3 17 -1 20 -9 8 -20 26 -8 26
16 0 24 -10 29 -37 16z"/>
<path d="M1543 2223 c-18 -7 -16 -23 2 -23 8 0 15 7 15 15 0 8 -1 15 -2 14 -2
0 -9 -3 -15 -6z"/>
<path d="M761 2184 c0 -11 3 -14 6 -6 3 7 2 16 -1 19 -3 4 -6 -2 -5 -13z"/>
<path d="M2910 2066 c0 -2 7 -9 15 -16 13 -11 14 -10 9 4 -5 14 -24 23 -24 12z"/>
<path d="M8112 1899 c-69 -13 -147 -54 -200 -103 -157 -147 -160 -464 -6 -606
161 -148 472 -142 627 12 144 145 155 428 21 577 -93 104 -275 153 -442 120z
m173 -80 c54 -15 118 -82 141 -150 26 -75 26 -262 0 -338 -33 -95 -126 -171
-211 -171 -81 0 -162 61 -197 148 -19 49 -22 75 -22 182 0 106 4 134 23 184
49 123 148 177 266 145z"/>
<path d="M3737 1890 c-96 -25 -147 -71 -173 -157 -44 -146 9 -243 176 -321 52
-24 107 -53 122 -64 36 -25 45 -75 23 -121 -46 -98 -220 -84 -270 20 -11 23
-25 42 -31 43 -6 0 -14 -21 -17 -47 -3 -27 -9 -62 -12 -78 -6 -27 -3 -32 28
-47 121 -58 291 -44 377 30 102 87 118 252 35 350 -26 30 -59 50 -145 87 -150
65 -185 108 -145 184 19 38 63 54 130 49 44 -4 62 -11 86 -34 16 -15 32 -39
35 -51 10 -38 30 -26 42 25 6 26 14 56 18 68 5 18 -2 24 -45 43 -58 24 -177
35 -234 21z"/>
<path d="M6449 1860 c-23 -71 -189 -509 -242 -635 l-53 -130 60 1 60 1 22 84
c12 46 27 97 33 112 l11 28 122 -3 123 -3 34 -110 34 -110 108 0 c69 0 108 4
105 10 -50 116 -260 681 -288 774 -3 10 -21 15 -61 15 -57 1 -57 1 -68 -34z
m65 -339 c20 -57 34 -106 31 -109 -9 -9 -104 -15 -139 -8 l-35 7 26 67 c14 37
34 91 45 121 24 63 23 64 72 -78z"/>
<path d="M9479 1860 c-23 -71 -189 -509 -242 -635 l-53 -130 60 1 60 1 22 84
c12 46 27 97 33 112 l11 28 122 -3 123 -3 34 -110 34 -110 108 0 c69 0 108 4
105 10 -50 116 -260 681 -288 774 -3 10 -21 15 -61 15 -57 1 -57 1 -68 -34z
m65 -339 c20 -57 34 -106 31 -109 -9 -9 -104 -15 -139 -8 l-35 7 26 67 c14 37
34 91 45 121 24 63 23 64 72 -78z"/>
<path d="M4178 1490 l-3 -395 97 0 98 0 0 186 0 187 31 6 c41 8 203 8 252 -1
l39 -6 -4 -186 -3 -186 100 0 100 0 0 395 0 395 -100 0 -100 0 4 -157 3 -158
-162 0 -161 0 3 158 3 157 -97 0 -98 0 -2 -395z"/>
<path d="M5035 1490 l0 -395 95 0 95 0 0 395 0 395 -95 0 -95 0 0 -395z"/>
<path d="M5410 1570 c0 -173 -3 -351 -6 -395 l-7 -80 55 0 55 0 -5 270 c-3
179 -1 267 6 260 47 -47 421 -502 428 -520 3 -6 33 -10 69 -10 l65 0 1 315 c0
173 4 351 7 395 l7 80 -56 0 -55 0 4 -265 5 -265 -107 125 c-59 69 -157 188
-219 265 l-112 140 -67 0 -68 0 0 -315z"/>
<path d="M6958 1490 l-3 -395 97 0 98 0 0 186 0 187 31 6 c41 8 203 8 252 -1
l39 -6 -4 -186 -3 -186 100 0 100 0 0 395 0 395 -100 0 -100 0 4 -157 3 -158
-162 0 -161 0 3 158 3 157 -97 0 -98 0 -2 -395z"/>
<path d="M8660 1834 l0 -51 100 5 101 5 -3 -349 -3 -349 100 0 100 0 -3 349
-3 349 98 -5 99 -5 0 51 0 51 -293 0 -293 0 0 -51z"/>
<path d="M3238 1733 c7 -3 16 -2 19 1 4 3 -2 6 -13 5 -11 0 -14 -3 -6 -6z"/>
<path d="M3140 1290 c0 -5 5 -10 11 -10 5 0 7 5 4 10 -3 6 -8 10 -11 10 -2 0
-4 -4 -4 -10z"/>
<path d="M1256 1189 c-11 -57 -6 -101 16 -145 23 -46 45 -60 34 -21 -12 43
-25 115 -27 156 -3 49 -14 53 -23 10z"/>
<path d="M2557 1190 c-3 -14 -11 -52 -16 -85 -6 -33 -13 -70 -17 -82 -11 -39
11 -25 34 21 22 44 28 113 12 151 -7 19 -8 18 -13 -5z"/>
<path d="M2230 1139 c-44 -33 -130 -41 -385 -36 -132 2 -250 8 -262 12 -17 5
-25 3 -30 -11 -3 -10 -2 -19 4 -21 5 -2 19 -10 29 -18 18 -13 17 -15 -21 -48
-23 -20 -51 -58 -64 -88 -13 -30 -32 -72 -43 -95 -12 -26 -31 -48 -56 -62 -21
-12 -62 -47 -92 -79 -41 -45 -53 -65 -54 -91 0 -61 44 -67 64 -8 12 38 51 77
100 101 19 9 49 33 65 52 32 37 39 38 185 30 19 -1 50 2 69 7 l34 8 -6 -41
c-7 -53 11 -73 62 -69 29 2 36 7 34 23 -1 11 -5 78 -8 149 l-5 130 -28 11
c-31 14 -58 42 -48 52 3 4 29 1 57 -5 28 -7 64 -12 80 -12 27 0 29 -2 19 -21
-7 -11 -9 -23 -6 -26 3 -3 11 6 17 21 7 14 17 26 23 26 6 0 21 3 34 6 33 9 27
-12 -10 -38 -31 -22 -33 -26 -32 -83 1 -33 5 -99 9 -148 7 -81 10 -88 32 -93
14 -4 35 -2 49 5 20 9 24 18 24 51 0 44 4 46 62 30 28 -8 47 -7 83 5 55 19
106 7 131 -31 9 -13 40 -39 69 -59 30 -19 62 -46 72 -59 22 -28 93 -41 93 -17
0 25 -47 77 -115 127 -70 51 -101 91 -129 168 -22 57 -69 114 -101 122 -25 6
-23 14 19 77 13 19 16 33 10 46 -9 18 -10 18 -34 0z m-485 -114 c22 -14 34
-25 27 -25 -15 0 -92 38 -92 45 0 11 28 3 65 -20z m401 18 c-9 -15 -95 -57
-102 -50 -10 10 23 34 61 46 39 12 47 13 41 4z m-391 -64 c16 -16 -20 -10 -41
7 -18 14 -18 15 6 8 14 -3 29 -10 35 -15z m375 6 c0 -5 -55 -35 -65 -35 -15 0
-2 22 18 30 25 10 47 12 47 5z m-506 -47 c23 -52 58 -88 100 -102 38 -13 38
-13 12 -20 -30 -7 -94 7 -117 26 -44 38 -51 55 -39 92 14 45 26 45 44 4z m627
-25 c7 -20 4 -31 -17 -58 -28 -37 -69 -55 -123 -55 l-36 1 30 16 c45 23 86 64
102 101 15 36 29 34 44 -5z m-517 11 c20 -8 21 -44 1 -44 -12 0 -35 28 -35 44
0 8 14 8 34 0z m389 -24 c-6 -22 -8 -23 -40 -14 -40 11 -23 29 29 33 11 1 15
-5 11 -19z"/>
<path d="M3020 1120 c0 -5 9 -8 20 -7 21 1 18 10 -5 13 -8 1 -15 -2 -15 -6z"/>
<path d="M2542 910 c0 -14 2 -19 5 -12 2 6 2 18 0 25 -3 6 -5 1 -5 -13z"/>
<path d="M2540 866 c0 -20 17 -29 26 -15 5 8 3 9 -6 4 -10 -6 -12 -4 -7 8 3
10 2 17 -3 17 -6 0 -10 -6 -10 -14z"/>
<path d="M2571 824 c0 -11 3 -14 6 -6 3 7 2 16 -1 19 -3 4 -6 -2 -5 -13z"/>
<path d="M1476 576 c3 -8 13 -17 22 -19 10 -3 -11 -5 -45 -6 -69 -1 -78 -8
-62 -44 10 -22 15 -23 62 -19 96 9 117 29 81 80 -17 25 -67 32 -58 8z"/>
<path d="M2453 550 c-6 -26 -7 -43 -1 -46 6 -4 39 -9 74 -12 50 -4 64 -8 65
-21 0 -9 5 -1 10 17 14 48 -1 62 -67 62 -53 0 -78 15 -53 31 12 7 11 9 -1 9
-10 0 -20 -15 -27 -40z"/>
<path d="M2672 556 c10 -7 14 -17 10 -21 -4 -5 -1 -5 6 -1 19 11 14 23 -10 29
-21 5 -21 5 -6 -7z"/>
<path d="M2245 550 c3 -5 8 -10 11 -10 2 0 4 5 4 10 0 6 -5 10 -11 10 -5 0 -7
-4 -4 -10z"/>
<path d="M1750 510 c0 -25 4 -30 23 -29 12 0 16 3 10 6 -7 2 -13 16 -13 29 0
13 -4 24 -10 24 -5 0 -10 -13 -10 -30z"/>
<path d="M1810 510 c0 -24 4 -30 23 -30 15 0 18 3 9 9 -14 9 -13 32 3 43 6 4
0 8 -12 8 -19 0 -23 -6 -23 -30z"/>
<path d="M1870 531 c0 -6 5 -13 11 -16 6 -4 8 -13 5 -21 -3 -8 1 -14 10 -14 8
0 12 4 9 10 -3 5 -1 19 5 30 6 12 7 20 1 20 -5 0 -12 -6 -14 -12 -4 -10 -6
-10 -6 0 -1 14 -21 17 -21 3z"/>
<path d="M2019 535 c-1 -5 -1 -13 0 -17 0 -5 -4 -7 -10 -5 -21 4 -20 -20 1
-26 26 -7 33 5 21 35 -6 12 -11 19 -12 13z"/>
<path d="M2060 525 c-11 -13 -11 -19 3 -33 20 -19 41 -5 35 24 -4 24 -22 28
-38 9z m22 -27 c-9 -9 -12 -7 -12 12 0 19 3 21 12 12 9 -9 9 -15 0 -24z"/>
<path d="M2132 528 c-17 -17 -15 -35 5 -42 22 -9 34 5 27 32 -7 25 -15 27 -32
10z"/>
<path d="M2194 521 c14 -5 16 -10 8 -15 -14 -8 -16 -26 -4 -26 5 0 14 11 20
25 11 23 10 25 -16 24 -23 0 -24 -2 -8 -8z"/>
<path d="M1275 483 c9 -37 13 -40 32 -20 13 13 14 19 3 31 -22 27 -43 20 -35
-11z"/>
<path d="M2710 503 c-8 -2 -21 -6 -28 -9 -10 -3 -10 -9 -2 -24 15 -28 42 -21
51 13 7 27 6 29 -21 20z"/>
<path d="M1718 430 c-2 -25 0 -39 7 -37 13 4 19 77 7 77 -6 0 -12 -18 -14 -40z"/>
<path d="M1760 439 c0 -26 3 -30 23 -27 17 2 22 10 24 33 1 18 -1 22 -4 10 -9
-34 -23 -41 -23 -12 0 15 -4 27 -10 27 -5 0 -10 -14 -10 -31z"/>
<path d="M1830 440 c0 -16 5 -30 10 -30 6 0 10 14 10 30 0 17 -4 30 -10 30 -5
0 -10 -13 -10 -30z"/>
<path d="M1890 440 c0 -16 5 -30 10 -30 6 0 10 14 10 30 0 17 -4 30 -10 30 -5
0 -10 -13 -10 -30z"/>
<path d="M1534 445 c-8 -20 4 -35 27 -35 14 0 19 7 19 25 0 18 -5 25 -20 25
-11 0 -23 -7 -26 -15z m31 -4 c3 -5 1 -12 -5 -16 -5 -3 -10 1 -10 9 0 18 6 21
15 7z"/>
<path d="M1619 453 c-1 -5 -1 -12 0 -16 1 -5 -3 -6 -8 -3 -5 4 -12 2 -15 -3
-6 -9 33 -23 45 -16 10 6 -1 45 -12 45 -5 0 -10 -3 -10 -7z"/>
<path d="M1926 451 c-11 -17 6 -41 29 -41 24 0 35 16 28 38 -8 20 -22 14 -16
-8 4 -14 0 -20 -12 -20 -12 0 -16 6 -12 20 5 20 -7 28 -17 11z"/>
<path d="M2050 435 c0 -23 4 -26 28 -23 19 2 27 9 27 23 0 14 -8 21 -27 23
-24 3 -28 0 -28 -23z m40 0 c0 -8 -4 -15 -10 -15 -5 0 -10 7 -10 15 0 8 5 15
10 15 6 0 10 -7 10 -15z"/>
<path d="M2125 435 c0 -20 5 -25 25 -24 18 1 20 3 7 6 -17 4 -17 6 -3 22 14
15 13 17 -7 19 -17 1 -22 -4 -22 -23z"/>
<path d="M2249 451 c12 -8 12 -12 2 -25 -10 -12 -9 -15 6 -13 12 0 20 9 21 24
1 18 -3 23 -21 23 -17 0 -19 -2 -8 -9z"/>
<path d="M2297 447 c-8 -21 8 -39 29 -35 27 5 25 42 -2 46 -12 2 -24 -3 -27
-11z m33 -12 c0 -8 -4 -15 -10 -15 -5 0 -10 7 -10 15 0 8 5 15 10 15 6 0 10
-7 10 -15z"/>
<path d="M2360 435 c0 -22 4 -26 23 -23 14 2 22 10 22 23 0 13 -8 21 -22 23
-19 3 -23 -1 -23 -23z m27 -7 c-3 -8 -6 -5 -6 6 -1 11 2 17 5 13 3 -3 4 -12 1
-19z"/>
<path d="M2420 446 c0 -18 27 -39 40 -31 5 3 10 15 10 26 0 14 -7 19 -25 19
-15 0 -25 -6 -25 -14z"/>
</g>
</svg>
