<?xml version="1.0" encoding="UTF-8"?>
<!DOCTYPE svg PUBLIC "-//W3C//DTD SVG 1.1//EN" "http://www.w3.org/Graphics/SVG/1.1/DTD/svg11.dtd">
<svg xmlns="http://www.w3.org/2000/svg" version="1.1" width="1200px" height="900px" style="shape-rendering:geometricPrecision; text-rendering:geometricPrecision; image-rendering:optimizeQuality; fill-rule:evenodd; clip-rule:evenodd" xmlns:xlink="http://www.w3.org/1999/xlink">
<g><path style="opacity:0.919" fill="#014c88" d="M 394.5,200.5 C 394.5,215.833 394.5,231.167 394.5,246.5C 392.954,249.2 390.621,251.033 387.5,252C 369.5,252.667 351.5,252.667 333.5,252C 330.667,250.5 328.5,248.333 327,245.5C 326.333,230.833 326.333,216.167 327,201.5C 328.563,198.272 331.063,196.105 334.5,195C 351.833,194.333 369.167,194.333 386.5,195C 389.721,196.104 392.388,197.937 394.5,200.5 Z"/></g>
<g><path style="opacity:0.943" fill="#efb800" d="M 594.5,198.5 C 595.997,205.873 595.83,213.206 594,220.5C 589.872,204.876 579.705,196.876 563.5,196.5C 551.268,196.366 541.768,201.366 535,211.5C 528.732,228.792 533.899,241.292 550.5,249C 568.09,254.472 581.923,249.639 592,234.5C 592.92,231.899 593.587,229.232 594,226.5C 595.339,233.426 595.839,240.426 595.5,247.5C 594.327,249.504 592.66,251.004 590.5,252C 572.167,252.667 553.833,252.667 535.5,252C 532.591,250.594 530.591,248.428 529.5,245.5C 529.5,230.833 529.5,216.167 529.5,201.5C 530.68,198.155 533.013,195.989 536.5,195C 554.167,194.333 571.833,194.333 589.5,195C 591.584,195.697 593.251,196.864 594.5,198.5 Z"/></g>
<g><path style="opacity:0.947" fill="#eb640a" d="M 664.5,201.5 C 664.5,216.167 664.5,230.833 664.5,245.5C 662.691,248.139 660.358,250.306 657.5,252C 639.5,252.667 621.5,252.667 603.5,252C 600.314,250.644 597.981,248.478 596.5,245.5C 596.5,230.833 596.5,216.167 596.5,201.5C 598.309,198.861 600.642,196.694 603.5,195C 621.167,194.333 638.833,194.333 656.5,195C 659.938,196.277 662.605,198.443 664.5,201.5 Z"/></g>
<g><path style="opacity:0.919" fill="#aa0a31" d="M 731.5,200.5 C 731.5,215.833 731.5,231.167 731.5,246.5C 731.167,246.5 730.833,246.5 730.5,246.5C 730.667,232.496 730.5,218.496 730,204.5C 729.667,210.167 729.333,215.833 729,221.5C 726.311,208.476 718.477,200.309 705.5,197C 688.46,194.271 675.96,200.437 668,215.5C 665.683,221.544 666.183,227.211 669.5,232.5C 669.5,232.833 669.5,233.167 669.5,233.5C 670.795,238.7 674.128,242.867 679.5,246C 693.246,253.656 706.579,252.989 719.5,244C 724.621,239.26 727.788,233.427 729,226.5C 729.5,233.826 729.666,241.159 729.5,248.5C 728.547,250.61 726.881,251.777 724.5,252C 706.5,252.667 688.5,252.667 670.5,252C 667.591,250.594 665.591,248.428 664.5,245.5C 664.5,230.833 664.5,216.167 664.5,201.5C 665.658,198.178 667.992,196.012 671.5,195C 689.167,194.333 706.833,194.333 724.5,195C 727.266,196.371 729.599,198.204 731.5,200.5 Z"/></g>
<g><path style="opacity:0.996" fill="#f4c20d" d="M 594.5,198.5 C 595.401,199.29 596.068,200.29 596.5,201.5C 596.5,216.167 596.5,230.833 596.5,245.5C 596.672,246.492 596.338,247.158 595.5,247.5C 595.839,240.426 595.339,233.426 594,226.5C 593.587,229.232 592.92,231.899 592,234.5C 581.923,249.639 568.09,254.472 550.5,249C 533.899,241.292 528.732,228.792 535,211.5C 541.768,201.366 551.268,196.366 563.5,196.5C 579.705,196.876 589.872,204.876 594,220.5C 595.83,213.206 595.997,205.873 594.5,198.5 Z"/></g>
<g><path style="opacity:1" fill="#ed6d05" d="M 655.5,236.5 C 656.25,232.225 654.917,228.891 651.5,226.5C 653.666,225.741 655.166,226.741 656,229.5C 658.722,216.511 653.889,207.344 641.5,202C 638.51,201.103 635.51,200.269 632.5,199.5C 632.407,200.472 632.074,201.472 631.5,202.5C 630.878,201.373 630.045,200.373 629,199.5C 627.165,201.449 625.999,203.783 625.5,206.5C 622.952,204.815 620.952,205.148 619.5,207.5C 619.565,207.938 619.399,208.272 619,208.5C 617.225,205.956 615.392,205.956 613.5,208.5C 608.275,213.403 606.108,219.403 607,226.5C 607.5,227.667 608.333,228.5 609.5,229C 611.115,229.062 612.448,229.229 613.5,229.5C 613.167,230.167 612.833,230.833 612.5,231.5C 609.817,229.906 607.484,230.239 605.5,232.5C 605.957,233.298 606.624,233.631 607.5,233.5C 608.209,234.404 609.209,234.737 610.5,234.5C 609.488,235.872 608.488,237.205 607.5,238.5C 606.502,238.413 605.335,238.08 604,237.5C 597.095,225.241 598.595,214.074 608.5,204C 619.521,196.111 631.521,194.444 644.5,199C 660.511,208.031 664.677,220.865 657,237.5C 656.617,236.944 656.117,236.611 655.5,236.5 Z"/></g>
<g><path style="opacity:1" fill="#045595" d="M 354.5,204.5 C 354.5,204.833 354.5,205.167 354.5,205.5C 353.022,205.238 351.689,205.571 350.5,206.5C 352.11,208.597 353.277,210.93 354,213.5C 354.816,214.823 355.983,215.489 357.5,215.5C 357.5,215.833 357.5,216.167 357.5,216.5C 356.5,216.5 355.5,216.5 354.5,216.5C 353.391,216.557 352.391,216.89 351.5,217.5C 344.869,214.949 340.536,217.116 338.5,224C 338.978,225.642 339.978,226.809 341.5,227.5C 342.167,228.5 342.833,229.5 343.5,230.5C 340.547,230.15 338.213,231.15 336.5,233.5C 335.175,234.953 334.342,234.619 334,232.5C 330.467,215.331 337.133,203.997 354,198.5C 353.441,200.638 353.608,202.638 354.5,204.5 Z"/></g>
<g><path style="opacity:1" fill="#fffbf0" d="M 563.5,199.5 C 565.112,202.744 566.112,206.411 566.5,210.5C 571.154,205.081 572.154,205.415 569.5,211.5C 569.833,211.833 570.167,212.167 570.5,212.5C 583.005,206.035 584.672,207.369 575.5,216.5C 577.634,216.389 579.967,216.722 582.5,217.5C 580.713,218.316 579.046,219.316 577.5,220.5C 581.847,221.392 585.847,223.058 589.5,225.5C 585.5,226.167 581.5,226.833 577.5,227.5C 579.167,228.5 580.5,229.833 581.5,231.5C 579.705,231.034 577.705,231.034 575.5,231.5C 578.357,234.83 579.69,238.496 579.5,242.5C 576.801,239.964 573.968,237.631 571,235.5C 570.5,235.667 570,235.833 569.5,236C 570.885,237.965 570.718,239.798 569,241.5C 568.252,239.668 567.252,238.001 566,236.5C 565.197,240.688 563.364,244.354 560.5,247.5C 559.833,243.833 559.167,240.167 558.5,236.5C 557.284,239.25 555.284,240.417 552.5,240C 554.014,238.561 554.347,237.061 553.5,235.5C 540.071,241.969 538.738,240.635 549.5,231.5C 547.234,230.686 544.9,230.186 542.5,230C 544.167,229 545.833,228 547.5,227C 532,223.069 532,220.902 547.5,220.5C 545.833,219.5 544.5,218.167 543.5,216.5C 545.5,216.5 547.5,216.5 549.5,216.5C 541.85,202.938 543.183,201.605 553.5,212.5C 554.167,210.5 554.833,208.5 555.5,206.5C 556.5,207.833 557.5,209.167 558.5,210.5C 559.918,206.667 561.585,203 563.5,199.5 Z"/></g>
<g><path style="opacity:1" fill="#fff9f4" d="M 631.5,202.5 C 631.238,203.978 631.571,205.311 632.5,206.5C 638.93,204.745 639.93,206.245 635.5,211C 636.624,211.249 637.624,211.749 638.5,212.5C 637.82,213.86 637.153,215.193 636.5,216.5C 631.833,216.5 627.167,216.5 622.5,216.5C 619.057,214.267 619.057,212.434 622.5,211C 621.364,209.855 620.364,208.688 619.5,207.5C 620.952,205.148 622.952,204.815 625.5,206.5C 625.999,203.783 627.165,201.449 629,199.5C 630.045,200.373 630.878,201.373 631.5,202.5 Z"/></g>
<g><path style="opacity:1" fill="#99b8d4" d="M 355.5,201.5 C 358.355,203.25 361.689,204.083 365.5,204C 361.809,204.42 358.142,204.92 354.5,205.5C 354.5,205.167 354.5,204.833 354.5,204.5C 354.263,203.209 354.596,202.209 355.5,201.5 Z"/></g>
<g><path style="opacity:1" fill="#e6eef5" d="M 367.5,204.5 C 368.808,205.232 370.142,206.066 371.5,207C 370.552,207.483 369.552,207.649 368.5,207.5C 368.66,209.199 368.494,210.866 368,212.5C 367.583,213.756 366.75,214.423 365.5,214.5C 366.939,212.412 367.606,210.079 367.5,207.5C 363.167,207.5 358.833,207.5 354.5,207.5C 353.908,210.631 354.908,212.964 357.5,214.5C 357.5,214.833 357.5,215.167 357.5,215.5C 355.983,215.489 354.816,214.823 354,213.5C 353.277,210.93 352.11,208.597 350.5,206.5C 351.689,205.571 353.022,205.238 354.5,205.5C 358.142,204.92 361.809,204.42 365.5,204C 361.689,204.083 358.355,203.25 355.5,201.5C 355.611,200.883 355.944,200.383 356.5,200C 359.5,199.333 362.5,199.333 365.5,200C 366.099,201.622 366.766,203.122 367.5,204.5 Z"/></g>
<g><path style="opacity:1" fill="#0f5898" d="M 384.5,233.5 C 383.883,233.389 383.383,233.056 383,232.5C 384.286,236.549 382.786,238.049 378.5,237C 379.423,234.959 379.756,232.792 379.5,230.5C 379.833,230.5 380.167,230.5 380.5,230.5C 381.777,229.306 382.444,227.64 382.5,225.5C 381.579,217.367 377.246,214.867 369.5,218C 367.711,220.738 366.378,223.572 365.5,226.5C 365.5,225.833 365.5,225.167 365.5,224.5C 365.586,222.323 366.253,220.323 367.5,218.5C 366.995,217.081 365.995,216.415 364.5,216.5C 364.833,215.833 365.167,215.167 365.5,214.5C 366.75,214.423 367.583,213.756 368,212.5C 368.494,210.866 368.66,209.199 368.5,207.5C 369.552,207.649 370.552,207.483 371.5,207C 370.142,206.066 368.808,205.232 367.5,204.5C 367.254,202.22 367.254,200.22 367.5,198.5C 384.804,203.764 391.471,215.097 387.5,232.5C 386.364,232.964 385.364,233.298 384.5,233.5 Z"/></g>
<g><path style="opacity:1" fill="#0b5b9f" d="M 365.5,214.5 C 362.803,215.63 360.137,215.63 357.5,214.5C 354.908,212.964 353.908,210.631 354.5,207.5C 358.833,207.5 363.167,207.5 367.5,207.5C 367.606,210.079 366.939,212.412 365.5,214.5 Z"/></g>
<g><path style="opacity:1" fill="#fdd20d" d="M 558.5,212.5 C 569.897,211.399 575.064,216.399 574,227.5C 570.345,234.07 564.845,236.237 557.5,234C 550.495,230.826 548.328,225.659 551,218.5C 553.114,215.879 555.614,213.879 558.5,212.5 Z"/></g>
<g><path style="opacity:1" fill="#e8eff6" d="M 351.5,217.5 C 354.635,220.636 355.302,224.303 353.5,228.5C 352.833,228.5 352.167,228.5 351.5,228.5C 354.84,223.3 353.34,220.3 347,219.5C 344.861,220.236 342.861,221.236 341,222.5C 340.616,224.197 340.782,225.863 341.5,227.5C 339.978,226.809 338.978,225.642 338.5,224C 340.536,217.116 344.869,214.949 351.5,217.5 Z"/></g>
<g><path style="opacity:1" fill="#f9fbfd" d="M 354.5,216.5 C 355.5,216.5 356.5,216.5 357.5,216.5C 359.833,217.833 362.167,217.833 364.5,216.5C 365.995,216.415 366.995,217.081 367.5,218.5C 366.253,220.323 365.586,222.323 365.5,224.5C 362.8,223.484 360.134,223.484 357.5,224.5C 356.258,222.267 354.924,220.101 353.5,218C 354.056,217.617 354.389,217.117 354.5,216.5 Z"/></g>
<g><path style="opacity:1" fill="#6d9ec8" d="M 357.5,214.5 C 360.137,215.63 362.803,215.63 365.5,214.5C 365.167,215.167 364.833,215.833 364.5,216.5C 362.167,217.833 359.833,217.833 357.5,216.5C 357.5,216.167 357.5,215.833 357.5,215.5C 357.5,215.167 357.5,214.833 357.5,214.5 Z"/></g>
<g><path style="opacity:1" fill="#8c1977" d="M 731.5,246.5 C 731.5,231.167 731.5,215.833 731.5,200.5C 733.612,197.937 736.279,196.104 739.5,195C 756.833,194.333 774.167,194.333 791.5,195C 794.937,196.105 797.437,198.272 799,201.5C 799.667,216.167 799.667,230.833 799,245.5C 797.5,248.333 795.333,250.5 792.5,252C 774.5,252.667 756.5,252.667 738.5,252C 735.379,251.033 733.046,249.2 731.5,246.5 Z"/></g>
<g><path style="opacity:1" fill="#f5eaf3" d="M 751.5,206.5 C 757.873,206.368 760.373,209.368 759,215.5C 755.333,219.5 751.667,219.5 748,215.5C 746.665,211.392 747.832,208.392 751.5,206.5 Z"/></g>
<g><path style="opacity:1" fill="#8d2473" d="M 751.5,209.5 C 755.029,208.889 756.862,210.223 757,213.5C 751.648,216.877 749.815,215.544 751.5,209.5 Z"/></g>
<g><path style="opacity:1" fill="#f5e8f2" d="M 752.5,211.5 C 753.675,211.281 754.675,211.614 755.5,212.5C 753.948,213.798 752.948,213.465 752.5,211.5 Z"/></g>
<g><path style="opacity:1" fill="#f9f3f8" d="M 774.5,199.5 C 776.722,200.386 778.888,200.386 781,199.5C 782.927,200.861 785.094,201.694 787.5,202C 788.5,204.333 790.167,206 792.5,207C 791.397,208.68 791.73,210.18 793.5,211.5C 792.167,213.167 792.167,214.833 793.5,216.5C 792.737,217.719 791.737,218.719 790.5,219.5C 790.709,220.086 791.043,220.586 791.5,221C 789.602,221.9 787.936,223.066 786.5,224.5C 784.223,225.277 782.057,226.277 780,227.5C 778.144,226.264 776.311,226.264 774.5,227.5C 770.998,225.583 767.665,223.416 764.5,221C 763.167,220 763.167,219 764.5,218C 761.325,216.423 760.991,214.59 763.5,212.5C 763.069,211.707 762.735,210.873 762.5,210C 763.885,208.403 764.551,206.57 764.5,204.5C 767.505,201.745 770.838,200.078 774.5,199.5 Z"/></g>
<g><path style="opacity:1" fill="#8d1e75" d="M 774.5,203.5 C 783.848,203.017 788.348,207.35 788,216.5C 787.215,218.286 786.049,219.786 784.5,221C 773.086,225.225 767.586,221.391 768,209.5C 769.494,206.686 771.66,204.686 774.5,203.5 Z"/></g>
<g><path style="opacity:1" fill="#f4e8f1" d="M 775.5,206.5 C 782.02,206.294 785.186,209.294 785,215.5C 780.239,220.812 775.572,220.812 771,215.5C 770.053,211.279 771.553,208.279 775.5,206.5 Z"/></g>
<g><path style="opacity:1" fill="#912178" d="M 775.5,208.5 C 782.251,208.38 784.251,211.214 781.5,217C 772.675,218.378 770.675,215.545 775.5,208.5 Z"/></g>
<g><path style="opacity:1" fill="#f4e7f1" d="M 776.5,212.5 C 777.675,212.281 778.675,212.614 779.5,213.5C 777.948,214.798 776.948,214.465 776.5,212.5 Z"/></g>
<g><path style="opacity:1" fill="#f07f12" d="M 651.5,226.5 C 649.516,226.617 647.85,225.95 646.5,224.5C 647.171,230.044 644.671,233.71 639,235.5C 637.635,235.156 636.468,234.489 635.5,233.5C 633.821,235.104 631.821,235.771 629.5,235.5C 629.285,237.179 629.952,238.179 631.5,238.5C 631.5,239.167 631.5,239.833 631.5,240.5C 630.5,240.5 629.5,240.5 628.5,240.5C 627.778,240.082 627.278,239.416 627,238.5C 626.79,240.058 626.29,241.391 625.5,242.5C 625.552,240.097 625.219,237.764 624.5,235.5C 621.879,233.515 618.879,232.515 615.5,232.5C 614.836,231.352 614.669,230.019 615,228.5C 614.617,229.056 614.117,229.389 613.5,229.5C 612.448,229.229 611.115,229.062 609.5,229C 608.333,228.5 607.5,227.667 607,226.5C 606.108,219.403 608.275,213.403 613.5,208.5C 615.392,205.956 617.225,205.956 619,208.5C 619.399,208.272 619.565,207.938 619.5,207.5C 620.364,208.688 621.364,209.855 622.5,211C 619.057,212.434 619.057,214.267 622.5,216.5C 621.068,218.799 621.734,220.465 624.5,221.5C 626.174,220.12 627.84,218.787 629.5,217.5C 631.208,217.703 632.541,218.536 633.5,220C 636.936,220.737 637.936,219.57 636.5,216.5C 637.153,215.193 637.82,213.86 638.5,212.5C 637.624,211.749 636.624,211.249 635.5,211C 639.93,206.245 638.93,204.745 632.5,206.5C 631.571,205.311 631.238,203.978 631.5,202.5C 632.074,201.472 632.407,200.472 632.5,199.5C 635.51,200.269 638.51,201.103 641.5,202C 653.889,207.344 658.722,216.511 656,229.5C 655.166,226.741 653.666,225.741 651.5,226.5 Z"/></g>
<g><path style="opacity:1" fill="#fddcb6" d="M 622.5,216.5 C 627.167,216.5 631.833,216.5 636.5,216.5C 637.936,219.57 636.936,220.737 633.5,220C 632.541,218.536 631.208,217.703 629.5,217.5C 627.84,218.787 626.174,220.12 624.5,221.5C 621.734,220.465 621.068,218.799 622.5,216.5 Z"/></g>
<g><path style="opacity:1" fill="#fff3e6" d="M 629.5,219.5 C 634.506,221.293 634.673,223.293 630,225.5C 625.614,223.753 625.447,221.753 629.5,219.5 Z"/></g>
<g><path style="opacity:1" fill="#f8f1f7" d="M 751.5,220.5 C 754.027,221.517 756.527,221.517 759,220.5C 760.651,221.742 762.485,222.576 764.5,223C 765.376,225.376 767.042,226.876 769.5,227.5C 768.159,229.834 768.826,231.501 771.5,232.5C 769.599,233.935 769.266,235.602 770.5,237.5C 769.218,239.179 768.218,241.013 767.5,243C 764.395,245.495 760.895,247.328 757,248.5C 755.144,247.264 753.311,247.264 751.5,248.5C 750.186,247.687 749.019,246.687 748,245.5C 745.342,246.694 744.176,245.694 744.5,242.5C 741.306,242.824 740.306,241.658 741.5,239C 740.426,238.261 739.759,237.261 739.5,236C 739.087,232.39 739.753,228.89 741.5,225.5C 742.833,225.5 744.167,225.5 745.5,225.5C 745.238,222.079 746.572,221.079 749.5,222.5C 750.522,222.145 751.189,221.478 751.5,220.5 Z"/></g>
<g><path style="opacity:1" fill="#fefcf9" d="M 637.5,221.5 C 639.609,222.052 640.442,223.386 640,225.5C 638.519,224.529 637.685,223.196 637.5,221.5 Z"/></g>
<g><path style="opacity:1" fill="#0a599e" d="M 351.5,228.5 C 348.098,228.658 344.764,228.324 341.5,227.5C 340.782,225.863 340.616,224.197 341,222.5C 342.861,221.236 344.861,220.236 347,219.5C 353.34,220.3 354.84,223.3 351.5,228.5 Z"/></g>
<g><path style="opacity:1" fill="#ffedd9" d="M 619.5,221.5 C 623.308,222.439 623.308,223.772 619.5,225.5C 619.094,224.443 619.094,223.109 619.5,221.5 Z"/></g>
<g><path style="opacity:1" fill="#5085bc" d="M 354.5,216.5 C 354.389,217.117 354.056,217.617 353.5,218C 354.924,220.101 356.258,222.267 357.5,224.5C 360.134,223.484 362.8,223.484 365.5,224.5C 365.5,225.167 365.5,225.833 365.5,226.5C 361.065,224.795 357.065,225.461 353.5,228.5C 355.302,224.303 354.635,220.636 351.5,217.5C 352.391,216.89 353.391,216.557 354.5,216.5 Z"/></g>
<g><path style="opacity:1" fill="#fff7ed" d="M 634.5,224.5 C 639.197,225.874 639.531,227.874 635.5,230.5C 632.025,228.916 631.692,226.916 634.5,224.5 Z"/></g>
<g><path style="opacity:1" fill="#e7eff6" d="M 380.5,230.5 C 380.443,229.391 380.11,228.391 379.5,227.5C 382.321,224.74 381.987,222.24 378.5,220C 375.393,221.016 372.06,221.516 368.5,221.5C 367.68,225.222 369.013,227.555 372.5,228.5C 372.5,229.167 372.167,229.5 371.5,229.5C 370.5,229.5 369.5,229.5 368.5,229.5C 368.296,232.518 367.963,235.518 367.5,238.5C 365.821,238.715 364.821,238.048 364.5,236.5C 367.928,231.583 366.594,228.916 360.5,228.5C 358.9,228.551 357.4,228.884 356,229.5C 355.333,231.5 355.333,233.5 356,235.5C 356.383,236.056 356.883,236.389 357.5,236.5C 357.179,238.048 356.179,238.715 354.5,238.5C 353.793,235.214 353.46,231.881 353.5,228.5C 357.065,225.461 361.065,224.795 365.5,226.5C 366.378,223.572 367.711,220.738 369.5,218C 377.246,214.867 381.579,217.367 382.5,225.5C 382.444,227.64 381.777,229.306 380.5,230.5 Z"/></g>
<g><path style="opacity:1" fill="#0b579c" d="M 379.5,227.5 C 377.283,228.369 374.95,228.702 372.5,228.5C 369.013,227.555 367.68,225.222 368.5,221.5C 372.06,221.516 375.393,221.016 378.5,220C 381.987,222.24 382.321,224.74 379.5,227.5 Z"/></g>
<g><path style="opacity:1" fill="#fef9f2" d="M 623.5,224.5 C 628.197,225.874 628.531,227.874 624.5,230.5C 621.025,228.916 620.692,226.916 623.5,224.5 Z"/></g>
<g><path style="opacity:1" fill="#b40c34" d="M 730.5,246.5 C 730.672,247.492 730.338,248.158 729.5,248.5C 729.666,241.159 729.5,233.826 729,226.5C 727.788,233.427 724.621,239.26 719.5,244C 706.579,252.989 693.246,253.656 679.5,246C 674.128,242.867 670.795,238.7 669.5,233.5C 671.404,233.262 672.738,232.262 673.5,230.5C 671.938,230.733 670.605,231.4 669.5,232.5C 666.183,227.211 665.683,221.544 668,215.5C 675.96,200.437 688.46,194.271 705.5,197C 718.477,200.309 726.311,208.476 729,221.5C 729.333,215.833 729.667,210.167 730,204.5C 730.5,218.496 730.667,232.496 730.5,246.5 Z"/></g>
<g><path style="opacity:1" fill="#f5d8e0" d="M 677.5,224.5 C 677.833,224.5 678.167,224.5 678.5,224.5C 677.581,227.089 675.914,229.089 673.5,230.5C 674.415,228.246 675.748,226.246 677.5,224.5 Z"/></g>
<g><path style="opacity:1" fill="#d67788" d="M 717.5,222.5 C 717.5,221.833 717.833,221.5 718.5,221.5C 721.542,222.681 724.542,224.015 727.5,225.5C 727.167,225.833 726.833,226.167 726.5,226.5C 723.33,225.412 720.33,224.079 717.5,222.5 Z"/></g>
<g><path style="opacity:1" fill="#e896a4" d="M 709.5,223.5 C 707.983,223.511 706.816,224.177 706,225.5C 705.383,224.551 705.549,223.718 706.5,223C 704.833,222.667 703.167,222.333 701.5,222C 703.066,221.392 704.4,220.558 705.5,219.5C 705.328,218.508 705.662,217.842 706.5,217.5C 706.435,217.938 706.601,218.272 707,218.5C 708.878,216.302 711.045,216.136 713.5,218C 708.05,217.564 706.717,219.398 709.5,223.5 Z"/></g>
<g><path style="opacity:1" fill="#eba7b2" d="M 682.5,219.5 C 683.167,219.5 683.833,219.5 684.5,219.5C 685.5,219.5 686.5,219.5 687.5,219.5C 688.376,219.369 689.043,219.702 689.5,220.5C 686.451,221.845 683.451,223.178 680.5,224.5C 679.833,224.5 679.167,224.5 678.5,224.5C 679.124,222.246 680.457,220.579 682.5,219.5 Z"/></g>
<g><path style="opacity:1" fill="#fbebef" d="M 696.5,220.5 C 696.5,221.833 696.5,223.167 696.5,224.5C 699.718,224.349 700.051,223.516 697.5,222C 698.737,221.768 699.737,221.268 700.5,220.5C 700.628,218.91 701.295,217.577 702.5,216.5C 703.288,217.77 704.288,218.77 705.5,219.5C 704.4,220.558 703.066,221.392 701.5,222C 703.167,222.333 704.833,222.667 706.5,223C 705.549,223.718 705.383,224.551 706,225.5C 706.816,224.177 707.983,223.511 709.5,223.5C 711.915,227.422 714.915,230.922 718.5,234C 714.524,232.373 711.357,229.54 709,225.5C 708.308,226.025 707.808,226.692 707.5,227.5C 708.889,229.868 710.222,232.201 711.5,234.5C 708.954,232.436 706.621,230.103 704.5,227.5C 702.495,230.028 700.829,229.695 699.5,226.5C 697.952,228.922 696.286,228.922 694.5,226.5C 691.965,228.85 688.965,230.35 685.5,231C 684.177,231.816 683.511,232.983 683.5,234.5C 682.086,236.811 680.253,238.811 678,240.5C 677.833,240.167 677.667,239.833 677.5,239.5C 680.687,236.959 683.02,233.793 684.5,230C 681.785,229.125 680.452,227.292 680.5,224.5C 683.451,223.178 686.451,221.845 689.5,220.5C 689.043,219.702 688.376,219.369 687.5,219.5C 686.74,217.015 685.74,217.015 684.5,219.5C 683.833,219.5 683.167,219.5 682.5,219.5C 683.657,217.862 684.824,216.196 686,214.5C 687.353,215.685 688.52,217.019 689.5,218.5C 690.086,218.291 690.586,217.957 691,217.5C 692.333,218.833 693.667,220.167 695,221.5C 695.383,220.944 695.883,220.611 696.5,220.5 Z"/></g>
<g><path style="opacity:1" fill="#e796a8" d="M 697.5,217.5 C 697.56,216.957 697.893,216.624 698.5,216.5C 699.172,217.949 699.839,219.282 700.5,220.5C 699.737,221.268 698.737,221.768 697.5,222C 700.051,223.516 699.718,224.349 696.5,224.5C 696.5,223.167 696.5,221.833 696.5,220.5C 698.552,219.947 698.885,218.947 697.5,217.5 Z"/></g>
<g><path style="opacity:1" fill="#e9b5bd" d="M 720.5,218.5 C 720.5,218.167 720.5,217.833 720.5,217.5C 722.255,218.072 723.922,218.906 725.5,220C 723.505,220.613 721.838,220.113 720.5,218.5 Z"/></g>
<g><path style="opacity:1" fill="#fbf0f2" d="M 716.5,218.5 C 717.167,219.5 717.833,220.5 718.5,221.5C 717.833,221.5 717.5,221.833 717.5,222.5C 714.904,223.265 712.237,223.599 709.5,223.5C 706.717,219.398 708.05,217.564 713.5,218C 711.045,216.136 708.878,216.302 707,218.5C 706.601,218.272 706.435,217.938 706.5,217.5C 706.962,216.12 707.962,215.453 709.5,215.5C 712.138,215.93 714.471,216.93 716.5,218.5 Z"/></g>
<g><path style="opacity:1" fill="#c0123c" d="M 720.5,217.5 C 720.5,217.833 720.5,218.167 720.5,218.5C 719.039,217.314 717.705,217.314 716.5,218.5C 714.471,216.93 712.138,215.93 709.5,215.5C 707.962,215.453 706.962,216.12 706.5,217.5C 705.662,217.842 705.328,218.508 705.5,219.5C 704.288,218.77 703.288,217.77 702.5,216.5C 701.295,217.577 700.628,218.91 700.5,220.5C 699.839,219.282 699.172,217.949 698.5,216.5C 697.893,216.624 697.56,216.957 697.5,217.5C 697.443,218.609 697.11,219.609 696.5,220.5C 695.883,220.611 695.383,220.944 695,221.5C 693.667,220.167 692.333,218.833 691,217.5C 690.586,217.957 690.086,218.291 689.5,218.5C 688.52,217.019 687.353,215.685 686,214.5C 684.824,216.196 683.657,217.862 682.5,219.5C 680.457,220.579 679.124,222.246 678.5,224.5C 678.167,224.5 677.833,224.5 677.5,224.5C 676.596,224.465 675.93,223.965 675.5,223C 679.216,208.466 688.55,202.466 703.5,205C 710.736,207.074 716.402,211.241 720.5,217.5 Z"/></g>
<g><path style="opacity:1" fill="#f9e6ea" d="M 697.5,217.5 C 698.885,218.947 698.552,219.947 696.5,220.5C 697.11,219.609 697.443,218.609 697.5,217.5 Z"/></g>
<g><path style="opacity:1" fill="#c02937" d="M 687.5,219.5 C 686.5,219.5 685.5,219.5 684.5,219.5C 685.74,217.015 686.74,217.015 687.5,219.5 Z"/></g>
<g><path style="opacity:0.905" fill="#088935" d="M 529.5,201.5 C 529.5,216.167 529.5,230.833 529.5,245.5C 527.628,248.529 524.961,250.695 521.5,252C 504.167,252.667 486.833,252.667 469.5,252C 466.424,250.757 463.757,248.923 461.5,246.5C 461.5,231.167 461.5,215.833 461.5,200.5C 463.046,197.8 465.379,195.967 468.5,195C 486.5,194.333 504.5,194.333 522.5,195C 525.358,196.694 527.691,198.861 529.5,201.5 Z"/></g>
<g><path style="opacity:1" fill="#f0f8f2" d="M 501.5,245.5 C 504.252,245.422 506.918,245.255 509.5,245C 506.663,247.382 503.33,248.549 499.5,248.5C 495.537,247.624 491.537,246.957 487.5,246.5C 485.571,246.54 483.738,246.873 482,247.5C 481.833,247.167 481.667,246.833 481.5,246.5C 482.901,245.479 484.235,244.479 485.5,243.5C 487.5,243.5 489.5,243.5 491.5,243.5C 492.124,238.338 492.791,233.171 493.5,228C 493.518,225.621 492.851,223.454 491.5,221.5C 491.938,220.494 492.604,220.494 493.5,221.5C 494.363,210.901 495.53,210.901 497,221.5C 498.113,219.671 499.613,218.837 501.5,219C 498.534,221.265 497.201,224.265 497.5,228C 498.06,233.161 498.56,238.327 499,243.5C 499.417,244.756 500.25,245.423 501.5,245.5 Z"/></g>
<g><path style="opacity:1" fill="#eef7f0" d="M 511.5,206.5 C 509.543,212.664 505.21,215.664 498.5,215.5C 498.629,213.784 498.962,212.117 499.5,210.5C 502.073,207.265 505.407,205.265 509.5,204.5C 510.713,204.747 511.38,205.414 511.5,206.5 Z"/></g>
<g><path style="opacity:1" fill="#f1f9f3" d="M 482.5,204.5 C 488.039,206.043 491.039,209.71 491.5,215.5C 486.525,215.847 482.858,213.847 480.5,209.5C 479.962,207.883 479.629,206.216 479.5,204.5C 480.5,204.5 481.5,204.5 482.5,204.5 Z"/></g>
<g><path style="opacity:1" fill="#139437" d="M 492.5,202.5 C 492.016,205.798 493.016,208.464 495.5,210.5C 496.182,209.757 496.849,209.091 497.5,208.5C 498.5,208.833 499.167,209.5 499.5,210.5C 498.962,212.117 498.629,213.784 498.5,215.5C 505.21,215.664 509.543,212.664 511.5,206.5C 516.601,207.804 519.767,211.47 521,217.5C 523.088,233.03 516.588,242.364 501.5,245.5C 500.25,245.423 499.417,244.756 499,243.5C 498.56,238.327 498.06,233.161 497.5,228C 497.201,224.265 498.534,221.265 501.5,219C 499.613,218.837 498.113,219.671 497,221.5C 495.53,210.901 494.363,210.901 493.5,221.5C 492.604,220.494 491.938,220.494 491.5,221.5C 492.851,223.454 493.518,225.621 493.5,228C 492.791,233.171 492.124,238.338 491.5,243.5C 489.5,243.5 487.5,243.5 485.5,243.5C 484.07,243.421 482.736,243.754 481.5,244.5C 466.259,232.994 464.759,219.994 477,205.5C 477.74,207.319 478.907,208.652 480.5,209.5C 482.858,213.847 486.525,215.847 491.5,215.5C 491.039,209.71 488.039,206.043 482.5,204.5C 483.738,204.19 483.738,203.69 482.5,203C 485.618,201.628 488.784,200.462 492,199.5C 492.483,200.448 492.649,201.448 492.5,202.5 Z"/></g>
<g><path style="opacity:1" fill="#f0f8f2" d="M 500.5,221.5 C 507.093,221.746 511.426,225.079 513.5,231.5C 505.785,232.791 501.452,229.457 500.5,221.5 Z"/></g>
<g><path style="opacity:1" fill="#f2f9f3" d="M 485.5,221.5 C 490.392,220.876 491.558,222.542 489,226.5C 486.021,230.583 482.188,232.25 477.5,231.5C 478.388,226.624 481.055,223.291 485.5,221.5 Z"/></g>
<g><path style="opacity:1" fill="#f2f9f4" d="M 508.5,214.5 C 518.788,214.625 518.954,216.291 509,219.5C 503.526,218.739 503.359,217.073 508.5,214.5 Z"/></g>
<g><path style="opacity:1" fill="#ebf6ee" d="M 473.5,214.5 C 476.518,214.335 479.518,214.502 482.5,215C 485.689,215.981 486.022,217.314 483.5,219C 478.987,219.907 475.654,218.407 473.5,214.5 Z"/></g>
<g><path style="opacity:1" fill="#f5faf7" d="M 497.5,208.5 C 496.849,209.091 496.182,209.757 495.5,210.5C 493.016,208.464 492.016,205.798 492.5,202.5C 493.626,199.473 495.126,199.14 497,201.5C 497.497,203.81 497.663,206.143 497.5,208.5 Z"/></g>
<g><path style="opacity:1" fill="#8bafd1" d="M 341.5,227.5 C 344.764,228.324 348.098,228.658 351.5,228.5C 351.167,229.167 350.833,229.833 350.5,230.5C 348.167,231.833 345.833,231.833 343.5,230.5C 342.833,229.5 342.167,228.5 341.5,227.5 Z"/></g>
<g><path style="opacity:1" fill="#0e5ca2" d="M 364.5,236.5 C 362.167,237.833 359.833,237.833 357.5,236.5C 356.883,236.389 356.383,236.056 356,235.5C 355.333,233.5 355.333,231.5 356,229.5C 357.4,228.884 358.9,228.551 360.5,228.5C 366.594,228.916 367.928,231.583 364.5,236.5 Z"/></g>
<g><path style="opacity:1" fill="#feebd7" d="M 617.5,229.5 C 619.681,229.284 621.347,230.117 622.5,232C 620.171,232.396 618.505,231.562 617.5,229.5 Z"/></g>
<g><path style="opacity:1" fill="#fff7ee" d="M 629.5,228.5 C 634.17,230.555 634.337,232.555 630,234.5C 628.566,234.07 627.399,233.236 626.5,232C 627.71,230.961 628.71,229.794 629.5,228.5 Z"/></g>
<g><path style="opacity:1" fill="#fff0e1" d="M 639.5,228.5 C 641.256,229.552 641.923,231.219 641.5,233.5C 637.167,233.175 636.5,231.508 639.5,228.5 Z"/></g>
<g><path style="opacity:1" fill="#fafcfd" d="M 343.5,230.5 C 345.833,231.833 348.167,231.833 350.5,230.5C 351.913,233.219 352.58,236.219 352.5,239.5C 347.167,239.5 341.833,239.5 336.5,239.5C 336.5,237.5 336.5,235.5 336.5,233.5C 338.213,231.15 340.547,230.15 343.5,230.5 Z"/></g>
<g><path style="opacity:1" fill="#81a9cd" d="M 379.5,227.5 C 380.11,228.391 380.443,229.391 380.5,230.5C 380.167,230.5 379.833,230.5 379.5,230.5C 376.693,231.657 374.026,231.657 371.5,230.5C 371.5,230.167 371.5,229.833 371.5,229.5C 372.167,229.5 372.5,229.167 372.5,228.5C 374.95,228.702 377.283,228.369 379.5,227.5 Z"/></g>
<g><path style="opacity:1" fill="#f9fbfc" d="M 371.5,230.5 C 374.026,231.657 376.693,231.657 379.5,230.5C 379.756,232.792 379.423,234.959 378.5,237C 382.786,238.049 384.286,236.549 383,232.5C 383.383,233.056 383.883,233.389 384.5,233.5C 384.5,233.833 384.5,234.167 384.5,234.5C 384.5,236.167 384.5,237.833 384.5,239.5C 379.167,239.5 373.833,239.5 368.5,239.5C 368.557,235.971 369.557,232.971 371.5,230.5 Z"/></g>
<g><path style="opacity:0.948" fill="#0188c9" d="M 461.5,200.5 C 461.5,215.833 461.5,231.167 461.5,246.5C 459.996,248.836 457.996,250.669 455.5,252C 437.5,252.667 419.5,252.667 401.5,252C 398.402,251.062 396.069,249.228 394.5,246.5C 394.5,231.167 394.5,215.833 394.5,200.5C 396.401,198.204 398.734,196.371 401.5,195C 419.167,194.333 436.833,194.333 454.5,195C 457.621,195.967 459.954,197.8 461.5,200.5 Z"/></g>
<g><path style="opacity:1" fill="#f7fbfd" d="M 450.5,219.5 C 453.789,221.397 454.789,224.063 453.5,227.5C 450.827,228.703 448.16,228.703 445.5,227.5C 444.707,228.355 445.04,229.189 446.5,230C 440.632,231.959 434.632,232.625 428.5,232C 428.957,231.586 429.291,231.086 429.5,230.5C 425.846,229.118 422.346,227.451 419,225.5C 415.575,226.982 412.075,227.816 408.5,228C 412.301,224.624 412.301,221.124 408.5,217.5C 408.833,217.167 409.167,216.833 409.5,216.5C 412.445,218.556 415.612,220.223 419,221.5C 422.292,219.438 425.792,217.771 429.5,216.5C 429.291,215.914 428.957,215.414 428.5,215C 436.321,214.247 443.654,215.747 450.5,219.5 Z"/></g>
<g><path style="opacity:1" fill="#37a3e2" d="M 439.5,218.5 C 439.571,221.375 439.738,224.375 440,227.5C 436.878,224.644 436.711,221.644 439.5,218.5 Z"/></g>
<g><path style="opacity:1" fill="#1394d7" d="M 450.5,219.5 C 443.654,215.747 436.321,214.247 428.5,215C 428.957,215.414 429.291,215.914 429.5,216.5C 425.792,217.771 422.292,219.438 419,221.5C 415.612,220.223 412.445,218.556 409.5,216.5C 409.167,216.833 408.833,217.167 408.5,217.5C 412.301,221.124 412.301,224.624 408.5,228C 412.075,227.816 415.575,226.982 419,225.5C 422.346,227.451 425.846,229.118 429.5,230.5C 429.291,231.086 428.957,231.586 428.5,232C 434.632,232.625 440.632,231.959 446.5,230C 445.04,229.189 444.707,228.355 445.5,227.5C 448.16,228.703 450.827,228.703 453.5,227.5C 453.435,227.938 453.601,228.272 454,228.5C 454.915,227.672 455.581,226.672 456,225.5C 454.185,237.325 447.352,244.825 435.5,248C 430.5,248.667 425.5,248.667 420.5,248C 416.195,246.992 412.862,245.492 410.5,243.5C 416.049,242.229 421.549,242.896 427,245.5C 430.882,244.904 434.716,244.071 438.5,243C 441.15,240.918 440.816,239.251 437.5,238C 429.819,234.318 422.486,234.818 415.5,239.5C 413.289,238.877 411.289,237.877 409.5,236.5C 408.893,236.624 408.56,236.957 408.5,237.5C 405.8,235.954 403.967,233.621 403,230.5C 402.161,225.079 402.494,219.746 404,214.5C 404.903,213.299 406.069,212.465 407.5,212C 406.906,211.536 406.239,211.369 405.5,211.5C 407.288,210.378 409.288,210.211 411.5,211C 413.131,212.797 415.131,213.964 417.5,214.5C 420.912,213.98 424.245,213.147 427.5,212C 430.192,209.368 429.859,207.034 426.5,205C 422.654,203.464 418.654,202.631 414.5,202.5C 425.109,196.601 436.109,197.435 447.5,205C 453.618,209.697 456.451,215.863 456,223.5C 454.954,221.91 453.787,220.41 452.5,219C 451.563,218.308 450.897,218.475 450.5,219.5 Z"/></g>
<g><path style="opacity:1" fill="#f0f8fc" d="M 414.5,202.5 C 418.654,202.631 422.654,203.464 426.5,205C 429.859,207.034 430.192,209.368 427.5,212C 424.245,213.147 420.912,213.98 417.5,214.5C 415.131,213.964 413.131,212.797 411.5,211C 409.288,210.211 407.288,210.378 405.5,211.5C 403.43,211.417 403.097,210.417 404.5,208.5C 404.278,206.945 403.611,205.611 402.5,204.5C 402.833,204.167 403.167,203.833 403.5,203.5C 407.717,207.631 411.384,207.297 414.5,202.5 Z"/></g>
<g><path style="opacity:1" fill="#64c0e9" d="M 420.5,205.5 C 421.613,206.946 421.78,208.613 421,210.5C 419.212,208.977 419.045,207.31 420.5,205.5 Z"/></g>
<g><path style="opacity:1" fill="#feeddf" d="M 612.5,231.5 C 611.365,233.213 609.698,233.88 607.5,233.5C 606.624,233.631 605.957,233.298 605.5,232.5C 607.484,230.239 609.817,229.906 612.5,231.5 Z"/></g>
<g><path style="opacity:1" fill="#f4dadf" d="M 673.5,230.5 C 672.738,232.262 671.404,233.262 669.5,233.5C 669.5,233.167 669.5,232.833 669.5,232.5C 670.605,231.4 671.938,230.733 673.5,230.5 Z"/></g>
<g><path style="opacity:1" fill="#f9ba7c" d="M 615.5,232.5 C 614.07,233.537 612.403,234.204 610.5,234.5C 609.209,234.737 608.209,234.404 607.5,233.5C 609.698,233.88 611.365,233.213 612.5,231.5C 612.833,230.833 613.167,230.167 613.5,229.5C 614.117,229.389 614.617,229.056 615,228.5C 614.669,230.019 614.836,231.352 615.5,232.5 Z"/></g>
<g><path style="opacity:1" fill="#fff8f3" d="M 615.5,232.5 C 618.879,232.515 621.879,233.515 624.5,235.5C 625.219,237.764 625.552,240.097 625.5,242.5C 622.463,247.255 618.129,248.755 612.5,247C 608.911,245.326 607.245,242.493 607.5,238.5C 608.488,237.205 609.488,235.872 610.5,234.5C 612.403,234.204 614.07,233.537 615.5,232.5 Z"/></g>
<g><path style="opacity:1" fill="#feedde" d="M 651.5,226.5 C 654.917,228.891 656.25,232.225 655.5,236.5C 654.557,239.4 652.89,241.733 650.5,243.5C 650.5,242.833 650.5,242.167 650.5,241.5C 654.134,238.095 654.967,234.095 653,229.5C 652.637,232.544 652.137,235.544 651.5,238.5C 650.604,237.494 649.938,237.494 649.5,238.5C 647.445,240.555 645.112,242.221 642.5,243.5C 640.435,243.953 638.768,244.953 637.5,246.5C 638.659,247.513 640.659,247.847 643.5,247.5C 640.696,248.638 637.696,248.805 634.5,248C 633.316,246.855 633.316,245.688 634.5,244.5C 638.522,243.657 642.188,241.99 645.5,239.5C 643.704,239.269 641.871,239.935 640,241.5C 639.833,241.167 639.667,240.833 639.5,240.5C 641.387,238.96 643.22,237.293 645,235.5C 645.667,234.833 645.667,234.167 645,233.5C 641.469,237.623 636.969,239.29 631.5,238.5C 629.952,238.179 629.285,237.179 629.5,235.5C 631.821,235.771 633.821,235.104 635.5,233.5C 636.468,234.489 637.635,235.156 639,235.5C 644.671,233.71 647.171,230.044 646.5,224.5C 647.85,225.95 649.516,226.617 651.5,226.5 Z"/></g>
<g><path style="opacity:1" fill="#c0093a" d="M 711.5,234.5 C 711.733,236.062 712.4,237.395 713.5,238.5C 704.437,243.77 695.103,244.27 685.5,240C 684.643,239.311 683.977,238.478 683.5,237.5C 684.653,236.313 684.653,235.313 683.5,234.5C 683.511,232.983 684.177,231.816 685.5,231C 688.965,230.35 691.965,228.85 694.5,226.5C 696.286,228.922 697.952,228.922 699.5,226.5C 700.829,229.695 702.495,230.028 704.5,227.5C 706.621,230.103 708.954,232.436 711.5,234.5 Z"/></g>
<g><path style="opacity:1" fill="#f0f8fc" d="M 410.5,243.5 C 409.761,243.631 409.094,243.464 408.5,243C 411.018,241.19 411.018,239.357 408.5,237.5C 408.56,236.957 408.893,236.624 409.5,236.5C 411.289,237.877 413.289,238.877 415.5,239.5C 422.486,234.818 429.819,234.318 437.5,238C 440.816,239.251 441.15,240.918 438.5,243C 434.716,244.071 430.882,244.904 427,245.5C 421.549,242.896 416.049,242.229 410.5,243.5 Z"/></g>
<g><path style="opacity:1" fill="#fdeedc" d="M 624.5,235.5 C 624.369,234.761 624.536,234.094 625,233.5C 626.678,234.466 627.345,235.799 627,237.5C 626.292,236.619 625.458,235.953 624.5,235.5 Z"/></g>
<g><path style="opacity:1" fill="#f2873c" d="M 650.5,241.5 C 650.557,240.391 650.89,239.391 651.5,238.5C 652.137,235.544 652.637,232.544 653,229.5C 654.967,234.095 654.134,238.095 650.5,241.5 Z"/></g>
<g><path style="opacity:1" fill="#f7dce3" d="M 711.5,234.5 C 712.962,235.458 714.295,236.624 715.5,238C 714.906,238.464 714.239,238.631 713.5,238.5C 712.4,237.395 711.733,236.062 711.5,234.5 Z"/></g>
<g><path style="opacity:1" fill="#8d1b74" d="M 751.5,224.5 C 762.042,223.539 766.542,228.206 765,238.5C 758.953,244.728 752.62,245.062 746,239.5C 744.543,236.634 744.21,233.634 745,230.5C 747.063,228.266 749.229,226.266 751.5,224.5 Z"/></g>
<g><path style="opacity:1" fill="#f5e9f3" d="M 752.5,227.5 C 761.055,227.526 763.721,231.359 760.5,239C 752.965,242.599 748.799,240.433 748,232.5C 749.025,230.313 750.525,228.646 752.5,227.5 Z"/></g>
<g><path style="opacity:1" fill="#901e77" d="M 752.5,229.5 C 757.835,229.005 760.335,231.338 760,236.5C 755.301,240.824 751.801,239.99 749.5,234C 750.315,232.357 751.315,230.857 752.5,229.5 Z"/></g>
<g><path style="opacity:1" fill="#f7eff6" d="M 753.5,233.5 C 754.675,233.281 755.675,233.614 756.5,234.5C 754.948,235.798 753.948,235.465 753.5,233.5 Z"/></g>
<g><path style="opacity:1" fill="#f1f5f9" d="M 354.5,248.5 C 353.167,248.5 351.833,248.5 350.5,248.5C 350.298,246.05 350.631,243.717 351.5,241.5C 352.458,241.047 353.292,240.381 354,239.5C 354.498,242.482 354.665,245.482 354.5,248.5 Z"/></g>
<g><path style="opacity:1" fill="#f1f5f9" d="M 368.5,239.5 C 368.833,240.5 369.5,241.167 370.5,241.5C 371.369,243.717 371.702,246.05 371.5,248.5C 366.167,248.5 360.833,248.5 355.5,248.5C 356.928,245.697 357.595,242.697 357.5,239.5C 359.833,239.5 362.167,239.5 364.5,239.5C 365.515,248.498 366.849,248.498 368.5,239.5 Z"/></g>
<g><path style="opacity:1" fill="#5c8fb9" d="M 384.5,234.5 C 385.461,236.265 385.795,238.265 385.5,240.5C 380.305,240.179 375.305,240.513 370.5,241.5C 369.5,241.167 368.833,240.5 368.5,239.5C 373.833,239.5 379.167,239.5 384.5,239.5C 384.5,237.833 384.5,236.167 384.5,234.5 Z"/></g>
<g><path style="opacity:1" fill="#5fb4e4" d="M 429.5,238.5 C 430.703,239.943 431.203,241.609 431,243.5C 428.676,242.225 428.176,240.558 429.5,238.5 Z"/></g>
<g><path style="opacity:1" fill="#f9c08b" d="M 634.5,244.5 C 634.611,243.883 634.944,243.383 635.5,243C 634.167,242.667 632.833,242.333 631.5,242C 633.5,241.333 635.5,240.667 637.5,240C 635.455,239.51 633.455,239.677 631.5,240.5C 631.5,239.833 631.5,239.167 631.5,238.5C 636.969,239.29 641.469,237.623 645,233.5C 645.667,234.167 645.667,234.833 645,235.5C 643.22,237.293 641.387,238.96 639.5,240.5C 639.667,240.833 639.833,241.167 640,241.5C 641.871,239.935 643.704,239.269 645.5,239.5C 642.188,241.99 638.522,243.657 634.5,244.5 Z"/></g>
<g><path style="opacity:1" fill="#feeddd" d="M 634.5,244.5 C 631.392,244.625 629.392,243.292 628.5,240.5C 629.5,240.5 630.5,240.5 631.5,240.5C 633.455,239.677 635.455,239.51 637.5,240C 635.5,240.667 633.5,241.333 631.5,242C 632.833,242.333 634.167,242.667 635.5,243C 634.944,243.383 634.611,243.883 634.5,244.5 Z"/></g>
<g><path style="opacity:1" fill="#f28b3f" d="M 649.5,238.5 C 648.348,242.379 646.015,244.046 642.5,243.5C 645.112,242.221 647.445,240.555 649.5,238.5 Z"/></g>
<g><path style="opacity:1" fill="#5481b4" d="M 351.5,228.5 C 352.167,228.5 352.833,228.5 353.5,228.5C 353.46,231.881 353.793,235.214 354.5,238.5C 356.179,238.715 357.179,238.048 357.5,236.5C 359.833,237.833 362.167,237.833 364.5,236.5C 364.821,238.048 365.821,238.715 367.5,238.5C 367.963,235.518 368.296,232.518 368.5,229.5C 369.5,229.5 370.5,229.5 371.5,229.5C 371.5,229.833 371.5,230.167 371.5,230.5C 369.557,232.971 368.557,235.971 368.5,239.5C 366.849,248.498 365.515,248.498 364.5,239.5C 362.167,239.5 359.833,239.5 357.5,239.5C 357.595,242.697 356.928,245.697 355.5,248.5C 355.167,248.5 354.833,248.5 354.5,248.5C 354.665,245.482 354.498,242.482 354,239.5C 353.292,240.381 352.458,241.047 351.5,241.5C 346.5,240.833 341.5,240.167 336.5,239.5C 341.833,239.5 347.167,239.5 352.5,239.5C 352.58,236.219 351.913,233.219 350.5,230.5C 350.833,229.833 351.167,229.167 351.5,228.5 Z"/></g>
<g><path style="opacity:1" fill="#fcd6bb" d="M 651.5,238.5 C 650.89,239.391 650.557,240.391 650.5,241.5C 646.897,244.926 642.563,246.592 637.5,246.5C 638.768,244.953 640.435,243.953 642.5,243.5C 646.015,244.046 648.348,242.379 649.5,238.5C 649.938,237.494 650.604,237.494 651.5,238.5 Z"/></g>
<g><path style="opacity:1" fill="#f08030" d="M 618.5,241.5 C 620.026,242.105 621.026,243.271 621.5,245C 618.721,245.07 617.721,243.903 618.5,241.5 Z"/></g>
<g><path style="opacity:1" fill="#fbb58b" d="M 650.5,241.5 C 650.5,242.167 650.5,242.833 650.5,243.5C 648.948,246.112 646.614,247.445 643.5,247.5C 640.659,247.847 638.659,247.513 637.5,246.5C 642.563,246.592 646.897,244.926 650.5,241.5 Z"/></g>
<g><path style="opacity:0.935" fill="#143b6d" d="M 503.5,260.5 C 504.043,260.56 504.376,260.893 504.5,261.5C 503.678,281.457 503.178,301.457 503,321.5C 491,310.833 479,300.167 467,289.5C 466.5,299.494 466.334,309.494 466.5,319.5C 461.808,320.036 457.142,320.702 452.5,321.5C 452.167,321.167 451.833,320.833 451.5,320.5C 452.155,300.868 452.822,281.201 453.5,261.5C 465.481,271.647 477.315,281.98 489,292.5C 489.5,282.506 489.666,272.506 489.5,262.5C 494.353,262.187 499.02,261.521 503.5,260.5 Z"/></g>
<g><path style="opacity:0.917" fill="#143b6d" d="M 337.5,261.5 C 345.704,260.462 353.371,261.962 360.5,266C 361.687,267.019 362.687,268.186 363.5,269.5C 360.833,272.5 358.167,275.5 355.5,278.5C 352.2,276.017 348.533,274.35 344.5,273.5C 338.122,273.984 336.456,276.817 339.5,282C 348.194,283.596 355.694,287.43 362,293.5C 367.312,310.727 360.812,320.06 342.5,321.5C 334.035,321.1 327.035,317.766 321.5,311.5C 324.489,308.345 327.656,305.345 331,302.5C 336.295,308.99 342.295,309.99 349,305.5C 349.743,303.559 349.576,301.726 348.5,300C 342.085,297.528 335.752,294.862 329.5,292C 321.262,284.654 320.429,276.488 327,267.5C 330.351,265.079 333.851,263.079 337.5,261.5 Z"/></g>
<g><path style="opacity:0.923" fill="#143b6d" d="M 376.5,261.5 C 379.5,261.5 382.5,261.5 385.5,261.5C 385.5,268.833 385.5,276.167 385.5,283.5C 393.167,283.5 400.833,283.5 408.5,283.5C 408.5,276.5 408.5,269.5 408.5,262.5C 413.141,261.873 417.807,261.54 422.5,261.5C 422.5,280.833 422.5,300.167 422.5,319.5C 417.859,320.127 413.193,320.46 408.5,320.5C 408.5,312.5 408.5,304.5 408.5,296.5C 400.833,296.5 393.167,296.5 385.5,296.5C 385.5,304.167 385.5,311.833 385.5,319.5C 380.859,320.127 376.193,320.46 371.5,320.5C 371.5,301.167 371.5,281.833 371.5,262.5C 373.415,262.784 375.081,262.451 376.5,261.5 Z"/></g>
<g><path style="opacity:0.926" fill="#143b6d" d="M 435.5,261.5 C 438.5,261.5 441.5,261.5 444.5,261.5C 444.5,280.833 444.5,300.167 444.5,319.5C 439.859,320.127 435.193,320.46 430.5,320.5C 430.5,301.167 430.5,281.833 430.5,262.5C 432.415,262.784 434.081,262.451 435.5,261.5 Z"/></g>
<g><path style="opacity:0.916" fill="#143b6d" d="M 537.5,261.5 C 538.496,261.414 539.329,261.748 540,262.5C 550.581,281.33 561.414,299.997 572.5,318.5C 567.616,320.209 562.616,320.709 557.5,320C 554.914,316.164 552.581,312.164 550.5,308C 542.507,307.5 534.507,307.334 526.5,307.5C 524.934,311.801 522.934,315.968 520.5,320C 515.384,320.709 510.384,320.209 505.5,318.5C 516.432,299.635 527.099,280.635 537.5,261.5 Z M 537.5,284.5 C 539.977,287.438 541.977,290.771 543.5,294.5C 540.216,295.657 536.882,295.824 533.5,295C 535.26,291.649 536.594,288.149 537.5,284.5 Z"/></g>
<g><path style="opacity:0.923" fill="#143b6d" d="M 579.5,261.5 C 582.5,261.5 585.5,261.5 588.5,261.5C 588.5,268.833 588.5,276.167 588.5,283.5C 596.167,283.5 603.833,283.5 611.5,283.5C 611.5,276.5 611.5,269.5 611.5,262.5C 616.141,261.873 620.807,261.54 625.5,261.5C 625.5,280.833 625.5,300.167 625.5,319.5C 620.859,320.127 616.193,320.46 611.5,320.5C 611.5,312.5 611.5,304.5 611.5,296.5C 603.833,296.5 596.167,296.5 588.5,296.5C 588.5,304.167 588.5,311.833 588.5,319.5C 583.859,320.127 579.193,320.46 574.5,320.5C 574.5,301.167 574.5,281.833 574.5,262.5C 576.415,262.784 578.081,262.451 579.5,261.5 Z"/></g>
<g><path style="opacity:0.923" fill="#143b6d" d="M 657.5,261.5 C 675.431,258.887 688.931,265.22 698,280.5C 702.677,298.861 696.177,311.695 678.5,319C 665.549,322.88 653.549,320.88 642.5,313C 631.313,302.403 629.147,290.236 636,276.5C 641.409,268.916 648.576,263.916 657.5,261.5 Z M 660.5,274.5 C 673.962,272.547 682.295,278.047 685.5,291C 681.994,304.43 673.327,309.764 659.5,307C 647.427,301.704 644.26,293.204 650,281.5C 652.998,278.262 656.498,275.929 660.5,274.5 Z"/></g>
<g><path style="opacity:0.917" fill="#143b6d" d="M 769.5,261.5 C 770.496,261.414 771.329,261.748 772,262.5C 782.081,280.331 792.414,297.998 803,315.5C 803.49,316.793 803.657,318.127 803.5,319.5C 798.851,320.295 794.184,320.461 789.5,320C 786.914,316.164 784.581,312.164 782.5,308C 774.833,307.333 767.167,307.333 759.5,308C 756.928,311.804 754.595,315.804 752.5,320C 747.384,320.709 742.384,320.209 737.5,318.5C 748.432,299.635 759.099,280.635 769.5,261.5 Z M 769.5,284.5 C 771.947,287.365 773.947,290.698 775.5,294.5C 772.216,295.657 768.882,295.824 765.5,295C 767.33,291.676 768.663,288.176 769.5,284.5 Z"/></g>
<g><path style="opacity:0.926" fill="#143b6d" d="M 703.5,262.5 C 718.167,262.5 732.833,262.5 747.5,262.5C 747.5,266.5 747.5,270.5 747.5,274.5C 742.167,274.5 736.833,274.5 731.5,274.5C 731.5,289.5 731.5,304.5 731.5,319.5C 726.859,320.127 722.193,320.46 717.5,320.5C 717.5,305.167 717.5,289.833 717.5,274.5C 711.833,274.5 706.167,274.5 700.5,274.5C 701.188,270.416 702.188,266.416 703.5,262.5 Z"/></g>
<g><path style="opacity:0.694" fill="#008136" d="M 450.5,342.5 C 449.833,342.5 449.5,342.833 449.5,343.5C 447.844,344.146 446.177,344.813 444.5,345.5C 441.014,344.875 440.014,343.042 441.5,340C 432.818,339.448 429.318,343.615 431,352.5C 434.543,355.38 437.71,355.047 440.5,351.5C 439.833,350.833 439.167,350.167 438.5,349.5C 440.808,348.052 442.141,348.718 442.5,351.5C 440.537,356.482 436.871,358.315 431.5,357C 429.714,356.215 428.214,355.049 427,353.5C 426.078,349.299 426.578,345.299 428.5,341.5C 423.82,340.67 421.653,338.004 422,333.5C 422.689,332.643 423.522,331.977 424.5,331.5C 424.04,335.248 425.873,337.581 430,338.5C 435.728,331.881 442.894,329.048 451.5,330C 452.944,331.126 453.61,332.626 453.5,334.5C 453.036,337.417 452.036,340.084 450.5,342.5 Z M 444.5,331.5 C 448.241,330.599 450.241,331.932 450.5,335.5C 445.669,335.389 441.002,335.889 436.5,337C 439.07,334.913 441.737,333.08 444.5,331.5 Z M 448.5,336.5 C 449.131,339.549 447.798,341.882 444.5,343.5C 443.417,342.635 443.251,341.635 444,340.5C 445.667,339.267 447.167,337.933 448.5,336.5 Z"/></g>
<g><path style="opacity:0.667" fill="#008136" d="M 667.5,347.5 C 669.875,346.122 671.541,344.122 672.5,341.5C 673.72,341.887 674.387,342.72 674.5,344C 669.093,353.505 669.76,353.838 676.5,345C 679,343.833 681.5,342.667 684,341.5C 685.755,342.67 686.755,344.337 687,346.5C 688.74,345.284 689.74,343.618 690,341.5C 692.284,344.805 694.951,344.805 698,341.5C 699.158,341.998 699.991,342.831 700.5,344C 699.813,345.162 699.647,346.328 700,347.5C 701.171,345.384 702.671,344.718 704.5,345.5C 701.431,350.606 697.098,353.606 691.5,354.5C 691.698,352.425 691.865,350.425 692,348.5C 689.95,350.888 687.616,352.888 685,354.5C 684.5,354.167 684,353.833 683.5,353.5C 684.326,352.549 684.492,351.549 684,350.5C 681.105,354.053 677.605,355.387 673.5,354.5C 673.649,353.448 673.483,352.448 673,351.5C 670.263,355.693 667.43,356.027 664.5,352.5C 660.399,356.689 656.899,356.356 654,351.5C 651.6,355.164 648.766,355.831 645.5,353.5C 644.252,354.04 643.085,354.707 642,355.5C 639.667,352.833 637.333,352.833 635,355.5C 631.535,355.033 629.868,353.033 630,349.5C 627.877,352.299 625.21,354.299 622,355.5C 619.239,354.501 617.906,352.501 618,349.5C 615.877,352.299 613.21,354.299 610,355.5C 608.488,354.743 607.154,353.743 606,352.5C 603.123,355.487 600.123,355.821 597,353.5C 596.837,355.387 597.671,356.887 599.5,358C 603.97,361.28 608.803,362.446 614,361.5C 613.955,364.528 612.288,365.862 609,365.5C 597.676,363.169 591.676,356.169 591,344.5C 586.218,353.31 579.051,356.81 569.5,355C 564.167,351.333 564.167,347.667 569.5,344C 573.388,341.502 576.721,342.002 579.5,345.5C 576.054,344.864 572.72,345.531 569.5,347.5C 568.02,351.537 569.52,353.537 574,353.5C 580.96,351.217 586.126,346.717 589.5,340C 586.409,339.309 585.243,337.476 586,334.5C 590.662,329.98 596.162,328.48 602.5,330C 607.507,332.733 607.84,336.066 603.5,340C 600.852,342.05 597.852,343.216 594.5,343.5C 594.336,346.187 594.503,348.854 595,351.5C 597.091,346.407 600.758,343.074 606,341.5C 607.755,342.67 608.755,344.337 609,346.5C 610.617,345.149 611.784,343.482 612.5,341.5C 613.881,342 614.547,343 614.5,344.5C 613.311,347.043 611.978,349.543 610.5,352C 612.745,351.805 614.578,350.638 616,348.5C 614.947,345.482 615.947,343.148 619,341.5C 620.117,342.949 620.784,344.616 621,346.5C 623.393,344.45 626.059,342.783 629,341.5C 630.755,342.67 631.755,344.337 632,346.5C 634.354,339.297 639.188,335.297 646.5,334.5C 646.628,336.655 646.128,338.655 645,340.5C 641.965,343.87 638.632,346.87 635,349.5C 634.437,350.725 634.77,351.725 636,352.5C 641.093,350.409 644.426,346.742 646,341.5C 647.299,342.09 648.132,343.09 648.5,344.5C 647.612,346.155 647.112,347.822 647,349.5C 649.799,347.377 651.799,344.71 653,341.5C 656.291,344.398 655.958,347.065 652,349.5C 651.333,350.167 651.333,350.833 652,351.5C 655.666,345.748 660.833,342.081 667.5,340.5C 668.5,340.833 669.167,341.5 669.5,342.5C 668.687,343.814 667.687,344.981 666.5,346C 667.056,346.383 667.389,346.883 667.5,347.5 Z M 594.5,332.5 C 596.948,331.527 599.615,331.194 602.5,331.5C 602.654,337.741 599.654,340.907 593.5,341C 595.15,338.187 597.15,335.687 599.5,333.5C 597.955,332.548 596.288,332.215 594.5,332.5 Z M 594.5,332.5 C 593.099,335.315 591.099,336.648 588.5,336.5C 589.832,334.167 591.832,332.834 594.5,332.5 Z M 643.5,337.5 C 642.243,340.427 640.243,342.761 637.5,344.5C 638.757,341.573 640.757,339.239 643.5,337.5 Z M 604.5,344.5 C 606.379,344.393 606.712,344.893 605.5,346C 602.125,346.632 601.791,346.132 604.5,344.5 Z M 627.5,344.5 C 630.041,345.623 630.041,346.956 627.5,348.5C 626.374,347.192 626.374,345.858 627.5,344.5 Z M 667.5,347.5 C 665.439,349.711 662.939,351.377 660,352.5C 659.5,352.167 659,351.833 658.5,351.5C 659.443,348.6 661.11,346.267 663.5,344.5C 664.386,345.325 664.719,346.325 664.5,347.5C 665.5,347.5 666.5,347.5 667.5,347.5 Z M 682.5,344.5 C 684.807,345.405 684.807,346.738 682.5,348.5C 680.206,347.375 680.206,346.041 682.5,344.5 Z M 607.5,347.5 C 605.811,350.842 603.145,352.342 599.5,352C 601.655,349.664 604.322,348.164 607.5,347.5 Z M 622.5,348.5 C 623.683,349.504 625.016,350.338 626.5,351C 623.511,353.272 622.178,352.439 622.5,348.5 Z M 677.5,348.5 C 681.481,351.173 681.148,352.173 676.5,351.5C 677.127,350.583 677.461,349.583 677.5,348.5 Z"/></g>
<g><path style="opacity:0.651" fill="#008136" d="M 514.5,334.5 C 516.09,334.628 517.423,335.295 518.5,336.5C 515.524,340.644 512.357,344.644 509,348.5C 508.333,349.167 508.333,349.833 509,350.5C 511.14,348.36 513.306,346.194 515.5,344C 518.014,342.748 520.68,342.248 523.5,342.5C 522.945,346.584 523.945,347.251 526.5,344.5C 527.521,345.002 527.688,345.668 527,346.5C 523.883,350.454 520.05,353.454 515.5,355.5C 513.259,354.968 511.759,353.635 511,351.5C 507.065,355.443 502.565,356.276 497.5,354C 496.293,348.813 498.293,345.147 503.5,343C 505.833,342.667 508.167,342.333 510.5,342C 512.494,339.842 513.828,337.342 514.5,334.5 Z M 505.5,344.5 C 506.376,344.369 507.043,344.702 507.5,345.5C 506.562,348.157 504.562,350.49 501.5,352.5C 500.646,348.873 501.979,346.207 505.5,344.5 Z M 518.5,346.5 C 519.002,344.915 520.002,344.415 521.5,345C 520.756,346.039 519.756,346.539 518.5,346.5 Z M 522.5,347.5 C 520.856,351.006 518.189,352.506 514.5,352C 516.655,349.664 519.322,348.164 522.5,347.5 Z"/></g>
<g><path style="opacity:0.677" fill="#008136" d="M 542.5,334.5 C 546.138,333.737 547.638,335.07 547,338.5C 544,342.833 540.333,346.5 536,349.5C 535.383,350.449 535.549,351.282 536.5,352C 538.279,351.956 539.945,351.289 541.5,350C 543.167,347 545.5,344.667 548.5,343C 552.43,341.579 555.097,342.746 556.5,346.5C 555.352,348.149 554.019,349.649 552.5,351C 552.833,351.167 553.167,351.333 553.5,351.5C 556.053,349.403 558.386,347.07 560.5,344.5C 560.833,344.833 561.167,345.167 561.5,345.5C 558.481,349.353 554.981,352.687 551,355.5C 549.428,353.411 547.595,353.411 545.5,355.5C 543.568,354.855 542.401,353.521 542,351.5C 539.009,355.047 535.675,355.714 532,353.5C 532.363,345.442 535.863,339.108 542.5,334.5 Z M 538.5,344.5 C 540.051,341.437 542.218,338.771 545,336.5C 543.886,339.805 541.719,342.472 538.5,344.5 Z M 550.5,344.5 C 551.376,344.369 552.043,344.702 552.5,345.5C 551.2,348.432 549.2,350.766 546.5,352.5C 545.646,348.873 546.979,346.207 550.5,344.5 Z"/></g>
<g><path style="opacity:0.469" fill="#008136" d="M 685.5,336.5 C 688.731,337.098 689.064,338.264 686.5,340C 684.782,340.346 683.115,340.846 681.5,341.5C 680.614,340.675 680.281,339.675 680.5,338.5C 682.698,338.88 684.365,338.213 685.5,336.5 Z"/></g>
<g><path style="opacity:0.568" fill="#008136" d="M 672.5,337.5 C 674.167,337.5 675.833,337.5 677.5,337.5C 675.833,342.833 674.167,342.833 672.5,337.5 Z"/></g>
<g><path style="opacity:0.659" fill="#008136" d="M 450.5,342.5 C 451.5,342.5 452.5,342.5 453.5,342.5C 452.802,345.862 451.636,348.862 450,351.5C 452.872,348.963 455.372,346.13 457.5,343C 458.448,342.517 459.448,342.351 460.5,342.5C 460.617,344.484 459.95,346.15 458.5,347.5C 458.833,347.833 459.167,348.167 459.5,348.5C 461.172,346.329 463.005,344.329 465,342.5C 465.945,342.905 466.612,343.572 467,344.5C 469.228,342.887 471.728,342.22 474.5,342.5C 474.185,344.226 474.019,345.893 474,347.5C 476.821,343.337 480.655,341.837 485.5,343C 488.319,345.72 487.986,348.053 484.5,350C 484.833,350.167 485.167,350.333 485.5,350.5C 487.507,348.992 489.174,347.158 490.5,345C 491.332,344.312 491.998,344.479 492.5,345.5C 489.481,349.353 485.981,352.687 482,355.5C 480.204,354.233 478.371,354.233 476.5,355.5C 474.568,354.855 473.401,353.521 473,351.5C 468.004,357.302 465.337,356.635 465,349.5C 463,351.5 461,353.5 459,355.5C 457.428,353.411 455.595,353.411 453.5,355.5C 452.201,354.91 451.368,353.91 451,352.5C 446.805,357.058 444.805,356.391 445,350.5C 447.02,348.449 448.52,346.116 449.5,343.5C 450.167,343.5 450.5,343.167 450.5,342.5 Z M 481.5,344.5 C 482.376,344.369 483.043,344.702 483.5,345.5C 482.2,348.432 480.2,350.766 477.5,352.5C 476.417,351.635 476.251,350.635 477,349.5C 478.059,347.341 479.559,345.674 481.5,344.5 Z"/></g>
</svg>
