<?xml version="1.0" standalone="no"?>
<!DOCTYPE svg PUBLIC "-//W3C//DTD SVG 20010904//EN"
 "http://www.w3.org/TR/2001/REC-SVG-20010904/DTD/svg10.dtd">
<svg version="1.0" xmlns="http://www.w3.org/2000/svg"
 width="1034.000000pt" height="1034.000000pt" viewBox="0 0 1034.000000 1034.000000"
 preserveAspectRatio="xMidYMid meet">
<metadata>
Created by potrace 1.14, written by Peter Selinger 2001-2017
</metadata>
<g transform="translate(0.000000,1034.000000) scale(0.100000,-0.100000)"
fill="#000000" stroke="none">
<path d="M2096 6942 c-6 -19 -20 -25 -53 -21 -12 1 -21 -35 -12 -52 4 -9 6
-28 3 -43 -4 -24 -2 -26 21 -20 14 3 31 1 40 -6 18 -15 35 -5 35 20 0 10 8 24
18 29 9 6 13 11 8 11 -5 0 -3 6 3 14 10 11 8 16 -9 21 -12 4 -28 21 -35 38
-12 29 -13 29 -19 9z"/>
<path d="M1715 6920 c-4 -11 -17 -28 -31 -36 -29 -20 -30 -34 -3 -57 11 -10
18 -25 15 -32 -7 -20 9 -28 24 -10 7 9 22 12 39 9 26 -5 28 -3 28 28 0 18 4
46 8 62 7 26 6 28 -14 21 -16 -5 -27 -1 -41 15 l-18 21 -7 -21z"/>
<path d="M2400 6845 c-8 -9 -23 -13 -39 -10 -26 4 -27 3 -28 -38 0 -23 -2 -49
-4 -57 -3 -10 3 -14 18 -12 13 2 27 -5 36 -19 l15 -21 16 31 c9 17 23 31 31
31 9 0 12 6 8 17 -4 11 -3 14 5 9 7 -4 12 -2 12 3 0 6 -4 11 -9 11 -18 0 -40
30 -36 50 5 24 -8 26 -25 5z"/>
<path d="M1399 6834 c-2 -30 -9 -48 -20 -55 -20 -12 -19 -41 2 -46 10 -3 22
-16 25 -30 6 -23 7 -23 26 -6 11 10 29 17 39 15 12 -2 19 3 19 13 0 9 5 13 11
9 6 -3 4 7 -5 23 -8 17 -13 39 -10 50 5 17 1 20 -23 20 -15 0 -36 3 -45 7 -10
5 -18 4 -19 0z"/>
<path d="M2623 6673 c0 -16 -5 -41 -12 -56 -6 -16 -11 -29 -11 -31 0 -1 10 -2
21 -3 12 -1 28 -12 36 -23 l15 -22 12 24 c6 12 21 24 33 26 14 2 20 8 16 18
-3 8 0 14 6 14 7 0 3 9 -8 21 -11 12 -17 27 -15 34 7 17 -16 31 -25 16 -6 -9
-15 -9 -35 -1 -15 5 -29 10 -30 10 -2 0 -3 -12 -3 -27z"/>
<path d="M1109 6671 c-3 -38 -4 -42 -19 -51 -8 -5 -11 -10 -6 -10 5 0 3 -6 -3
-14 -9 -11 -6 -15 13 -20 14 -3 30 -16 37 -27 l11 -21 14 21 c9 12 26 21 39
21 19 0 23 4 18 17 -4 11 -3 14 5 9 7 -4 12 -3 12 2 0 6 -7 13 -16 16 -12 5
-15 16 -12 41 3 29 1 34 -11 29 -21 -9 -42 -9 -63 1 -14 5 -18 2 -19 -14z"/>
<path d="M1807 6654 c-1 -1 -38 -4 -82 -8 -191 -15 -378 -59 -512 -121 -71
-33 -81 -43 -87 -82 -2 -11 -17 -22 -41 -29 -25 -7 -41 -18 -48 -35 -19 -48
-24 -87 -14 -104 7 -14 3 -22 -19 -40 l-28 -23 36 -40 c63 -70 81 -135 82
-297 1 -169 0 -180 -50 -480 -14 -82 -27 -161 -29 -175 -1 -14 -6 -54 -10 -90
-4 -36 -8 -67 -10 -70 -7 -11 -18 -212 -17 -306 1 -178 40 -275 150 -381 80
-77 190 -126 347 -154 39 -7 75 -17 82 -21 12 -10 10 -40 -7 -82 -8 -22 -5
-28 20 -42 54 -33 14 -39 -72 -13 -34 11 -41 10 -72 -12 -19 -13 -40 -34 -45
-46 -11 -23 -45 -31 -56 -13 -3 6 -2 10 2 10 19 0 44 63 47 120 4 67 -5 82
-28 49 -12 -18 -17 -20 -28 -8 -7 8 -19 26 -25 42 -14 30 -33 36 -33 10 0 -15
-2 -14 -15 3 -13 16 -16 17 -25 4 -5 -8 -10 -13 -11 -10 -8 45 -11 56 -18 63
-5 5 -21 -11 -36 -37 -15 -25 -28 -46 -29 -46 -2 0 -3 15 -3 33 0 17 -6 45
-12 61 -9 22 -14 26 -25 17 -18 -15 -28 8 -33 78 -2 30 -5 57 -7 59 -7 7 -46
-32 -46 -46 0 -7 -5 -10 -10 -7 -6 3 -10 12 -10 19 0 8 -7 31 -17 52 l-16 39
-9 -32 c-9 -35 -29 -55 -23 -23 2 11 -2 43 -9 71 -8 29 -12 78 -10 109 3 53 2
58 -16 53 -16 -4 -19 0 -18 29 1 18 12 49 25 70 14 20 27 50 29 66 4 27 2 30
-15 25 -19 -5 -20 -2 -15 56 3 36 13 76 24 94 22 35 26 63 10 69 -12 4 28 123
54 159 21 31 20 39 -4 39 -25 0 -25 6 5 55 32 52 31 59 -7 51 -48 -10 -105
-51 -128 -93 -11 -21 -19 -29 -16 -18 2 11 7 35 11 53 4 18 13 32 21 32 8 0
14 7 14 15 0 8 -5 15 -11 15 -5 0 -7 5 -4 10 3 6 17 7 31 4 44 -11 69 3 97 55
34 62 34 71 -3 67 l-30 -3 5 62 c7 76 -6 91 -41 49 -41 -50 -64 -111 -63 -162
1 -26 -6 -63 -14 -82 -15 -33 -16 -33 -10 -5 4 17 6 48 6 70 -2 37 -8 57 -40
117 -7 15 -13 31 -13 35 1 4 -2 9 -7 10 -13 5 -37 -95 -39 -162 -2 -63 15
-109 55 -152 26 -27 26 -33 2 -33 -13 0 -24 16 -40 60 -13 34 -27 58 -32 54
-6 -3 -8 -8 -5 -11 3 -3 1 -13 -4 -23 -5 -9 -10 -34 -12 -54 -3 -46 -10 -51
-33 -26 -28 31 -45 26 -35 -9 4 -16 6 -31 4 -34 -2 -2 2 -22 10 -45 9 -26 14
-73 13 -130 l-2 -90 -34 14 c-47 20 -51 18 -40 -18 25 -90 84 -162 138 -170
24 -3 24 -4 7 -21 -18 -17 -20 -17 -51 15 -19 18 -47 41 -64 51 l-30 17 6 -37
c3 -21 10 -46 15 -55 7 -15 3 -17 -32 -13 -22 2 -40 2 -40 -1 0 -10 64 -99 84
-117 25 -22 59 -31 92 -23 21 6 25 4 22 -11 -4 -21 -12 -20 -91 3 -62 19 -78
14 -59 -16 13 -22 16 -44 4 -37 -4 3 -20 0 -37 -7 l-29 -12 59 -47 c33 -26 66
-47 73 -47 6 0 12 -4 12 -9 0 -4 -13 -7 -30 -5 -40 5 -38 -8 11 -61 l41 -45
-26 -31 c-32 -37 -32 -46 -3 -55 12 -4 36 -19 54 -34 17 -16 41 -31 52 -35 25
-7 26 -22 6 -49 -28 -38 -15 -65 29 -57 5 1 15 -7 22 -18 12 -17 84 -39 108
-32 4 1 6 -14 4 -34 -4 -34 -3 -36 21 -30 47 12 79 51 85 105 4 40 16 51 16
17 0 -28 15 -37 23 -14 4 10 7 10 18 0 11 -11 10 -13 -4 -13 -19 0 -49 -30
-77 -77 l-19 -33 32 -8 c22 -6 32 -14 32 -28 0 -15 6 -19 34 -16 18 1 47 12
64 24 17 12 28 17 24 11 -4 -6 -9 -34 -13 -63 l-6 -52 31 16 c29 16 31 15 31
-2 0 -21 -24 -59 -59 -90 -14 -13 -43 -40 -64 -60 -36 -34 -37 -37 -17 -40 12
-2 53 12 91 32 38 20 73 36 78 36 5 0 8 -21 8 -47 0 -27 3 -78 6 -115 3 -38 2
-68 -3 -68 -5 0 -29 9 -55 20 -81 35 -159 21 -204 -36 l-23 -29 24 -3 c44 -6
50 -10 39 -31 -12 -21 -25 -91 -18 -91 3 0 15 16 26 36 21 35 23 36 69 31 26
-2 82 -15 124 -27 94 -29 111 -22 101 45 -5 42 -4 43 26 50 39 8 47 3 55 -37
4 -18 13 -42 21 -52 15 -19 17 -19 122 7 136 33 145 35 218 42 33 4 76 8 95
11 89 11 236 2 400 -26 30 -5 72 -12 93 -16 21 -3 59 -11 85 -17 26 -7 59 -11
74 -9 24 3 29 9 34 42 8 52 23 63 63 49 26 -9 30 -15 25 -33 -24 -72 24 -94
117 -54 82 35 152 29 191 -17 17 -19 17 -19 13 14 -2 19 -9 39 -14 44 -18 18
-13 40 8 34 10 -2 25 -1 32 4 12 7 11 13 -3 36 -32 55 -120 72 -200 38 -58
-24 -70 -21 -63 18 8 46 -5 58 -81 77 -57 14 -69 20 -75 41 -3 13 -2 32 3 41
7 15 13 14 61 -10 142 -74 159 -72 79 6 -96 94 -124 130 -117 151 3 12 9 20
13 19 4 -1 17 4 28 11 17 11 20 22 17 50 -2 21 -1 31 4 24 27 -38 108 -47 108
-12 0 8 9 15 20 17 36 7 38 20 11 66 -17 29 -36 48 -52 52 -19 5 -22 9 -13 15
7 4 18 4 25 -1 14 -12 24 -2 17 16 -3 8 -1 14 4 14 4 0 9 -14 9 -31 2 -36 27
-74 66 -97 32 -19 41 -13 40 27 0 24 3 29 24 29 34 0 105 32 97 45 -4 6 4 8
21 5 36 -7 42 9 21 58 -15 36 -10 53 17 54 4 0 22 13 40 29 18 15 43 31 56 35
28 9 28 18 -4 55 l-26 31 41 45 c23 25 41 49 41 54 0 5 -13 7 -30 6 -16 -1
-30 1 -30 6 0 5 6 9 13 9 14 0 41 19 96 67 l36 31 -30 8 c-45 10 -46 13 -29
46 l16 31 -48 -8 c-27 -4 -61 -13 -77 -21 -24 -13 -30 -13 -42 -1 -19 19 -9
27 25 20 44 -8 94 22 134 82 19 30 32 56 28 58 -4 2 -22 3 -40 1 -24 -2 -31 1
-24 9 6 7 12 31 16 55 l5 42 -27 -14 c-15 -8 -43 -31 -63 -51 -23 -22 -40 -32
-44 -26 -3 6 -11 9 -16 6 -5 -3 -6 0 -4 8 3 7 21 19 40 26 22 7 46 28 63 54
31 46 66 127 58 135 -3 2 -19 -1 -35 -8 -17 -6 -33 -12 -37 -11 -13 2 -14 164
-2 201 6 19 12 44 14 55 1 11 3 25 4 30 9 38 -7 44 -38 15 -12 -12 -23 -18
-23 -15 -1 3 -2 8 -3 13 -2 4 -6 33 -10 65 -5 31 -11 57 -15 57 -7 0 -51 -96
-51 -111 0 -5 -9 -9 -20 -9 -25 0 -25 5 1 33 55 59 73 152 44 239 -10 29 -20
60 -22 68 -9 30 -73 -134 -68 -171 2 -9 6 -31 10 -49 5 -24 4 -31 -5 -25 -6 4
-9 9 -6 12 2 3 0 17 -5 32 -6 14 -12 51 -13 81 -2 36 -11 69 -27 95 -59 99
-80 101 -74 7 l5 -69 -31 5 c-29 4 -31 3 -24 -19 23 -81 69 -123 118 -107 16
6 31 7 35 3 4 -4 1 -10 -5 -12 -17 -6 -16 -33 1 -33 8 0 18 -19 25 -44 15 -62
13 -67 -10 -23 -11 20 -38 48 -60 62 -39 25 -99 44 -99 31 0 -4 11 -29 25 -56
24 -48 25 -50 5 -50 -17 0 -18 -3 -9 -27 6 -16 18 -36 26 -45 9 -10 13 -18 10
-18 -4 0 2 -23 13 -50 24 -61 25 -71 4 -63 -14 5 -14 2 1 -32 8 -21 19 -43 24
-49 5 -6 12 -42 16 -79 l7 -69 -22 12 c-22 12 -23 11 -16 -21 3 -19 18 -51 32
-72 29 -44 30 -93 1 -91 -16 2 -17 -4 -12 -50 4 -30 0 -75 -8 -111 -8 -33 -13
-68 -11 -78 4 -30 -13 -9 -20 25 -8 39 -21 28 -39 -32 l-13 -44 -26 29 c-32
34 -38 26 -42 -51 -2 -61 -12 -80 -32 -63 -11 9 -16 6 -24 -15 -5 -14 -10 -42
-12 -62 -2 -38 -6 -36 -40 25 -22 39 -38 40 -38 2 0 -32 -15 -49 -24 -29 -3
10 -9 8 -20 -5 -14 -18 -15 -18 -18 5 -3 21 -6 18 -32 -22 -16 -25 -30 -47
-33 -49 -2 -3 -10 5 -19 17 -22 31 -30 21 -29 -35 2 -59 12 -92 36 -119 19
-20 19 -21 -8 -33 -24 -11 -29 -10 -45 11 -10 13 -18 25 -18 28 0 3 -13 13
-29 23 -24 14 -34 15 -58 6 -15 -7 -37 -12 -48 -13 -11 -1 -31 -6 -45 -11 -21
-7 -23 -6 -13 7 7 8 10 17 7 21 -3 3 4 15 15 26 25 25 27 51 7 90 l-15 28 97
18 c186 35 291 83 385 178 62 62 112 168 125 260 11 86 6 243 -12 402 -11 90
-17 134 -21 156 -3 13 -7 38 -10 54 -10 69 -16 111 -21 135 -6 33 -12 68 -18
110 -2 19 -8 58 -12 85 -3 28 -9 59 -11 70 -2 11 -6 83 -9 160 -5 191 16 274
90 353 l31 33 -21 18 c-17 13 -21 28 -21 68 0 36 -7 60 -21 81 -20 27 -36 34
-107 49 -11 2 -24 8 -29 13 -5 5 -1 7 12 4 14 -4 21 0 24 13 9 39 -12 60 -90
86 -88 30 -265 73 -332 81 -25 4 -55 8 -68 11 -52 10 -386 26 -395 19z m-1015
-1439 c-6 -34 -12 -32 -12 6 0 16 4 28 9 25 4 -3 6 -17 3 -31z m2257 8 c0 -25
-1 -25 -8 -8 -5 11 -7 23 -4 28 8 14 13 7 12 -20z m-2189 -70 c3 -3 -7 -15
-21 -26 -14 -12 -31 -31 -37 -42 -11 -19 -11 -18 -12 7 0 15 7 31 17 37 15 8
15 11 3 26 -12 15 -11 16 16 9 16 -4 31 -9 34 -11z m2162 5 c-17 -17 -15 -28
5 -28 9 0 14 -3 10 -6 -3 -3 -2 -17 3 -30 6 -15 6 -24 0 -24 -6 0 -10 4 -10 8
0 5 -17 26 -37 47 -21 21 -33 36 -28 33 6 -3 19 -2 30 3 30 12 41 11 27 -3z
m58 -59 c0 -5 -4 -9 -10 -9 -5 0 -10 7 -10 16 0 8 5 12 10 9 6 -3 10 -10 10
-16z m-2358 -24 c18 -21 24 -35 19 -44 -7 -11 -14 -4 -30 27 -12 23 -21 44
-21 48 0 4 1 5 3 3 1 -2 14 -18 29 -34z m48 25 c0 -5 -2 -10 -4 -10 -3 0 -8 5
-11 10 -3 6 -1 10 4 10 6 0 11 -4 11 -10z m2359 -27 c-16 -42 -29 -54 -43 -41
-9 9 -5 18 18 40 38 34 38 34 25 1z m-2379 -88 c0 -14 -2 -25 -4 -25 -2 0 -6
11 -8 25 -3 14 -1 25 3 25 5 0 9 -11 9 -25z m2343 5 c-3 -11 -7 -20 -9 -20 -2
0 -4 9 -4 20 0 11 4 20 9 20 5 0 7 -9 4 -20z m-2263 -66 c0 -2 -11 -14 -25
-28 -14 -14 -28 -39 -31 -56 -9 -43 -21 -37 -16 8 2 20 11 43 20 50 15 11 15
14 2 22 -10 6 -5 9 18 8 18 -1 32 -2 32 -4z m2228 -1 c-22 -6 -24 -33 -3 -33
10 0 15 -11 16 -32 0 -18 2 -41 4 -51 2 -11 1 -16 -3 -13 -3 4 -7 17 -9 29 -2
12 -16 40 -32 63 l-28 40 36 1 c20 1 28 -1 19 -4z m-2315 -68 c-3 -9 -8 -14
-10 -11 -3 3 -2 9 2 15 9 16 15 13 8 -4z m2355 -16 c-3 -8 -7 -3 -11 10 -4 17
-3 21 5 13 5 -5 8 -16 6 -23z m-2328 -93 c0 -3 -4 -8 -10 -11 -5 -3 -10 -1
-10 4 0 6 5 11 10 11 6 0 10 -2 10 -4z m2310 -6 c0 -5 -2 -10 -4 -10 -3 0 -8
5 -11 10 -3 6 -1 10 4 10 6 0 11 -4 11 -10z m-2344 -38 c2 -35 -7 -29 -20 14
-4 13 -2 21 6 21 8 0 14 -14 14 -35z m2375 25 c-1 -4 -1 -16 -1 -27 0 -11 -4
-20 -8 -20 -4 0 -8 14 -7 30 0 17 4 29 8 27 5 -1 8 -6 8 -10z m-2321 -57 c0
-5 -2 -10 -4 -10 -3 0 -8 5 -11 10 -3 6 -1 10 4 10 6 0 11 -4 11 -10z m2270
-6 c0 -8 -5 -12 -10 -9 -6 4 -8 11 -5 16 9 14 15 11 15 -7z m47 -13 c0 -11 -5
-18 -9 -15 -4 3 -5 11 -1 19 7 21 12 19 10 -4z m-2380 -23 c-3 -8 -6 -5 -6 6
-1 11 2 17 5 13 3 -3 4 -12 1 -19z m44 -14 l-8 -29 -5 27 c-3 16 0 29 6 31 16
6 16 4 7 -29z m2299 1 c0 -14 -2 -25 -4 -25 -2 0 -6 11 -8 25 -3 14 -1 25 3
25 5 0 9 -11 9 -25z m-2326 -71 c3 -8 2 -12 -4 -9 -6 3 -10 10 -10 16 0 14 7
11 14 -7z m2347 -7 c-10 -9 -11 -8 -5 6 3 10 9 15 12 12 3 -3 0 -11 -7 -18z
m-2251 -68 c-6 -19 -11 -48 -12 -66 -1 -18 -5 -30 -10 -27 -5 3 -6 20 -2 36 5
26 4 30 -10 25 -29 -11 -19 36 12 54 15 9 28 15 29 14 2 -1 -2 -17 -7 -36z
m2188 11 c7 0 12 -11 12 -25 0 -19 -4 -23 -16 -18 -14 5 -16 2 -11 -18 3 -13
3 -30 -2 -37 -5 -8 -10 7 -14 40 -3 29 -9 62 -13 73 -7 19 -7 19 13 3 11 -10
25 -18 31 -18z m-2263 -51 c0 -20 -5 -24 -25 -22 -14 2 -35 3 -47 4 -13 1 -23
5 -23 10 0 4 9 6 20 4 12 -2 28 4 38 15 22 24 37 20 37 -11z m2346 4 l33 -17
-29 -8 c-38 -10 -55 -4 -55 22 0 24 7 25 51 3z m-2321 -59 c0 -8 -5 -12 -10
-9 -6 4 -8 11 -5 16 9 14 15 11 15 -7z m118 -62 c-1 -31 5 -57 17 -75 16 -25
16 -27 1 -21 -9 4 -20 19 -23 35 -3 16 -9 26 -14 24 -18 -12 -20 19 -3 51 10
19 20 34 21 34 1 0 1 -22 1 -48z m2052 -18 c0 -7 -9 -14 -21 -17 -15 -4 -19
-11 -15 -25 4 -12 0 -24 -9 -32 -14 -12 -15 -10 -9 16 4 16 10 38 14 49 4 11
6 31 4 45 l-4 25 20 -25 c11 -14 20 -30 20 -36z m-2099 -50 c33 -49 34 -72 1
-30 -11 14 -31 30 -46 36 -23 8 -25 12 -14 29 15 24 20 21 59 -35z m2173 14
c-3 -5 -11 -8 -18 -8 -8 0 -28 -14 -45 -32 -41 -42 -39 -25 5 35 33 45 36 47
49 31 7 -11 11 -22 9 -26z m-1975 -142 c31 -33 25 -40 -11 -14 -38 27 -49 39
-42 50 3 4 2 13 -2 19 -4 8 -9 7 -15 -2 -4 -7 -11 -10 -15 -6 -4 3 4 15 17 26
l23 19 12 -35 c7 -19 22 -45 33 -57z m1801 52 c0 -6 -6 -6 -14 1 -16 14 -29 0
-21 -21 4 -10 -9 -25 -35 -42 -46 -30 -50 -26 -14 16 14 17 28 43 31 59 5 27
6 27 29 12 13 -8 24 -20 24 -25z m-1937 -14 c-2 -20 18 -38 27 -24 3 5 21 -4
40 -20 44 -36 35 -48 -14 -19 -25 15 -46 20 -66 16 -28 -6 -29 -5 -19 21 6 15
10 28 10 30 -4 13 1 23 12 19 6 -2 11 -13 10 -23z m2015 -13 l9 -39 -34 5
c-26 4 -42 0 -64 -16 -43 -32 -51 -15 -9 19 19 16 37 25 40 20 9 -14 33 7 27
23 -6 15 0 27 13 27 4 0 12 -18 18 -39z m-1809 -76 c1 -19 0 -19 -21 2 -20 21
-21 25 -7 49 l14 27 6 -29 c4 -16 7 -38 8 -49z m1605 39 c4 -14 1 -28 -10 -38
-22 -23 -26 -16 -18 33 7 43 16 44 28 5z m-1543 -79 c-3 -5 -7 0 -9 13 -3 19
-6 21 -18 11 -20 -16 -18 -4 3 17 17 16 18 16 24 -7 3 -13 3 -28 0 -34z m1485
27 c1 -7 0 -8 -2 -3 -3 6 -12 7 -20 4 -8 -3 -14 0 -14 7 0 15 33 9 36 -8z
m-1401 -22 c9 -17 11 -30 5 -30 -5 0 -10 7 -10 16 0 14 -3 14 -15 4 -21 -18
-29 -6 -13 19 7 12 14 21 15 21 1 0 9 -13 18 -30z m1321 -17 c-3 -3 -12 0 -21
7 -12 10 -15 10 -15 -4 0 -9 -5 -16 -10 -16 -6 0 -3 14 6 31 l16 31 15 -22 c8
-12 12 -24 9 -27z m-743 5 c12 -15 15 -24 7 -26 -18 -6 -70 19 -81 40 -9 17
-7 18 23 13 18 -3 41 -15 51 -27z m797 18 c0 -3 -4 -8 -10 -11 -5 -3 -10 -1
-10 4 0 6 5 11 10 11 6 0 10 -2 10 -4z m-640 -14 c0 -10 -60 -45 -67 -39 -2 3
-2 15 2 26 4 15 15 21 36 21 16 0 29 -4 29 -8z m120 -37 c0 -10 -59 -34 -64
-26 -4 5 6 14 21 19 33 12 43 14 43 7z m-900 -15 c0 -5 -2 -10 -4 -10 -3 0 -8
5 -11 10 -3 6 -1 10 4 10 6 0 11 -4 11 -10z m130 -25 c0 -12 -40 -94 -48 -99
-6 -4 -10 11 -10 36 0 24 -1 48 -2 53 -1 6 -2 13 -1 16 1 5 61 0 61 -6z m1170
-35 c-6 -31 -3 -50 10 -75 10 -19 14 -35 10 -35 -9 0 -59 57 -61 68 -1 9 -6
32 -15 60 -6 20 -3 22 28 22 l35 0 -7 -40z m-789 10 c5 0 9 -9 9 -21 0 -28
-30 -21 -41 10 -8 19 -6 22 7 17 8 -3 20 -6 25 -6z m379 -20 c0 -22 -16 -26
-40 -10 -13 9 -13 11 0 20 24 16 40 12 40 -10z m-445 -125 c28 0 60 4 73 8 22
8 23 7 17 -30 -8 -55 8 -72 75 -77 30 -3 64 -7 75 -9 11 -2 30 0 42 6 15 7 27
7 35 0 19 -15 78 4 80 25 0 9 2 22 3 27 2 6 3 17 4 26 1 14 7 15 45 6 35 -8
55 -6 95 7 60 19 89 10 135 -42 16 -18 48 -44 73 -58 49 -29 88 -83 49 -68 -9
4 -17 -7 -23 -33 -11 -45 -18 -46 -138 -15 -132 35 -372 48 -490 27 -22 -4
-54 -8 -71 -10 -17 -2 -68 -13 -114 -24 -99 -25 -90 -25 -90 -3 0 37 -25 56
-71 53 -57 -3 -87 -6 -126 -15 -29 -7 -33 -5 -33 12 0 30 37 70 90 97 26 13
58 37 70 52 24 31 92 55 125 44 11 -3 43 -6 70 -6z"/>
<path d="M2868 6483 c0 -10 -2 -24 -2 -31 -1 -7 -6 -16 -13 -20 -20 -13 -20
-44 1 -48 21 -3 35 -21 36 -44 0 -10 6 -7 19 9 10 14 27 26 36 27 17 2 34 21
35 35 0 4 -7 12 -15 19 -9 8 -12 22 -9 43 3 18 2 27 -3 21 -15 -19 -40 -23
-62 -8 -19 14 -21 13 -23 -3z"/>
<path d="M866 6464 c-3 -9 -4 -20 -1 -25 3 -4 -1 -21 -9 -37 -16 -32 -13 -42
15 -42 10 0 24 -10 30 -22 l12 -22 14 27 c7 15 22 27 32 27 27 0 35 29 14 53
-10 10 -17 28 -15 38 4 21 -5 24 -27 10 -8 -5 -24 -6 -37 -1 -16 7 -24 5 -28
-6z"/>
<path d="M7850 6308 c-18 -24 -37 -48 -43 -55 -14 -20 26 -8 78 22 52 31 57
37 49 59 -11 30 -49 18 -84 -26z"/>
<path d="M3673 6221 c-96 -24 -153 -104 -149 -208 3 -73 26 -117 84 -157 35
-25 54 -30 106 -32 35 -2 85 3 112 10 l49 12 5 83 5 82 -49 -3 -49 -3 -1 -70
-1 -70 -35 -3 c-80 -6 -131 61 -127 168 3 74 24 118 69 145 41 24 101 15 139
-21 l29 -28 6 32 c4 17 5 35 3 39 -10 25 -133 39 -196 24z"/>
<path d="M4076 6218 c-22 -6 -55 -27 -77 -49 -64 -64 -77 -159 -33 -246 35
-72 97 -103 193 -99 137 6 221 96 209 225 -14 140 -135 210 -292 169z m142
-53 c70 -59 70 -204 0 -279 -28 -31 -98 -29 -132 3 -45 43 -58 154 -28 232 26
66 108 88 160 44z"/>
<path d="M6120 6218 c-81 -23 -130 -86 -137 -179 -5 -50 -1 -67 21 -113 22
-45 35 -59 78 -80 86 -43 203 -27 271 36 57 54 73 182 31 254 -44 77 -158 113
-264 82z m135 -50 c58 -46 73 -157 33 -238 -27 -53 -65 -75 -113 -66 -68 13
-105 95 -90 202 14 104 101 157 170 102z"/>
<path d="M6686 6122 c-21 -59 -45 -120 -52 -137 -7 -16 -24 -58 -38 -92 l-25
-63 29 0 c26 0 30 5 47 57 17 55 19 57 57 61 71 7 83 -1 101 -68 12 -47 16
-50 70 -50 l55 0 -11 28 c-6 15 -20 52 -31 82 -12 30 -25 66 -31 80 -6 14 -11
27 -12 30 -1 3 -4 12 -8 20 -19 49 -38 106 -38 115 -2 26 -22 45 -47 45 -25 0
-29 -7 -66 -108z m84 -129 c0 -2 -20 -3 -44 -3 l-45 0 22 59 21 59 23 -55 c13
-31 23 -58 23 -60z"/>
<path d="M7776 6223 c-40 -11 -94 -53 -117 -90 -20 -31 -24 -51 -24 -115 0
-70 2 -79 31 -115 46 -57 87 -77 165 -80 131 -5 222 75 228 198 3 77 -35 151
-95 180 -45 21 -148 34 -188 22z m132 -58 c35 -30 48 -61 51 -131 2 -53 -17
-114 -46 -146 -45 -50 -140 -25 -168 45 -18 44 -18 135 -1 177 32 78 107 103
164 55z"/>
<path d="M8664 6220 c-104 -22 -167 -147 -134 -264 23 -83 86 -127 191 -132
55 -3 75 1 117 22 62 31 101 86 109 154 19 161 -105 257 -283 220z m135 -56
c76 -64 62 -253 -22 -292 -83 -39 -157 34 -157 154 0 132 97 207 179 138z"/>
<path d="M9634 6221 c-45 -11 -89 -45 -116 -89 -19 -30 -23 -51 -23 -112 0
-63 4 -81 25 -112 39 -59 91 -82 180 -83 106 0 163 34 201 119 42 96 6 216
-78 257 -47 23 -140 33 -189 20z m113 -41 c43 -15 67 -63 70 -141 4 -116 -52
-190 -132 -175 -66 13 -102 85 -92 183 6 64 20 96 53 122 30 23 56 26 101 11z"/>
<path d="M4435 6024 l0 -194 82 0 c105 0 155 19 178 66 11 23 14 45 9 69 -6
36 -44 75 -73 75 -9 1 1 10 21 21 61 32 64 103 7 138 -24 15 -51 19 -127 19
l-97 0 0 -194z m160 136 c32 -35 0 -100 -49 -100 -13 0 -16 13 -16 64 0 62 1
63 24 59 14 -3 32 -13 41 -23z m1 -165 c31 -48 2 -125 -48 -125 -16 0 -18 9
-18 75 0 73 1 75 25 75 15 0 31 -9 41 -25z"/>
<path d="M4775 6025 l0 -195 48 0 47 0 1 170 c1 94 2 180 2 193 1 20 -4 22
-48 25 l-50 2 0 -195z"/>
<path d="M4935 6025 l0 -193 108 1 c59 0 107 3 108 6 7 48 9 47 -53 41 -32 -3
-61 -4 -63 -1 -3 2 -5 35 -5 74 l0 69 60 -4 c59 -3 60 -3 60 24 0 26 -1 27
-60 24 l-60 -3 0 53 0 54 63 0 c59 0 63 1 63 23 0 22 -2 23 -110 23 l-111 1 0
-192z"/>
<path d="M5214 6024 l1 -193 46 2 47 1 -2 83 c-2 46 0 83 3 83 8 0 101 -147
101 -160 0 -6 25 -10 59 -9 l59 2 -28 41 c-84 126 -91 140 -73 151 43 26 63
55 63 92 0 79 -44 103 -185 101 l-91 -1 0 -193z m164 140 c49 -34 14 -129 -46
-122 -26 3 -27 5 -27 71 -1 65 0 67 25 67 14 0 36 -7 48 -16z"/>
<path d="M5575 6025 l0 -194 26 1 25 1 -2 131 -2 130 36 -39 c19 -22 51 -58
71 -80 20 -22 56 -64 80 -92 34 -41 50 -53 73 -53 l28 0 1 138 c0 75 2 162 4
192 3 54 2 56 -25 58 l-27 2 4 -125 c2 -80 0 -125 -7 -125 -5 0 -10 3 -10 8 0
4 -17 25 -38 47 -21 22 -67 74 -102 115 -56 65 -68 75 -99 77 l-36 2 0 -194z"/>
<path d="M6948 6067 c3 -141 5 -155 27 -188 49 -75 204 -78 268 -6 26 30 35
79 40 219 l5 126 -32 0 -31 0 0 -137 c0 -149 -8 -180 -52 -200 -38 -17 -69
-13 -100 13 l-28 24 0 150 0 151 -50 0 -50 0 3 -152z"/>
<path d="M7329 6215 c0 0 -2 -10 -3 -22 -2 -21 1 -23 51 -23 l53 0 -2 -169 -3
-168 50 -2 50 -1 -3 171 -3 171 51 -4 c48 -3 50 -2 50 23 l0 25 -145 0 c-80
-1 -145 -1 -146 -1z"/>
<path d="M8115 6025 l0 -195 26 0 25 0 -2 132 -2 133 50 -55 c27 -30 79 -90
115 -132 54 -64 71 -78 95 -78 l28 0 1 148 c1 81 2 168 4 195 2 45 1 47 -24
47 l-27 0 2 -125 c2 -69 0 -125 -4 -124 -6 0 -49 48 -142 159 -68 81 -76 87
-110 88 l-35 1 0 -194z"/>
<path d="M9039 6207 c-4 -33 -7 -56 -13 -97 -9 -60 -13 -85 -26 -182 -7 -46
-13 -85 -16 -89 -2 -4 11 -7 29 -7 30 0 32 2 33 37 0 20 4 70 8 111 5 41 9 81
9 89 1 26 22 -15 68 -129 51 -128 68 -138 100 -63 55 128 91 205 94 201 2 -2
6 -43 10 -93 4 -49 9 -99 11 -110 1 -11 3 -25 3 -30 1 -6 23 -11 50 -11 44 -1
49 2 46 20 -2 12 -6 46 -10 76 -3 30 -8 65 -10 78 -2 13 -7 56 -11 95 -4 40
-8 79 -10 87 -1 8 -3 19 -3 23 -1 4 -17 7 -37 5 -28 -2 -38 -8 -45 -28 -25
-68 -94 -220 -101 -220 -3 0 -28 56 -55 124 l-48 123 -37 1 c-22 0 -39 -4 -39
-11z"/>
<path d="M6310 5655 c-93 -29 -148 -69 -189 -134 -45 -74 -56 -142 -36 -226
36 -157 160 -237 358 -230 51 1 110 9 131 17 33 12 41 21 51 56 7 22 11 43 8
46 -3 2 -21 -7 -40 -20 -117 -79 -265 -48 -325 70 -42 83 -30 233 25 308 63
85 218 92 292 12 20 -21 28 -25 37 -16 7 7 9 12 5 12 -3 0 0 18 8 40 l14 40
-52 16 c-70 22 -229 27 -287 9z"/>
<path d="M7700 5631 c-13 -36 -130 -321 -155 -376 -7 -16 -29 -64 -48 -106
l-34 -76 48 0 49 0 22 70 c12 38 27 75 34 82 10 9 40 13 103 11 50 -1 92 -4
94 -6 2 -3 11 -27 21 -55 40 -112 26 -101 126 -101 49 0 88 2 86 5 -40 81
-165 383 -205 497 l-32 90 -48 1 c-46 1 -48 -1 -61 -36z m56 -244 c18 -45 30
-83 29 -85 -5 -5 -135 -6 -140 -1 -2 3 2 18 10 33 8 16 15 32 15 36 0 16 45
109 50 104 3 -3 19 -42 36 -87z"/>
<path d="M3626 5651 c-2 -3 -7 -31 -10 -62 -4 -31 -9 -67 -11 -80 -3 -13 -7
-41 -10 -64 -3 -22 -8 -47 -10 -55 -2 -8 -7 -40 -10 -70 -4 -30 -8 -57 -10
-60 -2 -3 -6 -30 -10 -60 -3 -30 -8 -63 -11 -72 -16 -55 -15 -56 37 -56 l49 0
1 42 c1 43 2 55 13 153 6 54 12 102 20 158 5 31 13 22 46 -48 19 -39 34 -74
35 -77 1 -3 15 -34 32 -70 17 -36 40 -87 52 -113 19 -44 23 -48 51 -45 29 3
34 10 84 123 77 173 126 272 127 255 0 -8 2 -22 4 -31 1 -8 6 -42 9 -75 4 -32
9 -77 12 -99 4 -37 12 -135 14 -161 0 -14 160 -14 161 0 1 6 0 16 -1 21 -4 18
-29 199 -35 255 -4 30 -8 66 -11 80 -2 14 -7 50 -10 80 -3 30 -8 64 -9 75 -2
11 -4 29 -4 41 -1 18 -7 20 -60 20 l-58 0 -32 -70 c-18 -39 -60 -127 -93 -196
l-60 -125 -33 71 c-18 39 -56 127 -85 196 l-53 125 -59 0 c-33 -1 -61 -3 -62
-6z"/>
<path d="M4408 5450 c4 -224 10 -264 49 -310 43 -52 96 -72 196 -76 137 -6
212 27 263 112 27 47 31 78 38 312 3 84 8 156 11 162 3 5 -16 8 -47 6 l-53 -2
-1 -195 c-1 -198 -8 -245 -46 -283 -51 -51 -153 -54 -208 -6 -43 37 -50 80
-46 291 l3 196 -81 -1 -81 -1 3 -205z"/>
<path d="M5110 5651 c0 -3 -1 -135 -3 -292 l-2 -286 41 0 41 0 -5 200 -5 200
95 -99 c163 -170 173 -180 227 -241 51 -59 53 -60 104 -61 l52 0 -1 236 c0
131 2 262 6 294 l6 56 -46 -1 -47 -2 5 -187 c2 -104 1 -188 -4 -188 -4 0 -27
21 -52 48 -24 26 -81 86 -126 133 -44 47 -102 110 -129 141 -46 54 -48 55
-102 55 -30 0 -55 -3 -55 -6z"/>
<path d="M5795 5365 l0 -291 80 -1 80 0 0 292 0 292 -80 0 -80 -1 0 -291z"/>
<path d="M6745 5366 l0 -291 80 -2 80 -1 0 292 0 291 -80 1 -80 0 0 -290z"/>
<path d="M7045 5365 l0 -291 80 -1 80 -1 0 124 0 125 80 3 c44 2 96 11 117 20
93 40 124 169 62 252 -37 50 -87 62 -265 61 l-154 -1 0 -291z m269 206 c17
-17 21 -34 21 -82 0 -56 -3 -63 -30 -85 -19 -15 -43 -24 -66 -24 l-35 0 -1
111 -1 111 45 -5 c28 -3 54 -13 67 -26z"/>
<path d="M8125 5364 l0 -291 182 1 183 1 0 37 0 36 -106 -5 -106 -6 3 259 4
260 -80 0 -80 0 0 -292z"/>
<path d="M8810 5656 c-1 -1 -2 -132 -3 -293 l-2 -291 180 2 c174 2 182 2 237
29 67 33 110 74 141 136 18 37 22 63 22 136 0 77 -4 98 -26 140 -29 57 -91
109 -152 127 -26 8 -109 13 -219 14 -98 0 -178 0 -178 0z m316 -75 c23 -10 50
-32 62 -48 41 -57 53 -172 28 -256 -30 -100 -92 -145 -194 -143 l-57 1 -1 233
-2 232 62 0 c38 0 77 -7 102 -19z"/>
<path d="M9495 5366 l0 -291 182 0 182 0 -2 37 -2 37 -100 -2 -100 -2 0 97
c-1 64 3 99 11 102 6 2 47 2 90 0 43 -2 84 -2 90 0 5 2 8 19 6 38 l-4 34 -97
-4 -97 -4 2 83 c1 46 2 88 3 93 0 4 45 6 100 3 l99 -5 0 36 1 37 -182 1 -182
1 0 -291z"/>
<path d="M8100 4897 c-191 -43 -299 -179 -306 -389 -7 -207 72 -335 251 -403
69 -27 247 -28 325 -2 119 40 207 122 251 234 28 72 35 214 15 291 -36 134
-133 227 -276 265 -70 18 -189 20 -260 4z m213 -92 c51 -24 87 -71 114 -147
18 -52 21 -81 19 -168 -4 -130 -29 -205 -90 -266 -87 -88 -226 -78 -301 20
-45 59 -58 112 -59 236 -1 126 14 190 61 261 52 78 166 107 256 64z"/>
<path d="M3711 4884 c-24 -7 -59 -25 -78 -40 -75 -57 -105 -196 -63 -290 32
-73 53 -89 240 -178 50 -24 68 -39 78 -67 32 -83 -46 -159 -149 -145 -60 8
-104 40 -128 91 -12 25 -25 45 -30 45 -5 0 -11 -24 -15 -52 -4 -29 -9 -67 -12
-84 -5 -29 -3 -32 48 -54 105 -46 276 -32 355 29 89 71 120 214 68 317 -29 57
-70 88 -170 129 -134 55 -171 91 -160 153 2 15 18 39 34 54 26 23 37 27 90 25
68 -2 107 -24 131 -75 19 -39 38 -41 45 -4 3 15 11 45 16 66 9 34 8 42 -7 53
-49 36 -216 51 -293 27z"/>
<path d="M6441 4841 c-97 -266 -221 -591 -252 -661 -7 -14 -16 -36 -22 -50 -6
-14 -12 -28 -14 -31 -1 -3 25 -5 60 -5 l62 2 30 110 30 109 55 5 c30 3 86 3
124 0 l69 -5 22 -70 c12 -38 27 -88 33 -110 l12 -41 110 1 c60 0 110 1 110 1
0 1 -15 39 -34 85 -53 134 -173 455 -219 589 l-42 124 -57 1 -57 1 -20 -55z
m68 -310 c23 -63 39 -116 37 -119 -4 -3 -119 -6 -157 -3 -14 1 -10 20 29 121
24 66 46 119 48 118 1 -2 21 -55 43 -117z"/>
<path d="M9454 4795 c-78 -217 -196 -520 -258 -666 l-15 -35 62 1 61 0 12 45
c7 25 21 74 32 110 l19 65 59 5 c32 3 88 3 122 0 l64 -5 18 -55 c11 -30 26
-80 34 -110 l16 -55 110 0 c71 0 109 3 106 10 -2 5 -36 92 -75 193 -39 100
-71 188 -71 195 0 7 -4 17 -9 23 -8 8 -94 248 -122 340 l-13 42 -58 -2 -58 -1
-36 -100z m86 -265 c22 -62 38 -115 35 -118 -5 -5 -146 -9 -161 -4 -8 2 -1 29
18 80 16 42 36 96 45 120 8 24 17 41 19 39 2 -2 22 -55 44 -117z"/>
<path d="M4176 4855 c6 -39 6 -691 0 -730 l-5 -31 102 0 102 0 -3 188 -3 188
23 1 c78 4 257 4 277 0 l23 -4 -3 -186 -4 -187 101 0 102 0 -4 41 c-5 47 -5
589 0 685 l3 66 -102 0 -101 0 4 -158 4 -158 -162 0 -162 0 4 158 4 158 -102
0 -102 -1 4 -30z"/>
<path d="M5035 4490 l0 -396 95 0 95 0 1 396 1 396 -96 0 -96 0 0 -396z"/>
<path d="M5410 4886 c0 -1 -1 -149 -1 -331 -1 -181 -5 -360 -8 -396 l-6 -65
56 0 57 0 -5 270 c-3 171 -2 267 4 261 5 -5 59 -68 119 -140 60 -71 118 -140
129 -152 11 -13 58 -71 105 -131 l85 -107 66 -1 c65 -1 66 -1 63 25 -9 67 -2
575 9 726 l3 41 -57 0 -57 0 5 -265 6 -265 -30 35 c-68 77 -263 312 -333 401
l-75 95 -67 0 c-38 0 -68 -1 -68 -1z"/>
<path d="M6956 4855 c6 -52 6 -688 -1 -725 l-6 -36 103 0 103 0 -3 188 -3 188
38 1 c38 1 246 1 272 0 11 -1 13 -35 9 -189 l-4 -187 103 -1 103 0 -5 46 c-6
46 -7 619 -1 700 l3 46 -101 0 -102 0 4 -158 4 -158 -162 0 -162 0 4 158 4
158 -102 0 -101 0 3 -31z"/>
<path d="M8661 4833 l1 -52 99 6 99 6 1 -64 c1 -191 -2 -578 -5 -604 l-5 -31
102 0 102 -1 -3 350 -3 349 99 -5 100 -5 0 51 0 52 -294 0 -293 0 0 -52z"/>
</g>
</svg>
